<svg xmlns="http://www.w3.org/2000/svg" viewBox="0 0 500 500"><g id="freepik--background-simple--inject-39"><path d="M14.62,179.94S33.87,98.58,109.73,59s166.33-22.74,240-11.1,120.53,68,115.52,135.61-64.42,74-109.78,141.79-47.71,93-120.78,124.16-166.91-20.11-203-111S14.62,179.94,14.62,179.94Z" style="fill:#FF0038"></path><path d="M14.62,179.94S33.87,98.58,109.73,59s166.33-22.74,240-11.1,120.53,68,115.52,135.61-64.42,74-109.78,141.79-47.71,93-120.78,124.16-166.91-20.11-203-111S14.62,179.94,14.62,179.94Z" style="fill:#fff;opacity:0.7000000000000001"></path></g><g id="freepik--Icons--inject-39"><g style="opacity:0.15"><path d="M401.58,142.5a3,3,0,0,0-.41-.08l-7.48-.44a.87.87,0,0,0-.36,0c-1.46.63-3,.29-4.48.27a1.9,1.9,0,0,1-1.67-2q0-4,0-7.93a2,2,0,0,1,2.06-2c1,0,2,0,3,0a5.42,5.42,0,0,1,.89.13c.74-.89,1.53-1.72,2.19-2.64a26.48,26.48,0,0,0,2.87-5.76,1.46,1.46,0,0,0,.06-.51c0-.28,0-.56,0-.84a1.74,1.74,0,0,1,1-1.64h.84c2.17.82,2.84,1.84,2.5,4.16-.18,1.19-.59,2.35-.87,3.53a11.06,11.06,0,0,0-.17,1.14l.71-.13a14.44,14.44,0,0,1,4.25-.27c2.29.27,3.24,1.46,2.9,3.72a.85.85,0,0,0,.14.47,2.83,2.83,0,0,1,0,3.06.9.9,0,0,0-.11.6,3.18,3.18,0,0,1-.78,3,.67.67,0,0,0-.2.39,3.32,3.32,0,0,1-2.75,3.42c-.63.17-1.29.27-1.93.4Zm-2-22.15a2.13,2.13,0,0,0-.08.7,3.7,3.7,0,0,1-.46,2.24c-.3.71-.59,1.41-.93,2.1a15.23,15.23,0,0,1-2.69,4.25,3.51,3.51,0,0,0-1.21,2.82c.12,2.57,0,5.15,0,7.72v.52c.37,0,.69.11,1,.12,2.41.13,4.82.26,7.24.35a6.9,6.9,0,0,0,3.55-.63,1.62,1.62,0,0,0,1-1.82,1.2,1.2,0,0,1,.49-1.25,1.71,1.71,0,0,0,.47-2.13.93.93,0,0,1,.19-1.13,1.47,1.47,0,0,0,0-2.12,1,1,0,0,1-.15-1.22,1.3,1.3,0,0,0-.78-1.9,4.2,4.2,0,0,0-1.06-.25,13,13,0,0,0-4.34.39c-.43.11-.9.2-1.21-.19a1.91,1.91,0,0,1-.41-1,10.49,10.49,0,0,1,.63-3.41,11.66,11.66,0,0,0,.39-2.55A1.57,1.57,0,0,0,399.6,120.35Zm-11.09,15.9v3.91c0,.56.25.82.79.83.93,0,1.87,0,2.81,0a.74.74,0,0,0,.83-.85v-7.71c0-.63-.27-.88-.9-.88q-1.31,0-2.61,0c-.68,0-.92.24-.92.95Z"></path></g><circle cx="398.07" cy="132.34" r="17.19" style="fill:none;stroke:#000;stroke-linecap:round;stroke-linejoin:round;opacity:0.15"></circle><g style="opacity:0.15"><path d="M291.89,245.36a1.7,1.7,0,0,0-.31-.06l-5.74-.34a.66.66,0,0,0-.28,0,8.12,8.12,0,0,1-3.43.21,1.45,1.45,0,0,1-1.28-1.55c0-2,0-4.05,0-6.08a1.54,1.54,0,0,1,1.57-1.57c.76,0,1.52,0,2.28,0a4.22,4.22,0,0,1,.69.1c.57-.68,1.17-1.32,1.68-2a20,20,0,0,0,2.2-4.42,1.54,1.54,0,0,0,.05-.39c0-.21,0-.42,0-.64a1.33,1.33,0,0,1,.81-1.26h.64c1.67.63,2.18,1.41,1.92,3.2-.14.91-.45,1.8-.67,2.7a7.13,7.13,0,0,0-.13.88l.55-.11a11.06,11.06,0,0,1,3.25-.2c1.76.2,2.49,1.12,2.23,2.85a.62.62,0,0,0,.1.36,2.16,2.16,0,0,1,0,2.34.71.71,0,0,0-.09.47,2.45,2.45,0,0,1-.59,2.3.45.45,0,0,0-.16.3,2.54,2.54,0,0,1-2.11,2.62c-.49.14-1,.21-1.48.31Zm-1.52-17a2,2,0,0,0-.06.54,2.85,2.85,0,0,1-.35,1.72c-.23.54-.46,1.08-.71,1.61a11.67,11.67,0,0,1-2.07,3.25,2.68,2.68,0,0,0-.92,2.17c.08,2,0,4,0,5.92v.4c.29,0,.53.08.79.09,1.85.1,3.7.2,5.55.27a5.2,5.2,0,0,0,2.72-.49,1.23,1.23,0,0,0,.78-1.39.91.91,0,0,1,.37-1,1.3,1.3,0,0,0,.36-1.63A.73.73,0,0,1,297,239a1.13,1.13,0,0,0,0-1.63.74.74,0,0,1-.11-.93,1,1,0,0,0-.6-1.46,3.29,3.29,0,0,0-.81-.19,10.08,10.08,0,0,0-3.33.3c-.34.08-.69.15-.93-.14a1.42,1.42,0,0,1-.31-.75,7.78,7.78,0,0,1,.48-2.61,9.39,9.39,0,0,0,.3-2A1.21,1.21,0,0,0,290.37,228.37Zm-8.5,12.2c0,1,0,2,0,3,0,.42.19.62.6.63q1.08,0,2.16,0a.56.56,0,0,0,.63-.65c0-2,0-3.94,0-5.92,0-.48-.2-.67-.68-.67-.67,0-1.34,0-2,0s-.71.19-.71.73Z"></path></g><circle cx="289.2" cy="237.57" r="13.18" transform="translate(-83.28 274.08) rotate(-45)" style="fill:none;stroke:#000;stroke-linecap:round;stroke-linejoin:round;opacity:0.15"></circle><g style="opacity:0.15"><path d="M87.24,446.53a3,3,0,0,0-.41-.08L79.35,446a.87.87,0,0,0-.36,0c-1.46.63-3,.29-4.48.27a1.89,1.89,0,0,1-1.67-2q0-4,0-7.93a2,2,0,0,1,2-2c1,0,2,0,3,0a5.42,5.42,0,0,1,.89.13c.74-.89,1.53-1.72,2.19-2.65A26.63,26.63,0,0,0,83.82,426a1.74,1.74,0,0,0,.06-.51c0-.28,0-.56,0-.84a1.76,1.76,0,0,1,1-1.65h.83c2.18.83,2.84,1.85,2.51,4.17-.18,1.19-.59,2.35-.88,3.53-.08.35-.11.72-.17,1.14l.72-.13a14.37,14.37,0,0,1,4.24-.27c2.3.27,3.25,1.46,2.91,3.72a.77.77,0,0,0,.13.47,2.81,2.81,0,0,1,0,3,.94.94,0,0,0-.11.61,3.21,3.21,0,0,1-.78,3c-.09.11-.21.26-.2.38a3.33,3.33,0,0,1-2.75,3.43c-.64.17-1.29.27-1.93.4Zm-2-22.15a2.13,2.13,0,0,0-.08.7,3.7,3.7,0,0,1-.46,2.24c-.31.7-.6,1.41-.93,2.1a15.46,15.46,0,0,1-2.69,4.25,3.48,3.48,0,0,0-1.21,2.82c.12,2.57,0,5.15,0,7.72v.52c.36,0,.69.11,1,.12,2.41.12,4.82.25,7.24.35a6.91,6.91,0,0,0,3.55-.63,1.63,1.63,0,0,0,1-1.82,1.19,1.19,0,0,1,.49-1.25,1.72,1.72,0,0,0,.47-2.13.93.93,0,0,1,.19-1.13,1.47,1.47,0,0,0,0-2.12,1,1,0,0,1-.15-1.22A1.3,1.3,0,0,0,93,433a4.31,4.31,0,0,0-1.06-.25,13,13,0,0,0-4.34.39c-.44.11-.9.2-1.21-.19a1.83,1.83,0,0,1-.41-1,10.49,10.49,0,0,1,.63-3.41A11.66,11.66,0,0,0,87,426,1.57,1.57,0,0,0,85.26,424.38Zm-11.09,15.9c0,1.31,0,2.61,0,3.91,0,.56.25.82.78.83q1.41,0,2.82,0c.57,0,.82-.28.83-.85v-7.71c0-.63-.27-.88-.9-.88H75.09c-.69,0-.92.24-.92.95Z"></path></g><circle cx="83.73" cy="436.37" r="17.19" transform="translate(-360.16 416.46) rotate(-76.57)" style="fill:none;stroke:#000;stroke-linecap:round;stroke-linejoin:round;opacity:0.15"></circle><circle cx="358.58" cy="52.15" r="26.88" style="fill:none;stroke:#000;stroke-linecap:round;stroke-linejoin:round;opacity:0.15"></circle><path d="M375.92,47.08a9.06,9.06,0,0,0-17.76-2.58A9.06,9.06,0,1,0,342.66,53l15.5,18.37L374.5,52.91A22.21,22.21,0,0,0,375.92,47.08Z" style="fill:none;stroke:#000;stroke-miterlimit:10;stroke-width:2px;opacity:0.15"></path><circle cx="301.44" cy="109" r="16.22" style="fill:none;stroke:#000;stroke-linecap:round;stroke-linejoin:round;opacity:0.15"></circle><path d="M311.91,105.94a5.47,5.47,0,0,0-10.72-1.56,5.47,5.47,0,1,0-9.36,5.14l9.36,11.08,9.86-11.14A13.4,13.4,0,0,0,311.91,105.94Z" style="fill:none;stroke:#000;stroke-miterlimit:10;stroke-width:2px;opacity:0.15"></path><circle cx="445.48" cy="260.19" r="11.23" style="fill:none;stroke:#000;stroke-linecap:round;stroke-linejoin:round;opacity:0.15"></circle><path d="M452.72,258.08A3.79,3.79,0,0,0,445.3,257a3.79,3.79,0,0,0-7.42,1.08,3.74,3.74,0,0,0,.95,2.47l6.47,7.68,6.83-7.72A9.3,9.3,0,0,0,452.72,258.08Z" style="fill:none;stroke:#000;stroke-miterlimit:10;stroke-width:2px;opacity:0.15"></path><circle cx="455.63" cy="159.72" r="20.54" transform="translate(-26.29 189.05) rotate(-22.8)" style="fill:none;stroke:#000;stroke-linecap:round;stroke-linejoin:round;opacity:0.15"></circle><path d="M468.88,155.85a6.93,6.93,0,0,0-13.57-2,6.92,6.92,0,1,0-11.84,6.5l11.84,14,12.48-14.11A16.91,16.91,0,0,0,468.88,155.85Z" style="fill:none;stroke:#000;stroke-miterlimit:10;stroke-width:2px;opacity:0.15"></path></g><g id="freepik--Character--inject-39"><path d="M300.72,343.94,308.06,385l-20.25,79.72H430.5c-5.81-22.68-17.41-67.86-17.77-69-.49-1.47,7.82-52.34,7.82-52.34s14.68,47,17.61,53.32,14.18,23.47,19.08,23.47,20.54-2.44,21.52-10.27-11.25-52.82-19.08-73.36-7.95-37.25-17.24-44.1S397.93,271,397.93,271c-34.23-5.38-49.27-3.84-49.27-3.84s-42.56,14.19-54.78,23.48a64.69,64.69,0,0,0-18.1,22.5l-18.59,89.5,27.88,2.94Z" style="fill:#263238"></path><path d="M424.16,456a9.32,9.32,0,0,0,3.27,5.34,10.53,10.53,0,0,0,1.44-3c-.6-2.34-1.23-4.82-1.89-7.38a9.24,9.24,0,0,0-1.07-1A9.27,9.27,0,0,0,424.16,456Z" style="fill:#fff;opacity:0.05"></path><path d="M444.05,378.19a9.35,9.35,0,0,0,2.39,5.79,7.79,7.79,0,0,0,3.25,1.74V380.1A9.5,9.5,0,0,0,444.05,378.19Z" style="fill:#fff;opacity:0.05"></path><path d="M440.63,354h4.91a10.17,10.17,0,0,0-1.39-4.47A9.63,9.63,0,0,0,440.63,354Z" style="fill:#fff;opacity:0.05"></path><path d="M427.43,349.91a7.76,7.76,0,0,0-1.52-11.35,7.74,7.74,0,0,0,1.52,11.35Z" style="fill:#fff;opacity:0.05"></path><path d="M449.69,348.57V343a9.5,9.5,0,0,0-5.64-1.91,9.31,9.31,0,0,0,2.39,5.78A7.57,7.57,0,0,0,449.69,348.57Z" style="fill:#fff;opacity:0.05"></path><path d="M463.05,375.71a9.23,9.23,0,0,0-1.74,6,9.32,9.32,0,0,0,3.26,5.34,7.74,7.74,0,0,0-1.52-11.35Z" style="fill:#fff;opacity:0.05"></path><path d="M440.63,391.15h4.91a10.17,10.17,0,0,0-1.39-4.47A9.57,9.57,0,0,0,440.63,391.15Z" style="fill:#fff;opacity:0.05"></path><path d="M475.48,405.78a9.28,9.28,0,0,0-2.53-5.72,7.74,7.74,0,0,0,0,11.45A9.29,9.29,0,0,0,475.48,405.78Z" style="fill:#fff;opacity:0.05"></path><path d="M466.37,419a6.47,6.47,0,0,0-.05-.76,9.32,9.32,0,0,0-3.27-5.34,9.25,9.25,0,0,0-1.74,6,5,5,0,0,0,.23,1A48.58,48.58,0,0,0,466.37,419Z" style="fill:#fff;opacity:0.05"></path><path d="M295.47,452.48a9.35,9.35,0,0,0,2.39,5.79,7.73,7.73,0,0,0,3.25,1.74h0a10.37,10.37,0,0,0,2.64.38,9.35,9.35,0,0,0-2.39-5.79l-.25-.21h0A9.5,9.5,0,0,0,295.47,452.48Z" style="fill:#fff;opacity:0.05"></path><path d="M412.55,348.57h0a10.32,10.32,0,0,0,2.64.38,9.29,9.29,0,0,0-2.4-5.78l-.24-.21h0a9.52,9.52,0,0,0-5.65-1.91,9.29,9.29,0,0,0,2.4,5.78A7.51,7.51,0,0,0,412.55,348.57Z" style="fill:#fff;opacity:0.05"></path><path d="M403.75,464.75h4.58A10.42,10.42,0,0,0,407,461,10.08,10.08,0,0,0,403.75,464.75Z" style="fill:#fff;opacity:0.05"></path><path d="M403.48,354h4.92a10.26,10.26,0,0,0-1.4-4.47A9.7,9.7,0,0,0,403.48,354Z" style="fill:#fff;opacity:0.05"></path><path d="M292.32,464.75h4.57a10.52,10.52,0,0,0-1.32-3.78A10.08,10.08,0,0,0,292.32,464.75Z" style="fill:#fff;opacity:0.05"></path><path d="M464.18,349.57c-.9-2.78-1.78-5.41-2.64-7.85a7.07,7.07,0,0,0-.23,2.85A8.85,8.85,0,0,0,464.18,349.57Z" style="fill:#fff;opacity:0.05"></path><path d="M406.9,415.34a9.29,9.29,0,0,0,2.4,5.78,7.51,7.51,0,0,0,3.25,1.74h0a10.32,10.32,0,0,0,2.64.38,9.29,9.29,0,0,0-2.4-5.78l-.24-.21h0A9.52,9.52,0,0,0,406.9,415.34Z" style="fill:#fff;opacity:0.05"></path><path d="M406.9,378.19a9.32,9.32,0,0,0,2.4,5.79,7.73,7.73,0,0,0,3.25,1.74h0a12,12,0,0,0,1.34.28c.15-1.06.31-2.18.49-3.34a7.25,7.25,0,0,0-1.59-2.35l-.24-.21h0A9.52,9.52,0,0,0,406.9,378.19Z" style="fill:#fff;opacity:0.05"></path><path d="M403.48,428.3h4.92a10.27,10.27,0,0,0-1.4-4.48A9.69,9.69,0,0,0,403.48,428.3Z" style="fill:#fff;opacity:0.05"></path><path d="M403.48,391.15h4.92a10.26,10.26,0,0,0-1.4-4.47A9.63,9.63,0,0,0,403.48,391.15Z" style="fill:#fff;opacity:0.05"></path><path d="M406.9,452.48a9.32,9.32,0,0,0,2.4,5.79,7.73,7.73,0,0,0,3.25,1.74h0a10.32,10.32,0,0,0,2.64.38,9.32,9.32,0,0,0-2.4-5.79l-.24-.21h0A9.52,9.52,0,0,0,406.9,452.48Z" style="fill:#fff;opacity:0.05"></path><path d="M438.34,368.64a9.32,9.32,0,0,0-2.53-5.73,7.74,7.74,0,0,0,0,11.45A9.28,9.28,0,0,0,438.34,368.64Z" style="fill:#fff;opacity:0.05"></path><path d="M438.34,331.49a9.28,9.28,0,0,0-2.53-5.72,7.74,7.74,0,0,0,0,11.45A9.32,9.32,0,0,0,438.34,331.49Z" style="fill:#fff;opacity:0.05"></path><path d="M438.34,294.35a9.29,9.29,0,0,0-2.53-5.73,7.74,7.74,0,0,0,0,11.45A9.28,9.28,0,0,0,438.34,294.35Z" style="fill:#fff;opacity:0.05"></path><path d="M457.33,329.88c-.73-2.27-1.39-4.49-2-6.63a10.15,10.15,0,0,0-1.91-.21,9.31,9.31,0,0,0,2.39,5.78A6.57,6.57,0,0,0,457.33,329.88Z" style="fill:#fff;opacity:0.05"></path><path d="M445.41,392.81a6.27,6.27,0,0,0,.13-1.66h-4.91a5.72,5.72,0,0,0-.17.59,9.33,9.33,0,0,0,1.27,6.13A9.3,9.3,0,0,0,445.41,392.81Z" style="fill:#fff;opacity:0.05"></path><path d="M424.57,293.8a7.75,7.75,0,0,0-8.29-7.91,7.75,7.75,0,0,0,8.29,7.91Z" style="fill:#fff;opacity:0.05"></path><path d="M417.84,360.33a9.16,9.16,0,0,0-1.56-.15,10.39,10.39,0,0,0,1,3.79C417.45,362.73,417.65,361.52,417.84,360.33Z" style="fill:#fff;opacity:0.05"></path><path d="M424.57,442.38a7.76,7.76,0,0,0-8.29-7.91,7.75,7.75,0,0,0,8.29,7.91Z" style="fill:#fff;opacity:0.05"></path><path d="M424.57,330.94a7.75,7.75,0,0,0-8.29-7.9,7.75,7.75,0,0,0,8.29,7.9Z" style="fill:#fff;opacity:0.05"></path><path d="M424.16,307.43a9.27,9.27,0,0,0,3.27,5.33,7.75,7.75,0,0,0-1.52-11.34A9.27,9.27,0,0,0,424.16,307.43Z" style="fill:#fff;opacity:0.05"></path><path d="M451,307.35a7,7,0,0,0-1.06-1.33l-.25-.21v5.62a10.93,10.93,0,0,0,2.58.38C451.85,310.26,451.43,308.77,451,307.35Z" style="fill:#fff;opacity:0.05"></path><path d="M461.71,405.23a7.73,7.73,0,0,0-8.28-7.9,7.73,7.73,0,0,0,8.28,7.9Z" style="fill:#fff;opacity:0.05"></path><path d="M461.71,368.09a7.73,7.73,0,0,0-8.28-7.91,7.73,7.73,0,0,0,8.28,7.91Z" style="fill:#fff;opacity:0.05"></path><path d="M445.41,355.66a6.27,6.27,0,0,0,.13-1.66h-4.91a5.9,5.9,0,0,0-.17.6,9.33,9.33,0,0,0,1.27,6.13A9.3,9.3,0,0,0,445.41,355.66Z" style="fill:#fff;opacity:0.05"></path><path d="M449.94,343.17c-.08-.08-.17-.14-.25-.21v5.61a10.37,10.37,0,0,0,2.64.38A9.31,9.31,0,0,0,449.94,343.17Z" style="fill:#fff;opacity:0.05"></path><path d="M444.15,312.39a9.57,9.57,0,0,0-3.52,4.47h4.91A10.17,10.17,0,0,0,444.15,312.39Z" style="fill:#fff;opacity:0.05"></path><path d="M445.41,318.52a6.27,6.27,0,0,0,.13-1.66h-4.91a5.72,5.72,0,0,0-.17.59,9.33,9.33,0,0,0,1.27,6.13A9.3,9.3,0,0,0,445.41,318.52Z" style="fill:#fff;opacity:0.05"></path><path d="M449.69,311.43v-5.62a9.5,9.5,0,0,0-5.64-1.91,9.35,9.35,0,0,0,2.39,5.79A7.79,7.79,0,0,0,449.69,311.43Z" style="fill:#fff;opacity:0.05"></path><path d="M449.94,380.31l-.25-.21v5.62a10.94,10.94,0,0,0,2.64.38A9.35,9.35,0,0,0,449.94,380.31Z" style="fill:#fff;opacity:0.05"></path><path d="M329.19,428.3h4.92a10.27,10.27,0,0,0-1.4-4.48A9.69,9.69,0,0,0,329.19,428.3Z" style="fill:#fff;opacity:0.05"></path><path d="M349.87,456a9.32,9.32,0,0,0,3.27,5.34A7.76,7.76,0,0,0,351.62,450,9.27,9.27,0,0,0,349.87,456Z" style="fill:#fff;opacity:0.05"></path><path d="M387,381.72a9.32,9.32,0,0,0,3.27,5.34,7.74,7.74,0,0,0-1.52-11.35A9.27,9.27,0,0,0,387,381.72Z" style="fill:#fff;opacity:0.05"></path><path d="M390.28,349.91a7.74,7.74,0,0,0-1.52-11.35,7.74,7.74,0,0,0,1.52,11.35Z" style="fill:#fff;opacity:0.05"></path><path d="M349.87,381.72a9.32,9.32,0,0,0,3.27,5.34,7.76,7.76,0,0,0-1.52-11.35A9.27,9.27,0,0,0,349.87,381.72Z" style="fill:#fff;opacity:0.05"></path><path d="M349.87,418.86a9.27,9.27,0,0,0,3.27,5.34,7.76,7.76,0,0,0-1.52-11.35A9.3,9.3,0,0,0,349.87,418.86Z" style="fill:#fff;opacity:0.05"></path><path d="M387,456a9.32,9.32,0,0,0,3.27,5.34A7.74,7.74,0,0,0,388.76,450,9.27,9.27,0,0,0,387,456Z" style="fill:#fff;opacity:0.05"></path><path d="M366.33,316.86h4.92a10.17,10.17,0,0,0-1.39-4.47A9.62,9.62,0,0,0,366.33,316.86Z" style="fill:#fff;opacity:0.05"></path><path d="M369.76,303.9a9.35,9.35,0,0,0,2.39,5.79,7.79,7.79,0,0,0,3.25,1.74v-5.62A9.5,9.5,0,0,0,369.76,303.9Z" style="fill:#fff;opacity:0.05"></path><path d="M369.76,341.05a9.31,9.31,0,0,0,2.39,5.78,7.57,7.57,0,0,0,3.25,1.74V343A9.5,9.5,0,0,0,369.76,341.05Z" style="fill:#fff;opacity:0.05"></path><path d="M353.14,312.76a7.75,7.75,0,0,0-1.52-11.34,7.73,7.73,0,0,0,1.52,11.34Z" style="fill:#fff;opacity:0.05"></path><path d="M387,418.86a9.27,9.27,0,0,0,3.27,5.34,7.74,7.74,0,0,0-1.52-11.35A9.3,9.3,0,0,0,387,418.86Z" style="fill:#fff;opacity:0.05"></path><path d="M284.71,405.53l.36,0,1-4.06A8.31,8.31,0,0,0,284.71,405.53Z" style="fill:#fff;opacity:0.05"></path><path d="M278.85,349.91a7.76,7.76,0,0,0-1.52-11.35,7.74,7.74,0,0,0,1.52,11.35Z" style="fill:#fff;opacity:0.05"></path><path d="M312.72,381.72a9.32,9.32,0,0,0,3.27,5.34,7.74,7.74,0,0,0-1.52-11.35A9.27,9.27,0,0,0,312.72,381.72Z" style="fill:#fff;opacity:0.05"></path><path d="M349.87,344.57a9.27,9.27,0,0,0,3.27,5.34,7.76,7.76,0,0,0-1.52-11.35A9.3,9.3,0,0,0,349.87,344.57Z" style="fill:#fff;opacity:0.05"></path><path d="M275.58,381.72a9.32,9.32,0,0,0,3.27,5.34,7.76,7.76,0,0,0-1.52-11.35A9.27,9.27,0,0,0,275.58,381.72Z" style="fill:#fff;opacity:0.05"></path><path d="M316,349.91a7.74,7.74,0,0,0-1.52-11.35A7.74,7.74,0,0,0,316,349.91Z" style="fill:#fff;opacity:0.05"></path><path d="M312.72,456a9.32,9.32,0,0,0,3.27,5.34A7.74,7.74,0,0,0,314.47,450,9.27,9.27,0,0,0,312.72,456Z" style="fill:#fff;opacity:0.05"></path><path d="M316,424.2a7.74,7.74,0,0,0-1.52-11.35A7.74,7.74,0,0,0,316,424.2Z" style="fill:#fff;opacity:0.05"></path><path d="M304.94,397.33l-.07.28a9,9,0,0,0,2.37,5.5,9.31,9.31,0,0,0,5.89,2.12,9.31,9.31,0,0,0-2.39-5.78A9.21,9.21,0,0,0,304.94,397.33Z" style="fill:#fff;opacity:0.05"></path><path d="M301.11,417.25h0a6.24,6.24,0,0,0-1.05-.74l-1.34,5.29a8.2,8.2,0,0,0,2.39,1.06h0a10.37,10.37,0,0,0,2.64.38,9.31,9.31,0,0,0-2.39-5.78C301.28,417.38,301.19,417.32,301.11,417.25Z" style="fill:#fff;opacity:0.05"></path><path d="M329.19,354h4.92a10.26,10.26,0,0,0-1.4-4.47A9.7,9.7,0,0,0,329.19,354Z" style="fill:#fff;opacity:0.05"></path><path d="M332.61,415.34a9.29,9.29,0,0,0,2.4,5.78,7.51,7.51,0,0,0,3.25,1.74v-5.61A9.53,9.53,0,0,0,332.61,415.34Z" style="fill:#fff;opacity:0.05"></path><path d="M329.19,391.15h4.92a10.26,10.26,0,0,0-1.4-4.47A9.63,9.63,0,0,0,329.19,391.15Z" style="fill:#fff;opacity:0.05"></path><path d="M332.61,378.19A9.32,9.32,0,0,0,335,384a7.73,7.73,0,0,0,3.25,1.74V380.1A9.53,9.53,0,0,0,332.61,378.19Z" style="fill:#fff;opacity:0.05"></path><path d="M406.9,303.9a9.32,9.32,0,0,0,2.4,5.79,7.73,7.73,0,0,0,3.25,1.74h0a10.89,10.89,0,0,0,2.64.38,9.32,9.32,0,0,0-2.4-5.79l-.24-.21h0A9.52,9.52,0,0,0,406.9,303.9Z" style="fill:#fff;opacity:0.05"></path><path d="M292,354H297a10.17,10.17,0,0,0-1.39-4.47A9.69,9.69,0,0,0,292,354Z" style="fill:#fff;opacity:0.05"></path><path d="M301.11,343h0a9.5,9.5,0,0,0-5.64-1.91,9.31,9.31,0,0,0,2.39,5.78,7,7,0,0,0,1.82,1.22l1-4.11.39,2.16.46,2.59a9.94,9.94,0,0,0,2.18.26,9.31,9.31,0,0,0-2.39-5.78C301.28,343.09,301.19,343,301.11,343Z" style="fill:#fff;opacity:0.05"></path><path d="M332.61,452.48a9.32,9.32,0,0,0,2.4,5.79,7.73,7.73,0,0,0,3.25,1.74v-5.62A9.53,9.53,0,0,0,332.61,452.48Z" style="fill:#fff;opacity:0.05"></path><path d="M329.46,464.75H334a10.42,10.42,0,0,0-1.33-3.78A10.08,10.08,0,0,0,329.46,464.75Z" style="fill:#fff;opacity:0.05"></path><path d="M332.61,303.9a9.32,9.32,0,0,0,2.4,5.79,7.73,7.73,0,0,0,3.25,1.74v-5.62A9.53,9.53,0,0,0,332.61,303.9Z" style="fill:#fff;opacity:0.05"></path><path d="M366.33,428.3h4.92a10.18,10.18,0,0,0-1.39-4.48A9.68,9.68,0,0,0,366.33,428.3Z" style="fill:#fff;opacity:0.05"></path><path d="M366.33,391.15h4.92a10.17,10.17,0,0,0-1.39-4.47A9.62,9.62,0,0,0,366.33,391.15Z" style="fill:#fff;opacity:0.05"></path><path d="M369.76,415.34a9.31,9.31,0,0,0,2.39,5.78,7.57,7.57,0,0,0,3.25,1.74v-5.61A9.5,9.5,0,0,0,369.76,415.34Z" style="fill:#fff;opacity:0.05"></path><path d="M332.61,341.05a9.29,9.29,0,0,0,2.4,5.78,7.51,7.51,0,0,0,3.25,1.74V343A9.53,9.53,0,0,0,332.61,341.05Z" style="fill:#fff;opacity:0.05"></path><path d="M369.76,378.19a9.35,9.35,0,0,0,2.39,5.79,7.79,7.79,0,0,0,3.25,1.74V380.1A9.5,9.5,0,0,0,369.76,378.19Z" style="fill:#fff;opacity:0.05"></path><path d="M329.19,316.86h4.92a10.26,10.26,0,0,0-1.4-4.47A9.63,9.63,0,0,0,329.19,316.86Z" style="fill:#fff;opacity:0.05"></path><path d="M369.76,452.48a9.35,9.35,0,0,0,2.39,5.79A7.79,7.79,0,0,0,375.4,460v-5.62A9.5,9.5,0,0,0,369.76,452.48Z" style="fill:#fff;opacity:0.05"></path><path d="M366.33,354h4.92a10.17,10.17,0,0,0-1.39-4.47A9.69,9.69,0,0,0,366.33,354Z" style="fill:#fff;opacity:0.05"></path><path d="M366.61,464.75h4.57a10.52,10.52,0,0,0-1.32-3.78A10.08,10.08,0,0,0,366.61,464.75Z" style="fill:#fff;opacity:0.05"></path><path d="M387.42,293.8a7.73,7.73,0,0,0-8.28-7.91,7.73,7.73,0,0,0,8.28,7.91Z" style="fill:#fff;opacity:0.05"></path><path d="M334,281.37a6.29,6.29,0,0,0,.14-1.66h-4.92a5.87,5.87,0,0,0-.16.6,9.29,9.29,0,0,0,1.26,6.13A9.3,9.3,0,0,0,334,281.37Z" style="fill:#fff;opacity:0.05"></path><path d="M334,392.81a6.29,6.29,0,0,0,.14-1.66h-4.92a5.69,5.69,0,0,0-.16.59,9.29,9.29,0,0,0,1.26,6.13A9.25,9.25,0,0,0,334,392.81Z" style="fill:#fff;opacity:0.05"></path><path d="M334,355.66a6.29,6.29,0,0,0,.14-1.66h-4.92a5.87,5.87,0,0,0-.16.6,9.29,9.29,0,0,0,1.26,6.13A9.25,9.25,0,0,0,334,355.66Z" style="fill:#fff;opacity:0.05"></path><path d="M326.9,294.35a9.29,9.29,0,0,0-2.53-5.73,7.74,7.74,0,0,0,0,11.45A9.28,9.28,0,0,0,326.9,294.35Z" style="fill:#fff;opacity:0.05"></path><path d="M334,318.52a6.29,6.29,0,0,0,.14-1.66h-4.92a5.69,5.69,0,0,0-.16.59,9.29,9.29,0,0,0,1.26,6.13A9.25,9.25,0,0,0,334,318.52Z" style="fill:#fff;opacity:0.05"></path><path d="M334,430a6.25,6.25,0,0,0,.14-1.65h-4.92a5.08,5.08,0,0,0-.16.59,9.29,9.29,0,0,0,1.26,6.13A9.25,9.25,0,0,0,334,430Z" style="fill:#fff;opacity:0.05"></path><path d="M326.9,442.93a9.32,9.32,0,0,0-2.53-5.73,7.74,7.74,0,0,0,0,11.45A9.28,9.28,0,0,0,326.9,442.93Z" style="fill:#fff;opacity:0.05"></path><path d="M326.9,405.78a9.28,9.28,0,0,0-2.53-5.72,7.74,7.74,0,0,0,0,11.45A9.29,9.29,0,0,0,326.9,405.78Z" style="fill:#fff;opacity:0.05"></path><path d="M326.9,368.64a9.32,9.32,0,0,0-2.53-5.73,7.74,7.74,0,0,0,0,11.45A9.28,9.28,0,0,0,326.9,368.64Z" style="fill:#fff;opacity:0.05"></path><path d="M326.9,331.49a9.28,9.28,0,0,0-2.53-5.72,7.74,7.74,0,0,0,0,11.45A9.32,9.32,0,0,0,326.9,331.49Z" style="fill:#fff;opacity:0.05"></path><path d="M338.5,380.31l-.24-.21v5.62a10.89,10.89,0,0,0,2.64.38A9.32,9.32,0,0,0,338.5,380.31Z" style="fill:#fff;opacity:0.05"></path><path d="M339.61,270.3l-1.35.49v3.49a10.32,10.32,0,0,0,2.64.38A10.12,10.12,0,0,0,339.61,270.3Z" style="fill:#fff;opacity:0.05"></path><path d="M338.5,306l-.24-.21v5.62a10.89,10.89,0,0,0,2.64.38A9.32,9.32,0,0,0,338.5,306Z" style="fill:#fff;opacity:0.05"></path><path d="M350.28,442.38a7.76,7.76,0,0,0-8.29-7.91,7.75,7.75,0,0,0,8.29,7.91Z" style="fill:#fff;opacity:0.05"></path><path d="M338.5,343.17c-.08-.08-.16-.14-.24-.21v5.61a10.32,10.32,0,0,0,2.64.38A9.29,9.29,0,0,0,338.5,343.17Z" style="fill:#fff;opacity:0.05"></path><path d="M338.5,417.46l-.24-.21v5.61a10.32,10.32,0,0,0,2.64.38A9.29,9.29,0,0,0,338.5,417.46Z" style="fill:#fff;opacity:0.05"></path><path d="M338.5,454.6l-.24-.21V460a10.32,10.32,0,0,0,2.64.38A9.32,9.32,0,0,0,338.5,454.6Z" style="fill:#fff;opacity:0.05"></path><path d="M350.28,405.23a7.75,7.75,0,0,0-8.29-7.9,7.75,7.75,0,0,0,8.29,7.9Z" style="fill:#fff;opacity:0.05"></path><path d="M332.71,275.24a9.7,9.7,0,0,0-3.52,4.47h4.92A10.26,10.26,0,0,0,332.71,275.24Z" style="fill:#fff;opacity:0.05"></path><path d="M312.72,307.43a9.27,9.27,0,0,0,3.27,5.33,7.73,7.73,0,0,0-1.52-11.34A9.27,9.27,0,0,0,312.72,307.43Z" style="fill:#fff;opacity:0.05"></path><path d="M338.26,274.28v-3.49l-3.66,1.32a5.51,5.51,0,0,0,.41.43A7.51,7.51,0,0,0,338.26,274.28Z" style="fill:#fff;opacity:0.05"></path><path d="M271.55,404.15l4.38.46a8.84,8.84,0,0,0-2.34-5.16,9.31,9.31,0,0,0-5.89-2.12,9.29,9.29,0,0,0,2.4,5.78A6.55,6.55,0,0,0,271.55,404.15Z" style="fill:#fff;opacity:0.05"></path><path d="M273.59,325.16l-.26-.23-1.09,5.25a10.44,10.44,0,0,0,3.75.76A9.29,9.29,0,0,0,273.59,325.16Z" style="fill:#fff;opacity:0.05"></path><path d="M313.13,293.8a7.73,7.73,0,0,0-8.28-7.91,7.73,7.73,0,0,0,8.28,7.91Z" style="fill:#fff;opacity:0.05"></path><path d="M278.85,312.76a9.29,9.29,0,0,0,1.74-6,6.35,6.35,0,0,0-.35-1.38c-1.44,2.14-2.52,4-3.26,5.38A10.09,10.09,0,0,0,278.85,312.76Z" style="fill:#fff;opacity:0.05"></path><path d="M259.82,391.15h-.24l-.79,3.82a6.93,6.93,0,0,0,.89-2.16A6.29,6.29,0,0,0,259.82,391.15Z" style="fill:#fff;opacity:0.05"></path><path d="M289.76,368.64a9.32,9.32,0,0,0-2.53-5.73,7.74,7.74,0,0,0,0,11.45A9.28,9.28,0,0,0,289.76,368.64Z" style="fill:#fff;opacity:0.05"></path><path d="M264,380.1a7.24,7.24,0,0,0-1.86-1.13L261,384.23a7.77,7.77,0,0,0,3,1.49Z" style="fill:#fff;opacity:0.05"></path><path d="M264.21,380.31l-.24-.21v5.62a10.89,10.89,0,0,0,2.64.38A9.32,9.32,0,0,0,264.21,380.31Z" style="fill:#fff;opacity:0.05"></path><path d="M276,368.09a7.75,7.75,0,0,0-8.29-7.91,7.75,7.75,0,0,0,8.29,7.91Z" style="fill:#fff;opacity:0.05"></path><path d="M313.13,442.38a7.75,7.75,0,0,0-8.28-7.91,7.73,7.73,0,0,0,8.28,7.91Z" style="fill:#fff;opacity:0.05"></path><path d="M313.13,368.09a7.73,7.73,0,0,0-8.28-7.91,7.73,7.73,0,0,0,8.28,7.91Z" style="fill:#fff;opacity:0.05"></path><path d="M301.11,311.43h0a10.94,10.94,0,0,0,2.64.38,9.35,9.35,0,0,0-2.39-5.79l-.25-.21h0a9.5,9.5,0,0,0-5.64-1.91,9.35,9.35,0,0,0,2.39,5.79A7.73,7.73,0,0,0,301.11,311.43Z" style="fill:#fff;opacity:0.05"></path><path d="M289.76,331.49a9.28,9.28,0,0,0-2.53-5.72,7.74,7.74,0,0,0,0,11.45A9.32,9.32,0,0,0,289.76,331.49Z" style="fill:#fff;opacity:0.05"></path><path d="M403.48,316.86h4.92a10.26,10.26,0,0,0-1.4-4.47A9.63,9.63,0,0,0,403.48,316.86Z" style="fill:#fff;opacity:0.05"></path><path d="M296.83,355.66A6.72,6.72,0,0,0,297,354H292c-.06.2-.11.39-.16.6a9.33,9.33,0,0,0,1.27,6.13A9.3,9.3,0,0,0,296.83,355.66Z" style="fill:#fff;opacity:0.05"></path><path d="M289.76,294.35c0-.08,0-.15,0-.23-1.42,1.33-2.73,2.68-3.93,4a10.34,10.34,0,0,0,1.41,1.92A9.28,9.28,0,0,0,289.76,294.35Z" style="fill:#fff;opacity:0.05"></path><path d="M295.57,312.39a9.62,9.62,0,0,0-3.53,4.47H297A10.17,10.17,0,0,0,295.57,312.39Z" style="fill:#fff;opacity:0.05"></path><path d="M296.83,318.52a6.72,6.72,0,0,0,.13-1.66H292c-.06.19-.11.39-.16.59a9.33,9.33,0,0,0,1.27,6.13A9.3,9.3,0,0,0,296.83,318.52Z" style="fill:#fff;opacity:0.05"></path><path d="M313.13,330.94a7.73,7.73,0,0,0-8.28-7.9,7.73,7.73,0,0,0,8.28,7.9Z" style="fill:#fff;opacity:0.05"></path><path d="M387.42,330.94a7.73,7.73,0,0,0-8.28-7.9,7.73,7.73,0,0,0,8.28,7.9Z" style="fill:#fff;opacity:0.05"></path><path d="M390.28,275.62a9.58,9.58,0,0,0,1.79-5.51l-5.1-.7a6.33,6.33,0,0,0,0,.87A9.27,9.27,0,0,0,390.28,275.62Z" style="fill:#fff;opacity:0.05"></path><path d="M388.76,301.42a7.73,7.73,0,0,0,1.52,11.34,7.73,7.73,0,0,0-1.52-11.34Z" style="fill:#fff;opacity:0.05"></path><path d="M401.19,442.93a9.32,9.32,0,0,0-2.53-5.73,7.74,7.74,0,0,0,0,11.45A9.28,9.28,0,0,0,401.19,442.93Z" style="fill:#fff;opacity:0.05"></path><path d="M401.19,405.78a9.28,9.28,0,0,0-2.53-5.72,7.74,7.74,0,0,0,0,11.45A9.29,9.29,0,0,0,401.19,405.78Z" style="fill:#fff;opacity:0.05"></path><path d="M375.65,268.88c-.08-.08-.17-.14-.25-.21v5.61a10.37,10.37,0,0,0,2.64.38A9.31,9.31,0,0,0,375.65,268.88Z" style="fill:#fff;opacity:0.05"></path><path d="M387.42,442.38a7.75,7.75,0,0,0-8.28-7.91,7.73,7.73,0,0,0,8.28,7.91Z" style="fill:#fff;opacity:0.05"></path><path d="M387.42,368.09a7.73,7.73,0,0,0-8.28-7.91,7.73,7.73,0,0,0,8.28,7.91Z" style="fill:#fff;opacity:0.05"></path><path d="M387.42,405.23a7.73,7.73,0,0,0-8.28-7.9,7.73,7.73,0,0,0,8.28,7.9Z" style="fill:#fff;opacity:0.05"></path><path d="M350.28,368.09a7.75,7.75,0,0,0-8.29-7.91,7.75,7.75,0,0,0,8.29,7.91Z" style="fill:#fff;opacity:0.05"></path><path d="M408.27,281.37a6.72,6.72,0,0,0,.13-1.66h-4.92a5.87,5.87,0,0,0-.16.6,9.29,9.29,0,0,0,1.26,6.13A9.34,9.34,0,0,0,408.27,281.37Z" style="fill:#fff;opacity:0.05"></path><path d="M401.19,368.64a9.32,9.32,0,0,0-2.53-5.73,7.74,7.74,0,0,0,0,11.45A9.28,9.28,0,0,0,401.19,368.64Z" style="fill:#fff;opacity:0.05"></path><path d="M407,275.24a9.7,9.7,0,0,0-3.52,4.47h4.92A10.26,10.26,0,0,0,407,275.24Z" style="fill:#fff;opacity:0.05"></path><path d="M408.27,355.66a6.72,6.72,0,0,0,.13-1.66h-4.92a5.87,5.87,0,0,0-.16.6,9.29,9.29,0,0,0,1.26,6.13A9.29,9.29,0,0,0,408.27,355.66Z" style="fill:#fff;opacity:0.05"></path><path d="M408.27,318.52a6.72,6.72,0,0,0,.13-1.66h-4.92a5.69,5.69,0,0,0-.16.59,9.29,9.29,0,0,0,1.26,6.13A9.3,9.3,0,0,0,408.27,318.52Z" style="fill:#fff;opacity:0.05"></path><path d="M375.65,306l-.25-.21v5.62a10.94,10.94,0,0,0,2.64.38A9.35,9.35,0,0,0,375.65,306Z" style="fill:#fff;opacity:0.05"></path><path d="M408.27,392.81a6.72,6.72,0,0,0,.13-1.66h-4.92a5.69,5.69,0,0,0-.16.59,9.29,9.29,0,0,0,1.26,6.13A9.3,9.3,0,0,0,408.27,392.81Z" style="fill:#fff;opacity:0.05"></path><path d="M401.19,294.35a9.29,9.29,0,0,0-2.53-5.73,7.74,7.74,0,0,0,0,11.45A9.28,9.28,0,0,0,401.19,294.35Z" style="fill:#fff;opacity:0.05"></path><path d="M408.27,430a6.68,6.68,0,0,0,.13-1.65h-4.92a5.08,5.08,0,0,0-.16.59,9.29,9.29,0,0,0,1.26,6.13A9.29,9.29,0,0,0,408.27,430Z" style="fill:#fff;opacity:0.05"></path><path d="M401.19,331.49a9.28,9.28,0,0,0-2.53-5.72,7.74,7.74,0,0,0,0,11.45A9.32,9.32,0,0,0,401.19,331.49Z" style="fill:#fff;opacity:0.05"></path><path d="M364.05,368.64a9.32,9.32,0,0,0-2.53-5.73,7.74,7.74,0,0,0,0,11.45A9.28,9.28,0,0,0,364.05,368.64Z" style="fill:#fff;opacity:0.05"></path><path d="M375.65,343.17c-.08-.08-.17-.14-.25-.21v5.61A10.37,10.37,0,0,0,378,349,9.31,9.31,0,0,0,375.65,343.17Z" style="fill:#fff;opacity:0.05"></path><path d="M364.05,331.49a9.28,9.28,0,0,0-2.53-5.72,7.74,7.74,0,0,0,0,11.45A9.32,9.32,0,0,0,364.05,331.49Z" style="fill:#fff;opacity:0.05"></path><path d="M364.05,294.35a9.29,9.29,0,0,0-2.53-5.73,7.74,7.74,0,0,0,0,11.45A9.28,9.28,0,0,0,364.05,294.35Z" style="fill:#fff;opacity:0.05"></path><path d="M350.28,293.8a7.75,7.75,0,0,0-8.29-7.91,7.75,7.75,0,0,0,8.29,7.91Z" style="fill:#fff;opacity:0.05"></path><path d="M371.12,430a6.68,6.68,0,0,0,.13-1.65h-4.92c-.06.19-.11.38-.16.59a9.33,9.33,0,0,0,1.27,6.13A9.3,9.3,0,0,0,371.12,430Z" style="fill:#fff;opacity:0.05"></path><path d="M350.28,330.94A7.75,7.75,0,0,0,342,323a7.75,7.75,0,0,0,8.29,7.9Z" style="fill:#fff;opacity:0.05"></path><path d="M364.05,442.93a9.32,9.32,0,0,0-2.53-5.73,7.74,7.74,0,0,0,0,11.45A9.28,9.28,0,0,0,364.05,442.93Z" style="fill:#fff;opacity:0.05"></path><path d="M353.14,275.62a9.32,9.32,0,0,0,1.74-6,7,7,0,0,0-1-2.66c-1.6,0-2.83.06-3.7.1a7.26,7.26,0,0,0-.35,3.23A9.27,9.27,0,0,0,353.14,275.62Z" style="fill:#fff;opacity:0.05"></path><path d="M364.05,405.78a9.28,9.28,0,0,0-2.53-5.72,7.74,7.74,0,0,0,0,11.45A9.29,9.29,0,0,0,364.05,405.78Z" style="fill:#fff;opacity:0.05"></path><path d="M375.65,454.6l-.25-.21V460a10.37,10.37,0,0,0,2.64.38A9.35,9.35,0,0,0,375.65,454.6Z" style="fill:#fff;opacity:0.05"></path><path d="M375.4,274.28v-5.61a6,6,0,0,0-.94-.67c-1.62-.16-3.16-.29-4.62-.4a8.74,8.74,0,0,0,2.31,4.94A7.57,7.57,0,0,0,375.4,274.28Z" style="fill:#fff;opacity:0.05"></path><path d="M375.65,417.46c-.08-.08-.17-.14-.25-.21v5.61a10.37,10.37,0,0,0,2.64.38A9.31,9.31,0,0,0,375.65,417.46Z" style="fill:#fff;opacity:0.05"></path><path d="M375.65,380.31l-.25-.21v5.62a10.94,10.94,0,0,0,2.64.38A9.35,9.35,0,0,0,375.65,380.31Z" style="fill:#fff;opacity:0.05"></path><path d="M371.12,318.52a6.72,6.72,0,0,0,.13-1.66h-4.92c-.06.19-.11.39-.16.59a9.33,9.33,0,0,0,1.27,6.13A9.3,9.3,0,0,0,371.12,318.52Z" style="fill:#fff;opacity:0.05"></path><path d="M369.86,275.24a9.69,9.69,0,0,0-3.53,4.47h4.92A10.17,10.17,0,0,0,369.86,275.24Z" style="fill:#fff;opacity:0.05"></path><path d="M371.12,392.81a6.72,6.72,0,0,0,.13-1.66h-4.92c-.06.19-.11.39-.16.59a9.33,9.33,0,0,0,1.27,6.13A9.3,9.3,0,0,0,371.12,392.81Z" style="fill:#fff;opacity:0.05"></path><path d="M371.12,355.66a6.72,6.72,0,0,0,.13-1.66h-4.92c-.06.2-.11.39-.16.6a9.33,9.33,0,0,0,1.27,6.13A9.3,9.3,0,0,0,371.12,355.66Z" style="fill:#fff;opacity:0.05"></path><path d="M371.12,281.37a6.72,6.72,0,0,0,.13-1.66h-4.92c-.06.2-.11.39-.16.6a9.33,9.33,0,0,0,1.27,6.13A9.35,9.35,0,0,0,371.12,281.37Z" style="fill:#fff;opacity:0.05"></path><path d="M300.72,343.94,308.06,385l-20.25,79.72H430.5c-5.81-22.68-17.41-67.86-17.77-69-.49-1.47,7.82-52.34,7.82-52.34s14.68,47,17.61,53.32,14.18,23.47,19.08,23.47,20.54-2.44,21.52-10.27-11.25-52.82-19.08-73.36-7.95-37.25-17.24-44.1S397.93,271,397.93,271c-34.23-5.38-49.27-3.84-49.27-3.84s-42.56,14.19-54.78,23.48a64.69,64.69,0,0,0-18.1,22.5l-18.59,89.5,27.88,2.94Z" style="fill:none;stroke:#263238;stroke-linecap:round;stroke-linejoin:round"></path><path d="M320.68,256.76,306.9,420.42a31.24,31.24,0,0,0,15.41,7.2c9.13,1.3,20.22-4.24,24.46-3.91s8.8,1.3,10.76.32a11,11,0,0,0,3.26-2.61s-5.55-51.51-9.78-77.6-9.79-60.65-9.79-60.65Z" style="fill:#FF0038;stroke:#263238;stroke-linecap:round;stroke-linejoin:round"></path><polygon points="319.95 266.71 342.99 301.05 342.99 293.37 319.7 260.35 319.95 266.71" style="fill:#263238;stroke:#263238;stroke-linecap:round;stroke-linejoin:round"></polygon><line x1="323.69" y1="325.37" x2="323.62" y2="330.13" style="fill:none;stroke:#263238;stroke-linecap:round;stroke-linejoin:round"></line><line x1="324.59" y1="264.59" x2="323.77" y2="319.84" style="fill:none;stroke:#263238;stroke-linecap:round;stroke-linejoin:round"></line><line x1="329.49" y1="271.43" x2="329.81" y2="312.19" style="fill:none;stroke:#263238;stroke-linecap:round;stroke-linejoin:round"></line><line x1="337.64" y1="293.61" x2="340.9" y2="334.04" style="fill:none;stroke:#263238;stroke-linecap:round;stroke-linejoin:round"></line><path d="M322.94,267.91s16.37,26.49,23.8,34.52,11.61,14.88,18.46,12.8c9.1-2.77,18.12-9.42,25.22-15.54s12.18-14.52,13.22-23.94c.2-1.81-2-22.75-3.63-21.53-2.38,1.79-20.53,19-34.22,24.11S322.94,267.91,322.94,267.91Z" style="fill:#FF0038;stroke:#263238;stroke-linecap:round;stroke-linejoin:round;stroke-width:0.912693373636742px"></path><path d="M342.55,280.73s24.09,23.4,33.61,21.31,22.32-32.73,22.62-44.93" style="fill:#263238;stroke:#263238;stroke-linecap:round;stroke-linejoin:round;stroke-width:0.912693373636742px"></path><path d="M345,283.09s22.91,18.15,32.44,16.07,22.32-32.74,22.61-44.94" style="fill:#FF0038;stroke:#263238;stroke-linecap:round;stroke-linejoin:round;stroke-width:0.912693373636742px"></path><path d="M349.13,285.47l1.26.08c3.61.19,14.25.57,22.67-1.11,10.31-2.07,23.1-21,23.1-21a158.49,158.49,0,0,1-26,13.61C356.57,282.37,349.13,285.47,349.13,285.47Z" style="fill:#263238;stroke:#263238;stroke-linecap:round;stroke-linejoin:round;stroke-width:0.912693373636742px"></path><path d="M390.79,209.28s8.63,19.94,10.12,25.6,3.87,11.6.3,19.64-12.8,17.85-23.22,23.81-24.1,5.95-24.1,5.95,25.59-20.24,30.35-37.2S390.79,209.28,390.79,209.28Z" style="fill:#FF0038;stroke:#263238;stroke-linecap:round;stroke-linejoin:round;stroke-width:0.912693373636742px"></path><path d="M331.87,173.57S313.71,187,311.33,197.08s-1.78,23.21.89,29.76,3.57,30.65,5.36,36.31,25.59,22.32,31.55,22.32,18.74-1.79,31.84-17,16.37-30.95,14.28-42.56-7.73-25-12.5-35.12-24.1-19.94-34.22-21.13A24.19,24.19,0,0,0,331.87,173.57Z" style="fill:#FF0038;stroke:#263238;stroke-linecap:round;stroke-linejoin:round;stroke-width:0.912693373636742px"></path><path d="M336.63,207.8s-13.69-1.19-12.8-3.28S339.67,202,339.67,202,339.6,206,336.63,207.8Z" style="fill:#263238;stroke:#263238;stroke-linecap:round;stroke-linejoin:round;stroke-width:0.912693373636742px"></path><path d="M323.83,204.52s7.74-8.93,14-11.6" style="fill:none;stroke:#263238;stroke-linecap:round;stroke-linejoin:round;stroke-width:0.912693373636742px"></path><path d="M339.67,202s0,3.23-3.95,5.75-15.08,11.13-15.8,15.08,1.08,26.93,4.67,35.55,16.51,24.41,21.18,26.21,9.34,1.08,15.44-6.46,13-23,13.71-28.78.72-14.37-1.43-19.75S358.34,206.64,353,204.48,339.67,202,339.67,202Z" style="fill:#d1d1d1;stroke:#263238;stroke-linecap:round;stroke-linejoin:round;stroke-width:0.912693373636742px"></path><path d="M339.31,228.9s4.31,11.49,4.31,16.16-.36,13.29,1.79,14.36S349,257.27,349,254" style="fill:none;stroke:#263238;stroke-linecap:round;stroke-linejoin:round;stroke-width:0.912693373636742px"></path><path d="M340.39,264.81s7.9,6.82,16.51-1.08" style="fill:none;stroke:#263238;stroke-linecap:round;stroke-linejoin:round;stroke-width:0.912693373636742px"></path><path d="M337.51,228.54s-7.9-1.07-10.05,4.67" style="fill:none;stroke:#263238;stroke-linecap:round;stroke-linejoin:round;stroke-width:2.738080120910226px"></path><path d="M350.44,228.9S356.9,226,363,232.13" style="fill:none;stroke:#263238;stroke-linecap:round;stroke-linejoin:round;stroke-width:2.738080120910226px"></path><path d="M336.28,241.75c.45,1.67.13,3.2-.7,3.42s-1.87-.95-2.31-2.61-.14-3.2.7-3.42S335.83,240.09,336.28,241.75Z" style="fill:#263238"></path><path d="M358,242c.13,1.72-.46,3.17-1.32,3.24s-1.66-1.28-1.79-3,.46-3.16,1.31-3.23S357.82,240.32,358,242Z" style="fill:#263238"></path><line x1="331.21" y1="246.17" x2="337.22" y2="247.5" style="fill:none;stroke:#263238;stroke-linecap:round;stroke-linejoin:round;stroke-width:0.912693373636742px"></line><line x1="354.17" y1="247.5" x2="361.52" y2="246.39" style="fill:none;stroke:#263238;stroke-linecap:round;stroke-linejoin:round;stroke-width:0.912693373636742px"></line><path d="M373.44,354.21s-9.78-3.58-12.07-3.58-13,4.89-15.65,5.87-2.93,5.21,0,5.54,14.67-4.89,14.67-4.89l8.48,4.89Z" style="fill:#d1d1d1;stroke:#263238;stroke-linecap:round;stroke-linejoin:round"></path><path d="M375.72,382.26a37.33,37.33,0,0,0,9.78,6.84c5.22,2.29,11.41.33,11.41.33s-1-11.74-8.8-15.33S373.11,375.41,375.72,382.26Z" style="fill:#d1d1d1;stroke:#263238;stroke-linecap:round;stroke-linejoin:round"></path><path d="M398.51,389.74s0,.56,0,1.59c-.15,7.46-.35,39.5,6.92,57.77,0,0,.48-42.3-.81-51.23S400.9,384.56,398.51,389.74Z" style="fill:#5c5c5c;stroke:#263238;stroke-linecap:round;stroke-linejoin:round"></path><path d="M406.7,383.56s-13.37-13-22.18-21.85-9.78-10.1-13.37-7.82-15.32,18.26-14.34,20.54,11.08,14.35,13.69,15.65a38,38,0,0,0,4.57,2s2.28,5.54,4.24,3.26S378,383.89,378,383.89l5.55-2.29s3.58,7.83,11.08,10.76A59.35,59.35,0,0,0,409,396Z" style="fill:#d1d1d1;stroke:#263238;stroke-linecap:round;stroke-linejoin:round"></path><line x1="383.55" y1="381.6" x2="391.7" y2="379.32" style="fill:#fff;stroke:#263238;stroke-linecap:round;stroke-linejoin:round"></line><path d="M384.2,370.52s-14.35,7.17-13.7,9.78S375.07,392,375.07,392" style="fill:none;stroke:#263238;stroke-linecap:round;stroke-linejoin:round"></path><path d="M377.35,360.74s-14.35,13.36-13.69,16,6.84,13.37,6.84,13.37" style="fill:none;stroke:#263238;stroke-linecap:round;stroke-linejoin:round"></path><path d="M401.8,378.67l3.59,70.43s28.7-7.5,48.59-12.72,28.69-12.39,26.41-29.67-12.72-16.63-21.52-17.93S413.87,384.21,401.8,378.67Z" style="fill:#263238"></path><path d="M470.42,405.78a9.28,9.28,0,0,1,2.53-5.72,7.74,7.74,0,0,1,0,11.45A9.29,9.29,0,0,1,470.42,405.78Zm-17-8.45a7.73,7.73,0,0,0,8.28,7.9,7.73,7.73,0,0,0-8.28-7.9Zm-1.1,25.91a9.31,9.31,0,0,0-2.39-5.78c-.08-.08-.17-.14-.25-.21v5.61A10.37,10.37,0,0,0,452.33,423.24Zm9-4.38a9.28,9.28,0,0,0,3.26,5.34,7.74,7.74,0,0,0-1.52-11.35A9.25,9.25,0,0,0,461.31,418.86Zm-7.88,15.61a10.54,10.54,0,0,0,.31,2l.24-.06c1.22-.32,2.41-.65,3.55-1A10.4,10.4,0,0,0,453.43,434.47Zm-12.8-43.32h4.91a10.07,10.07,0,0,0-1.21-4.16l-.53-.06A9.3,9.3,0,0,0,440.63,391.15Zm-25.44-5a10.39,10.39,0,0,0-1-3.77l-1.67-.37v3.76A10.89,10.89,0,0,0,415.19,386.1Zm12.24,1a10.76,10.76,0,0,0,1.17-2.18l-3.5-.55A10.54,10.54,0,0,0,427.43,387.06Zm8.38,13a7.74,7.74,0,0,0,0,11.45,7.74,7.74,0,0,0,0-11.45Zm4.65-8.32a9.33,9.33,0,0,0,1.27,6.13,9.3,9.3,0,0,0,3.68-5.06,6.27,6.27,0,0,0,.13-1.66h-4.91A5.72,5.72,0,0,0,440.46,391.74Zm.17,36.56h4.91a10.18,10.18,0,0,0-1.39-4.48A9.62,9.62,0,0,0,440.63,428.3Zm-24.35-31a7.75,7.75,0,0,0,8.29,7.9,7.75,7.75,0,0,0-8.29-7.9Zm27.77,18a9.31,9.31,0,0,0,2.39,5.78,7.57,7.57,0,0,0,3.25,1.74v-5.61A9.5,9.5,0,0,0,444.05,415.34Zm-31.5,1.91h0v5.61a10.32,10.32,0,0,0,2.64.38,9.29,9.29,0,0,0-2.4-5.78Zm11.61,1.61a9.27,9.27,0,0,0,3.27,5.34,7.76,7.76,0,0,0-1.52-11.35A9.3,9.3,0,0,0,424.16,418.86Zm9.23,22.92,4.51-1.19a10.5,10.5,0,0,0-2.09-3.39A9.93,9.93,0,0,0,433.39,441.78Zm7.24-13.48a5.08,5.08,0,0,0-.17.59,9.33,9.33,0,0,0,1.27,6.13,9.3,9.3,0,0,0,3.68-5.07,6.23,6.23,0,0,0,.13-1.65Zm-24.35,6.17a7.75,7.75,0,0,0,8.29,7.91,7.76,7.76,0,0,0-8.29-7.91Zm-12.8-43.32h4.92a10.26,10.26,0,0,0-1.4-4.47A9.63,9.63,0,0,0,403.48,391.15Zm9.07-5.43h0V382c-1.86-.42-3.6-.86-5.2-1.32a6.94,6.94,0,0,0,5.2,5.08Zm-8,12.15a9.3,9.3,0,0,0,3.69-5.06,6.72,6.72,0,0,0,.13-1.66h-4.92a5.69,5.69,0,0,0-.16.59A9.29,9.29,0,0,0,404.58,397.87Zm-.25,30.43h4.07a10.27,10.27,0,0,0-1.4-4.48,10.53,10.53,0,0,0-2.75,2.86Zm2.57-13a9.29,9.29,0,0,0,2.4,5.78,7.51,7.51,0,0,0,3.25,1.74h0v-5.61A9.52,9.52,0,0,0,406.9,415.34Zm-2.57,13,.34,6.66a9.22,9.22,0,0,0,3.6-5,6.68,6.68,0,0,0,.13-1.65Z" style="fill:#fff;opacity:0.05"></path><path d="M401.8,378.67l3.59,70.43s28.7-7.5,48.59-12.72,28.69-12.39,26.41-29.67-12.72-16.63-21.52-17.93S413.87,384.21,401.8,378.67Z" style="fill:none;stroke:#263238;stroke-linecap:round;stroke-linejoin:round"></path><rect x="317.78" y="337.73" width="28.02" height="56.03" rx="4.53" transform="translate(-52.65 55.81) rotate(-8.91)" style="fill:#fff;stroke:#263238;stroke-linecap:round;stroke-linejoin:round"></rect><path d="M339,342.61a2.4,2.4,0,1,1-2.4-2.4A2.39,2.39,0,0,1,339,342.61Z" style="fill:#263238;stroke:#263238;stroke-linecap:round;stroke-linejoin:round"></path><path d="M301,458.67s6.15-7.17,6.49-51.25l-10.59,1.37S295.91,450.47,301,458.67Z" style="fill:#5c5c5c;stroke:#263238;stroke-linecap:round;stroke-linejoin:round"></path><path d="M299.67,394.78s5.81-3.07,6.49-9.22,1.37-20.16,2.73-23.58,4.45-15.37,4.45-15.37,3.07-.68,3.07,6.83S315,365.74,315,366.77s2,7.85,3.76,7.85,16.4-13.32,18.11-14.69,8.88-6.15,9.91-4.44.34,4.79-2.73,6.84S327.69,378,327.69,378s2.05,2,3.75,2,18.11-15,19.14-15.71,3.61-.23,3,2.1.41,5.41-.95,8.14-2.05,8.55-4.44,13.67-6.5,10.93-10.6,13.67-13,5.12-19.13,7.17-11.27,4.1-13.32,4.79-6.84,4.44-6.84,4.44Z" style="fill:#d1d1d1;stroke:#263238;stroke-linecap:round;stroke-linejoin:round"></path><path d="M353.58,366.48s-10.52,16-17,21.13" style="fill:none;stroke:#263238;stroke-linecap:round;stroke-linejoin:round"></path><path d="M351.94,376.33A36.49,36.49,0,0,1,341,391" style="fill:none;stroke:#263238;stroke-linecap:round;stroke-linejoin:round"></path><path d="M302.74,392.05,301,458.67s-24.26-15-35.19-28-10.94-28-8.2-35.19a16.08,16.08,0,0,1,11.61-9.91C280.88,384.19,302.74,392.05,302.74,392.05Z" style="fill:#263238"></path><path d="M301.11,422.86v-5.61h0c.08.07.17.13.25.21a6.84,6.84,0,0,1,.71.82l-.12,4.78C301.69,423,301.4,422.94,301.11,422.86Zm0,31.56,0,0h0v1.41ZM297,391.15a6.77,6.77,0,0,0-.11-1c-1.13-.35-2.37-.71-3.7-1.09a7.56,7.56,0,0,0-1.11,2.11Zm-18.11-4.09a10.21,10.21,0,0,0,.64-1.05c-.66-.1-1.31-.18-2-.26A10.55,10.55,0,0,0,278.85,387.06Zm8.38,13a7.74,7.74,0,0,0,0,11.45,7.74,7.74,0,0,0,0-11.45Zm4.65-8.32a9.33,9.33,0,0,0,1.27,6.13,9.3,9.3,0,0,0,3.68-5.06,6.72,6.72,0,0,0,.13-1.66H292C292,391.34,291.93,391.54,291.88,391.74ZM292,428.3H297a10.18,10.18,0,0,0-1.39-4.48A9.68,9.68,0,0,0,292,428.3Zm-24.34-31a7.75,7.75,0,0,0,8.29,7.9,7.75,7.75,0,0,0-8.29-7.9Zm27.77,18a9.31,9.31,0,0,0,2.39,5.78,7.51,7.51,0,0,0,3.25,1.74h0v-5.61A9.5,9.5,0,0,0,295.47,415.34Zm-28.86,7.9a9.29,9.29,0,0,0-2.4-5.78l-.24-.21v5.61A10.32,10.32,0,0,0,266.61,423.24Zm9-4.38a9.27,9.27,0,0,0,3.27,5.34,7.76,7.76,0,0,0-1.52-11.35A9.3,9.3,0,0,0,275.58,418.86Zm11.65,29.79a7.74,7.74,0,0,0,0-11.45,7.74,7.74,0,0,0,0,11.45Zm9.6-18.7a6.68,6.68,0,0,0,.13-1.65H292c-.06.19-.11.38-.16.59a9.33,9.33,0,0,0,1.27,6.13A9.3,9.3,0,0,0,296.83,430Zm-27.26,4.72c1.87,1.86,3.92,3.73,6.05,5.55a7.86,7.86,0,0,0-2-3.62A8,8,0,0,0,269.57,434.67Zm31.47,24,.07-2.87v-1.41a9.5,9.5,0,0,0-5.64-1.91,10.36,10.36,0,0,0,.63,3C299.11,457.48,301,458.67,301,458.67Zm-43.88-61.74a8.26,8.26,0,0,0,2.52-4.12,6.64,6.64,0,0,0,.14-1.24,15.35,15.35,0,0,0-2.17,3.9C257.47,395.92,257.31,396.41,257.16,396.93ZM264,417.25a9.53,9.53,0,0,0-5.65-1.91,9.29,9.29,0,0,0,2.4,5.78,7.51,7.51,0,0,0,3.25,1.74Z" style="fill:#fff;opacity:0.05"></path><path d="M302.74,392.05,301,458.67s-24.26-15-35.19-28-10.94-28-8.2-35.19a16.08,16.08,0,0,1,11.61-9.91C280.88,384.19,302.74,392.05,302.74,392.05Z" style="fill:none;stroke:#263238;stroke-linecap:round;stroke-linejoin:round"></path></g><g id="freepik--Window--inject-39"><rect x="36.94" y="44.61" width="210.06" height="340.86" style="fill:#fff;stroke:#263238;stroke-linecap:round;stroke-linejoin:round;stroke-width:0.9535225629806519px"></rect><rect x="36.94" y="132.95" width="210.06" height="201.68" style="fill:#FF0038"></rect><rect x="36.94" y="132.95" width="210.06" height="201.68" style="fill:none;stroke:#263238;stroke-miterlimit:10;stroke-width:0.9535225629806519px"></rect><g style="opacity:0.5"><polygon points="127 132.96 114.95 132.96 36.94 162.97 36.94 167.61 127 132.96" style="opacity:0.15"></polygon><polygon points="36.94 153.72 36.94 158.36 102.96 132.96 90.91 132.96 36.94 153.72" style="opacity:0.15"></polygon><polygon points="247 158.8 247 154.16 36.94 235.1 36.94 239.73 247 158.8" style="opacity:0.15"></polygon><polygon points="36.94 225.84 36.94 230.48 247 149.54 247 144.91 36.94 225.84" style="opacity:0.15"></polygon><polygon points="247 230.96 247 226.32 36.94 307.15 36.94 311.79 247 230.96" style="opacity:0.15"></polygon><polygon points="36.94 297.9 36.94 302.54 247 221.71 247 217.07 36.94 297.9" style="opacity:0.15"></polygon><polygon points="247 303.05 247 298.41 152.87 334.63 164.92 334.63 247 303.05" style="opacity:0.15"></polygon><polygon points="128.83 334.63 140.88 334.63 247 293.8 247 289.16 128.83 334.63" style="opacity:0.15"></polygon><polygon points="36.94 172.17 36.94 209.24 86.25 334.63 100.82 334.63 36.94 172.17" style="opacity:0.15"></polygon><polygon points="36.94 143.05 36.94 153.64 108.11 334.63 112.27 334.63 36.94 143.05" style="opacity:0.15"></polygon><polygon points="64.38 334.63 78.96 334.63 36.94 227.77 36.94 264.84 64.38 334.63" style="opacity:0.15"></polygon><polygon points="172.51 334.63 187.09 334.63 107.79 132.96 93.22 132.96 172.51 334.63" style="opacity:0.15"></polygon><polygon points="129.65 132.96 115.08 132.96 194.37 334.63 208.95 334.63 129.65 132.96" style="opacity:0.15"></polygon><polygon points="141.1 132.96 136.94 132.96 216.24 334.63 220.4 334.63 141.1 132.96" style="opacity:0.15"></polygon><polygon points="247 137.16 247 132.96 245.34 132.96 247 137.16" style="opacity:0.38"></polygon><polygon points="247 248.37 247 211.3 216.2 132.96 201.62 132.96 247 248.37" style="opacity:0.15"></polygon><polygon points="238.06 132.96 223.48 132.96 247 192.77 247 155.7 238.06 132.96" style="opacity:0.15"></polygon></g><rect x="36.94" y="44.61" width="210.06" height="10.23" style="fill:#263238;stroke:#263238;stroke-linecap:round;stroke-linejoin:round;stroke-width:0.9535225629806519px"></rect><circle cx="42.96" cy="49.03" r="1.79" style="fill:#fff"></circle><circle cx="51.21" cy="49.03" r="1.79" style="fill:#fff"></circle><path d="M61.24,49a1.79,1.79,0,1,1-1.79-1.79A1.79,1.79,0,0,1,61.24,49Z" style="fill:#fff"></path><rect x="43.78" y="59.92" width="13.09" height="13.09" rx="1.91" style="fill:none;stroke:#263238;stroke-linecap:round;stroke-linejoin:round;stroke-width:0.9535225629806519px"></rect><path d="M55.16,59.92H45.49a1.7,1.7,0,0,0-1.71,1.71v3.69H56.87V61.63A1.71,1.71,0,0,0,55.16,59.92Z" style="fill:#263238;stroke:#263238;stroke-linecap:round;stroke-linejoin:round;stroke-width:0.9535225629806519px"></path><path d="M48.34,62.48a1.26,1.26,0,1,1-1.26-1.26A1.25,1.25,0,0,1,48.34,62.48Z" style="fill:#fff"></path><path d="M106.11,65.47A2.15,2.15,0,1,1,104,63.32,2.14,2.14,0,0,1,106.11,65.47Z" style="fill:none;stroke:#263238;stroke-linecap:round;stroke-linejoin:round;stroke-width:0.9535225629806519px"></path><path d="M107.8,71a4.06,4.06,0,0,0-7.67,0Z" style="fill:none;stroke:#263238;stroke-linecap:round;stroke-linejoin:round;stroke-width:0.9535225629806519px"></path><path d="M99.41,64a2.71,2.71,0,1,1-2.71-2.7A2.71,2.71,0,0,1,99.41,64Z" style="fill:none;stroke:#263238;stroke-linecap:round;stroke-linejoin:round;stroke-width:0.9535225629806519px"></path><path d="M101.53,71a5.11,5.11,0,0,0-9.65,0Z" style="fill:none;stroke:#263238;stroke-linecap:round;stroke-linejoin:round;stroke-width:0.9535225629806519px"></path><circle cx="106.38" cy="62.19" r="1.99" style="fill:#FF0038"></circle><circle cx="190.47" cy="62.19" r="1.99" style="fill:#FF0038"></circle><path d="M138.84,60.77h5.08a2.87,2.87,0,0,1,2.87,2.87V71a0,0,0,0,1,0,0H136a0,0,0,0,1,0,0V63.64A2.87,2.87,0,0,1,138.84,60.77Z" style="fill:none;stroke:#263238;stroke-linecap:round;stroke-linejoin:round;stroke-width:0.9535225629806519px"></path><path d="M144.22,60.77h-5.69A2.56,2.56,0,0,0,136,63.33v.74h.2a1.27,1.27,0,0,0,2.53,0h.12a1.27,1.27,0,0,0,2.53,0h.12a1.27,1.27,0,0,0,2.53,0h.12a1.27,1.27,0,0,0,2.53,0h.13v-.74A2.56,2.56,0,0,0,144.22,60.77Z" style="fill:none;stroke:#263238;stroke-linecap:round;stroke-linejoin:round;stroke-width:0.9535225629806519px"></path><rect x="139.97" y="67.18" width="2.88" height="3.92" style="fill:none;stroke:#263238;stroke-linecap:round;stroke-linejoin:round;stroke-width:0.9535225629806519px"></rect><path d="M187.12,69.71a1.27,1.27,0,1,1-1.26-1.26A1.26,1.26,0,0,1,187.12,69.71Z" style="fill:#fff;stroke:#263238;stroke-linecap:round;stroke-linejoin:round;stroke-width:0.9535225629806519px"></path><path d="M190.47,69.71A7.7,7.7,0,0,0,188.61,67c-.06-2.25-1.31-4-2.87-4s-2.81,1.8-2.87,4A7.7,7.7,0,0,0,181,69.71Z" style="fill:#fff;stroke:#263238;stroke-linecap:round;stroke-linejoin:round;stroke-width:0.9535225629806519px"></path><rect x="184.59" y="61.07" width="2.31" height="1.61" style="fill:#fff;stroke:#263238;stroke-linecap:round;stroke-linejoin:round;stroke-width:0.9535225629806519px"></rect><line x1="224.42" y1="62.08" x2="236.56" y2="62.08" style="fill:none;stroke:#263238;stroke-linecap:round;stroke-linejoin:round;stroke-width:0.9535225629806519px"></line><line x1="224.42" y1="66.34" x2="236.56" y2="66.34" style="fill:none;stroke:#263238;stroke-linecap:round;stroke-linejoin:round;stroke-width:0.9535225629806519px"></line><line x1="224.42" y1="70.61" x2="236.56" y2="70.61" style="fill:none;stroke:#263238;stroke-linecap:round;stroke-linejoin:round;stroke-width:0.9535225629806519px"></line><path d="M237.7,62.19a2,2,0,1,1-2-2A2,2,0,0,1,237.7,62.19Z" style="fill:#FF0038"></path><circle cx="53.56" cy="97.87" r="9.8" style="fill:#FF0038;stroke:#263238;stroke-linecap:round;stroke-linejoin:round;stroke-width:0.9535225629806519px"></circle><ellipse cx="53.56" cy="97.4" rx="4.78" ry="4.81" style="fill:#fff;stroke:#263238;stroke-linecap:round;stroke-linejoin:round;stroke-width:0.9535225629806519px"></ellipse><path d="M53.56,107.67a9.74,9.74,0,0,0,5.74-1.86,9,9,0,0,0-11.48,0A9.74,9.74,0,0,0,53.56,107.67Z" style="fill:#fff;stroke:#263238;stroke-linecap:round;stroke-linejoin:round;stroke-width:0.9535225629806519px"></path><line x1="68.47" y1="94.47" x2="122.58" y2="94.47" style="fill:none;stroke:#263238;stroke-linecap:round;stroke-linejoin:round;stroke-width:1.9070451259613037px"></line><line x1="68.47" y1="103.41" x2="93.19" y2="103.41" style="fill:none;stroke:#263238;stroke-linecap:round;stroke-linejoin:round;stroke-width:0.9535225629806519px"></line><line x1="46.32" y1="120.88" x2="238.54" y2="120.88" style="fill:none;stroke:#263238;stroke-linecap:round;stroke-linejoin:round;stroke-width:0.9535225629806519px"></line><line x1="36.91" y1="358.41" x2="246.9" y2="358.41" style="fill:none;stroke:#263238;stroke-linecap:round;stroke-linejoin:round;stroke-width:0.9535225629806519px"></line><circle cx="48.5" cy="347.43" r="4.96" style="fill:#263238;stroke:#263238;stroke-linecap:round;stroke-linejoin:round;stroke-width:0.9535225629806519px"></circle><circle cx="58.86" cy="347.43" r="4.96" style="fill:#FF0038"></circle><path d="M45.8,346.12h2.09V344h1.18v1.7h2v3.41s-.65,1.44-3.41.53h-1.7Z" style="fill:#fff"></path><path d="M62.06,346.49a1.67,1.67,0,0,0-3.28-.48,1.67,1.67,0,1,0-2.86,1.58L58.78,351l3-3.41A4.11,4.11,0,0,0,62.06,346.49Z" style="fill:#fff"></path><path d="M70.06,346v.18a1.47,1.47,0,0,1-1,1.48,1.38,1.38,0,0,1,1,1.45v.55c0,1.05-.45,1.81-1.55,1.81S67,350.69,67,349.64v-.4h.45v.42c0,.78.3,1.36,1.08,1.36s1.09-.57,1.09-1.39v-.55a1.05,1.05,0,0,0-1.07-1.2H68v-.43h.5a1.1,1.1,0,0,0,1-1.2V346c0-.81-.3-1.39-1.09-1.39s-1.08.58-1.08,1.35v.29H67V346c0-1,.45-1.8,1.54-1.8S70.06,344.94,70.06,346Z" style="fill:#263238"></path><path d="M70.82,346c0-1.05.49-1.8,1.58-1.8S74,344.93,74,346v3.66c0,1.05-.48,1.81-1.57,1.81s-1.58-.76-1.58-1.81Zm.47,3.68c0,.79.32,1.36,1.11,1.36s1.1-.57,1.1-1.36V346c0-.77-.31-1.35-1.1-1.35s-1.11.58-1.11,1.35Z" style="fill:#263238"></path><circle cx="141.97" cy="238.84" r="85.28" transform="translate(-127.3 170.35) rotate(-45)" style="opacity:0.38"></circle><circle cx="138.82" cy="230.18" r="85.28" transform="translate(-122.1 165.58) rotate(-45)" style="fill:#fff"></circle><circle cx="138.82" cy="230.18" r="75.04" transform="translate(-111.24 328.77) rotate(-80.42)" style="fill:none;stroke:#FF0038;stroke-linecap:round;stroke-linejoin:round;stroke-width:2.8605676889419556px"></circle><circle cx="138.82" cy="230.18" r="61.15" transform="translate(-111.23 328.82) rotate(-80.43)" style="fill:none;stroke:#FF0038;stroke-linecap:round;stroke-linejoin:round;stroke-width:0.9535225629806519px"></circle><path d="M137.14,225.81s-21.07-6.48-37.27-13-37.26,6.48-30,36.45,36.45,46.17,63.19,46.17,47-17,46.17-40.5S137.14,225.81,137.14,225.81Z" style="fill:#5e5e5e"></path><path d="M137.14,221.84s-21.07-6.48-37.27-13-37.26,6.48-30,36.45,36.45,46.17,63.19,46.17,47-17,46.17-40.5S137.14,221.84,137.14,221.84Z" style="fill:#6e6e6e"></path><path d="M99.87,208.88a22.49,22.49,0,0,0-6.3-1.53l-25,29.82a52.62,52.62,0,0,0,1.34,8.16c.16.66.35,1.31.53,2L102,209.7Z" style="fill:#5e5e5e"></path><path d="M122.39,217.05,80.48,267a58.35,58.35,0,0,0,5.39,5.92l44.62-53.2C128.2,219,125.43,218.08,122.39,217.05Z" style="fill:#5e5e5e"></path><path d="M160,228.55a76.28,76.28,0,0,0-7.8-3l-49.5,59a70.28,70.28,0,0,0,7.7,3.15Z" style="fill:#5e5e5e"></path><path d="M145.23,290.26l34-40.47a19.35,19.35,0,0,0-3.06-8.7l-42.27,50.4A58.09,58.09,0,0,0,145.23,290.26Z" style="fill:#5e5e5e"></path><path d="M113.74,166.46l6.14,13.32a81.53,81.53,0,0,0,10.49,16.94l11,13.66,5.23-4.95L139.37,191a81.28,81.28,0,0,0-10.87-16.41l-9.32-10.94Z" style="fill:#a6a6a6"></path><path d="M90.17,175.87l6.14,13.32a81.57,81.57,0,0,0,10.5,16.94l11,13.66,5.23-4.95-7.24-14.48A81.24,81.24,0,0,0,104.94,184L95.61,173Z" style="fill:#a6a6a6"></path><path d="M129.83,151.65l3.67,14.19a80.86,80.86,0,0,0,7.31,18.54l8.39,15.41,6-3.95-4.54-15.54a81.48,81.48,0,0,0-7.77-18.08l-7.24-12.42Z" style="fill:#a6a6a6"></path><path d="M178,165l-7.06,12.85a81.3,81.3,0,0,0-7.38,18.51l-4.44,17,7.09,1.26,7.34-14.44a81.25,81.25,0,0,0,6.73-18.49l3.25-14Z" style="fill:#ccc"></path><path d="M128.56,171.15l3.66,14.2a81.35,81.35,0,0,0,7.32,18.54l8.39,15.4,6-3.94-4.54-15.54a81,81,0,0,0-7.78-18.08l-7.23-12.42Z" style="fill:#ccc"></path><path d="M134.51,156l3.66,14.2a81.28,81.28,0,0,0,7.32,18.53l8.39,15.41,6-4-4.54-15.54a81,81,0,0,0-7.78-18.08l-7.23-12.42Z" style="fill:#ccc"></path><path d="M151.09,163.14,151,177.81a81.45,81.45,0,0,0,2.27,19.79l4.13,17.06,6.84-2.25-.37-16.19A81.27,81.27,0,0,0,161,176.74l-3.78-13.86Z" style="fill:#a6a6a6"></path><circle cx="174.19" cy="230.51" r="6.04" style="fill:#FF0038"></circle><path d="M190.06,217.67a6,6,0,1,1-6-6A6,6,0,0,1,190.06,217.67Z" style="fill:#FF0038"></path><circle cx="200.64" cy="238.07" r="6.04" style="fill:#FF0038"></circle><path d="M199.88,250.91a6,6,0,1,1-6-6A6,6,0,0,1,199.88,250.91Z" style="fill:#FF0038"></path><circle cx="195.35" cy="219.93" r="6.04" style="fill:#FF0038"></circle><path d="M193.84,233.53a4.54,4.54,0,1,1-4.53-4.53A4.53,4.53,0,0,1,193.84,233.53Z" style="fill:#FF0038"></path><path d="M184,223.71a4.54,4.54,0,1,1-4.54-4.53A4.53,4.53,0,0,1,184,223.71Z" style="fill:#FF0038"></path><path d="M190.82,246.38a4.54,4.54,0,1,1-4.54-4.54A4.53,4.53,0,0,1,190.82,246.38Z" style="fill:#FF0038"></path><circle cx="184.02" cy="259.98" r="4.53" style="fill:#FF0038"></circle><circle cx="201.39" cy="224.47" r="4.53" style="fill:#FF0038"></circle><path d="M180.24,238.82a4.54,4.54,0,1,1-4.53-4.53A4.53,4.53,0,0,1,180.24,238.82Z" style="fill:#FF0038"></path><path d="M193.37,190.18c-2.65-.66-22.48,21.82-22.48,21.82l4.63,4.63,21.15-20.5Z" style="fill:#a6a6a6"></path><polygon points="201.3 197.46 192.04 207.37 206.59 206.71 201.3 197.46" style="fill:#a6a6a6"></polygon><polygon points="188.74 179.6 186.09 189.52 196.01 183.57 188.74 179.6" style="fill:#a6a6a6"></polygon><path d="M90.85,172.39l10.89,14.13a98.88,98.88,0,0,0,17,17.24L135.52,217l4.86-7.29-12.51-15.21A99,99,0,0,0,110.54,178l-14-10.43Z" style="fill:#ccc"></path><path d="M121.92,161.15l10.89,14.13a99.24,99.24,0,0,0,17,17.24l16.75,13.22,4.86-7.29-12.51-15.21a98.2,98.2,0,0,0-17.33-16.51l-14-10.44Z" style="fill:#ccc"></path><line x1="46.32" y1="114.08" x2="238.54" y2="114.08" style="fill:none;stroke:#263238;stroke-linecap:round;stroke-linejoin:round;stroke-width:0.9535225629806519px"></line><line x1="46.32" y1="127.69" x2="167.39" y2="127.69" style="fill:none;stroke:#263238;stroke-linecap:round;stroke-linejoin:round;stroke-width:0.9535225629806519px"></line><polyline points="297.53 287.07 268 204 247 204" style="fill:none;stroke:#263238;stroke-linecap:round;stroke-linejoin:round"></polyline><line x1="314.82" y1="335.68" x2="297.53" y2="287.07" style="fill:none;stroke:#fff;stroke-linecap:round;stroke-linejoin:round"></line><line x1="317.74" y1="343.9" x2="314.82" y2="335.68" style="fill:none;stroke:#263238;stroke-linecap:round;stroke-linejoin:round"></line></g><g id="freepik--Dish--inject-39"><circle cx="296.08" cy="456.41" r="3.37" style="fill:#FF0038"></circle><path d="M307.53,455.73a3.38,3.38,0,1,1-3.38-3.37A3.38,3.38,0,0,1,307.53,455.73Z" style="fill:#FF0038"></path><circle cx="288.69" cy="455.73" r="3.37" style="fill:#FF0038"></circle><path d="M315.37,455.06a3.37,3.37,0,1,1-3.37-3.37A3.37,3.37,0,0,1,315.37,455.06Z" style="fill:#FF0038"></path><path d="M263.31,457.71s1.48-4.13,15.3-3.65,30.75,5.76,30.75,5.76l-41.28-.52Z" style="fill:#ccc"></path><path d="M306.72,457.71s-1.06-3.71,4.76-4.24,49.76-1.59,55.58-1.06,1.57,6.59,1.57,6.59l-63,.82Z" style="fill:#6e6e6e"></path><polygon points="382.73 457.19 256.36 457.19 264.92 465.04 374.17 465.04 382.73 457.19" style="fill:#fff;stroke:#263238;stroke-linecap:round;stroke-linejoin:round"></polygon><rect x="236.64" y="428.43" width="3.44" height="35.62" style="fill:#fff;stroke:#263238;stroke-linecap:round;stroke-linejoin:round"></rect><path d="M254.83,465H221.89a19.16,19.16,0,0,1,11-3.44h11a19.16,19.16,0,0,1,11,3.44Z" style="fill:#fff;stroke:#263238;stroke-linecap:round;stroke-linejoin:round"></path><path d="M238.36,428.41h0A16.47,16.47,0,0,1,222,410.25l3.61-35.07h25.54l3.61,35.07A16.47,16.47,0,0,1,238.36,428.41Z" style="fill:none;stroke:#263238;stroke-linecap:round;stroke-linejoin:round"></path><path d="M225.36,415.73a16.61,16.61,0,0,1-.35-5.48l3.19-31" style="fill:#fff;stroke:#263238;stroke-linecap:round;stroke-linejoin:round"></path><path d="M229.75,423.59a16.68,16.68,0,0,1-2.94-4" style="fill:#fff;stroke:#263238;stroke-linecap:round;stroke-linejoin:round"></path><rect x="215.95" y="435.82" width="2.75" height="28.44" style="fill:#fff;stroke:#263238;stroke-linecap:round;stroke-linejoin:round"></rect><path d="M230.46,465H204.19a15.31,15.31,0,0,1,8.74-2.74h8.79a15.36,15.36,0,0,1,8.74,2.74Z" style="fill:#fff;stroke:#263238;stroke-linecap:round;stroke-linejoin:round"></path><path d="M217.32,435.82h0a13.13,13.13,0,0,1-13.06-14.47l2.87-28h20.38l2.88,28A13.13,13.13,0,0,1,217.32,435.82Z" style="fill:none;stroke:#263238;stroke-linecap:round;stroke-linejoin:round"></path><path d="M207,425.72a13,13,0,0,1-.28-4.37l2.54-24.72" style="fill:#fff;stroke:#263238;stroke-linecap:round;stroke-linejoin:round"></path><path d="M210.46,432a13.32,13.32,0,0,1-2.35-3.17" style="fill:#fff;stroke:#263238;stroke-linecap:round;stroke-linejoin:round"></path></g><g id="freepik--Plant--inject-39"><path d="M149.39,421.1s-3.1-3.94-6.47-5.62-10.4-3.09-10.4-3.09,6.18-1.41,11-.29,8.15,5.91,8.15,5.91-1.4-2-3.37-7.87-2-18.56-2-18.56a40,40,0,0,1,7,11.81,58.88,58.88,0,0,1,2.81,12.09s-.56-9.84,1.13-15.46,6.46-12.65,6.46-12.65.28,12.37-1.69,19.11-2.81,9.84-2.81,9.84a24.26,24.26,0,0,1,5.91-9.28c4.21-3.93,14.33-7.3,14.33-7.3s-4.78,8.71-7.87,11.52-6.18,5.9-6.18,5.9a16.33,16.33,0,0,1,9.27-2.53c5.91,0,12.93,3.94,12.93,3.94s-20.52-.28-24.45,3.09Z" style="fill:#FF0038;stroke:#263238;stroke-miterlimit:10"></path><line x1="153.2" y1="419.6" x2="149.74" y2="417.2" style="fill:none;stroke:#263238;stroke-linecap:round;stroke-linejoin:round"></line><line x1="156.93" y1="421.46" x2="152.14" y2="408.67" style="fill:none;stroke:#263238;stroke-linecap:round;stroke-linejoin:round"></line><line x1="156.4" y1="423.06" x2="159.6" y2="404.41" style="fill:none;stroke:#263238;stroke-linecap:round;stroke-linejoin:round"></line><line x1="156.93" y1="421.46" x2="165.99" y2="410.27" style="fill:none;stroke:#263238;stroke-linecap:round;stroke-linejoin:round"></line><line x1="155.16" y1="420.31" x2="168.39" y2="416.93" style="fill:none;stroke:#263238;stroke-linecap:round;stroke-linejoin:round"></line><path d="M173,465h-28.1l-1.27-10.19a95.45,95.45,0,0,1-.13-22.41l1.4-12.45H173l1.38,12.19a94.66,94.66,0,0,1-.1,22.38Z" style="fill:#263238"></path><polyline points="174.83 445.89 170.62 420.31 165 464.45 155.16 420.31 149.25 465.01 144.87 419.98" style="fill:#263238;stroke:#fff;stroke-linecap:round;stroke-linejoin:round"></polyline><path d="M173,465h-28.1l-1.27-10.19a95.45,95.45,0,0,1-.13-22.41l1.4-12.45H173l1.38,12.19a94.66,94.66,0,0,1-.1,22.38Z" style="fill:none;stroke:#263238;stroke-miterlimit:10"></path></g><g id="freepik--Table--inject-39"><line x1="23" y1="465.03" x2="482" y2="465.03" style="fill:none;stroke:#263238;stroke-linecap:round;stroke-linejoin:round"></line></g></svg>