<svg width="456" height="456" viewBox="0 0 456 456" fill="none" xmlns="http://www.w3.org/2000/svg">
<path d="M77.7115 68.1172H53.5618V78.3225H77.7115V68.1172Z" fill="#EBEBEB"/>
<path d="M64.2413 55.249H40.0916V65.4543H64.2413V55.249Z" fill="#EBEBEB"/>
<path d="M91.1817 55.249H67.032V65.4543H91.1817V55.249Z" fill="#EBEBEB"/>
<path d="M402.438 55.249H378.289V65.4543H402.438V55.249Z" fill="#EBEBEB"/>
<path d="M402.438 330.627H378.289V340.833H402.438V330.627Z" fill="#EBEBEB"/>
<path d="M415.909 317.759H391.759V327.964H415.909V317.759Z" fill="#EBEBEB"/>
<path d="M64.2413 330.618H40.0916V340.823H64.2413V330.618Z" fill="#EBEBEB"/>
<path d="M106.631 219.4H130.781V209.195H106.631V219.4Z" fill="#EBEBEB"/>
<path d="M120.101 232.268H144.251V222.063H120.101V232.268Z" fill="#EBEBEB"/>
<path d="M77.0185 0H75.9424V99.5448H77.0185V0Z" fill="#C7C7C7"/>
<path d="M107.88 129.814L105.354 135.368H47.5972L45.0801 129.814L69.6676 112.796H83.2929L107.88 129.814Z" fill="#EBEBEB"/>
<path d="M84.9983 96.3984L83.2929 112.796H69.6676L67.9622 96.3984H84.9983Z" fill="#DBDBDB"/>
<path d="M107.88 129.823L105.354 135.368H47.5972L45.0801 129.823H107.88Z" fill="#DBDBDB"/>
<path d="M152.961 0H151.885V81.6331H152.961V0Z" fill="#C7C7C7"/>
<path d="M183.823 111.902L181.297 117.457H123.54L121.022 111.902L145.61 94.8845H159.235L183.823 111.902Z" fill="#EBEBEB"/>
<path d="M160.941 78.4868L159.235 94.8846H145.61L143.905 78.4868H160.941Z" fill="#DBDBDB"/>
<path d="M183.823 111.912L181.297 117.457H123.54L121.022 111.912H183.823Z" fill="#DBDBDB"/>
<path d="M388.548 71.6284H329.278V130.899H388.548V71.6284Z" fill="white"/>
<path d="M326.195 68.5459V133.982H391.631V68.5459H326.195ZM388.512 130.899H329.232V71.6193H388.512V130.899Z" fill="#DBDBDB"/>
<path d="M384.29 119.417V98.9246H338.097V119.417H384.29Z" fill="#EBEBEB"/>
<path d="M370.746 113.097V89.4307H347.08V113.097H370.746Z" fill="#C7C7C7"/>
<path d="M394.157 68.5459H391.631V133.982H394.157V68.5459Z" fill="#C7C7C7"/>
<path d="M388.548 155.788H329.278V215.059H388.548V155.788Z" fill="white"/>
<path d="M354.941 165.273H339.465V209.979H354.941V165.273Z" fill="#C7C7C7"/>
<path d="M326.195 152.705V218.141H391.631V152.705H326.195ZM388.512 215.059H329.232V155.779H388.512V215.059Z" fill="#DBDBDB"/>
<path d="M370.746 173.59H347.08V197.256H370.746V173.59Z" fill="#EBEBEB"/>
<path d="M394.157 152.705H391.631V218.141H394.157V152.705Z" fill="#C7C7C7"/>
<path d="M388.548 239.947H329.278V299.218H388.548V239.947Z" fill="white"/>
<path d="M368.375 248.028H335.853V267.471H368.375V248.028Z" fill="#EBEBEB"/>
<path d="M326.195 236.865V302.301H391.631V236.865H326.195ZM388.512 299.218H329.232V239.938H388.512V299.218Z" fill="#DBDBDB"/>
<path d="M370.746 257.75H347.08V281.416H370.746V257.75Z" fill="#C7C7C7"/>
<path d="M394.157 236.865H391.631V302.301H394.157V236.865Z" fill="#C7C7C7"/>
<path d="M299.784 420.651C360.231 420.651 409.233 415.077 409.233 408.202C409.233 401.327 360.231 395.753 299.784 395.753C239.337 395.753 190.334 401.327 190.334 408.202C190.334 415.077 239.337 420.651 299.784 420.651Z" fill="#EBEBEB"/>
<path d="M27.9709 393.984L77.9759 393.765L127.99 393.683L228 393.528L328.01 393.683L378.024 393.756L428.029 393.984L378.024 394.203L328.01 394.285L228 394.44L127.99 394.285L77.9759 394.203L27.9709 393.984Z" fill="#263238"/>
<path d="M247.261 393.984H168.009C165.51 367.117 163.002 339.583 161.014 317.631C160.95 316.902 160.877 316.172 160.813 315.452C158.569 290.618 157.046 273.454 157.046 273.454H231.83C231.836 273.53 231.836 273.606 231.83 273.682C232.387 277.75 240.002 337.103 247.261 393.984Z" fill="#37474F"/>
<path d="M180.02 393.984H178.752C175.295 364.891 172.486 335.744 169.933 306.56C169.787 304.815 169.635 303.067 169.477 301.316C168.966 295.324 168.455 289.305 167.963 283.304C167.963 283.121 168.227 283.121 168.255 283.304C168.814 288.624 169.355 293.932 169.878 299.227C169.882 299.242 169.882 299.258 169.878 299.273C170.06 301.206 170.261 303.131 170.453 305.073C172.486 325.21 174.502 345.329 176.709 365.439C177.761 374.966 178.864 384.481 180.02 393.984Z" fill="#263238"/>
<path d="M221.032 273.454L211 339.775L210.645 342.018L209.733 347.992L209.66 348.411L209.423 350.016L202.747 393.984H160.175C155.806 369.36 151.337 344.116 147.635 323.167C147.552 322.693 147.47 322.255 147.388 321.781C142.4 293.591 138.834 273.445 138.834 273.445L221.032 273.454Z" fill="#263238"/>
<path d="M231.903 273.39C231.903 273.39 231.903 273.482 231.858 273.682C231.265 277.549 224.826 319.018 214.128 346.232C214.055 346.46 213.973 346.67 213.873 346.907C213.873 346.907 212.368 347.372 209.65 348.448C208.593 348.867 207.334 349.36 205.911 349.998L204.361 350.691C201.224 352.096 197.421 353.938 193.079 356.291C192.66 356.51 192.25 356.738 191.839 356.966C191.839 356.966 191.839 357.139 191.839 357.458C191.62 360.313 190.508 374.96 189.103 393.938H114.447C120.192 334.722 126.503 273.345 126.503 273.345L231.903 273.39Z" fill="#37474F"/>
<path d="M134.857 284.927C132.732 312.707 130.699 340.486 128.473 368.229C127.78 376.814 127.069 385.399 126.339 393.984H125.245C128.4 357.638 131.401 321.292 134.246 284.945C134.265 284.544 134.885 284.544 134.857 284.927Z" fill="#263238"/>
<path d="M217.649 344.955C208.714 348.207 200.078 352.229 191.839 356.975C191.804 356.991 191.772 357.013 191.745 357.041C191.718 357.069 191.697 357.102 191.684 357.138C191.67 357.174 191.663 357.212 191.664 357.251C191.665 357.289 191.673 357.327 191.689 357.363C191.704 357.398 191.726 357.43 191.754 357.457C191.782 357.483 191.815 357.504 191.851 357.518C191.887 357.532 191.926 357.539 191.964 357.538C192.003 357.537 192.041 357.529 192.076 357.513C200.768 353.774 209.632 350.217 218.114 345.995C218.252 345.933 218.359 345.819 218.413 345.678C218.467 345.537 218.463 345.38 218.401 345.242C218.339 345.104 218.225 344.997 218.084 344.943C217.943 344.889 217.786 344.893 217.649 344.955Z" fill="#263238"/>
<path d="M220.412 285.292C220.412 284.991 219.856 284.927 219.865 285.292C219.929 295.616 219.272 304.69 218.406 314.339C217.995 318.817 214.393 343.569 206.632 341.763C205.327 341.462 204.662 340.185 204.461 338.224C204.215 335.871 205.099 332.98 205.492 330.636C206.404 325.447 207.051 320.249 207.489 315.023C208.394 305.277 208.29 295.463 207.179 285.739C207.168 285.68 207.137 285.628 207.091 285.59C207.045 285.552 206.987 285.531 206.928 285.531C206.869 285.531 206.811 285.552 206.765 285.59C206.72 285.628 206.688 285.68 206.677 285.739C206.677 299.264 206.331 312.761 204.306 326.158C203.339 332.597 200.093 342.292 206.832 343.277C213.572 344.262 218.123 328.055 218.962 323.614C221.297 311.211 221.388 297.832 220.412 285.292Z" fill="#263238"/>
<path d="M206.832 342.392C206.143 344.065 205.561 345.78 205.09 347.527C204.588 348.874 204.341 350.303 204.361 351.74C204.372 351.797 204.4 351.85 204.441 351.892C204.482 351.934 204.534 351.962 204.591 351.975C204.648 351.988 204.708 351.983 204.762 351.963C204.817 351.942 204.864 351.906 204.899 351.859C205.71 350.591 206.325 349.207 206.723 347.755C207.316 346.168 207.936 344.59 208.483 342.985C208.496 342.787 208.445 342.591 208.336 342.425C208.227 342.259 208.068 342.133 207.881 342.066C207.695 341.999 207.491 341.994 207.302 342.053C207.113 342.112 206.948 342.231 206.832 342.392Z" fill="#263238"/>
<path d="M171.693 293.39C171.708 292.311 171.597 291.234 171.365 290.18C171.356 290.144 171.336 290.112 171.307 290.09C171.278 290.067 171.242 290.054 171.205 290.054C171.168 290.054 171.132 290.067 171.103 290.09C171.075 290.112 171.054 290.144 171.045 290.18C170.828 291.077 170.709 291.994 170.69 292.916C170.58 293.983 170.434 295.041 170.325 296.108C170.092 298.287 169.712 300.447 169.185 302.574C168.205 306.597 166.157 310.28 163.257 313.236C160.373 316.066 156.966 318.309 153.225 319.838C149.057 321.608 144.661 322.264 140.357 323.532C140.174 323.578 140.229 323.842 140.357 323.851C145.137 323.839 149.871 322.91 154.301 321.115C158.215 319.644 161.779 317.37 164.762 314.439C167.756 311.418 169.863 307.632 170.854 303.495C171.352 301.368 171.633 299.195 171.693 297.011C171.765 295.805 171.765 294.596 171.693 293.39Z" fill="#263238"/>
<path d="M199.846 177.84C205.857 191.301 249.605 253.664 284.763 261.197C290.691 262.465 309.086 268.283 319.729 253.08C334.111 232.551 343.286 193.235 341.27 172.268C339.601 154.94 292.223 167.936 289.432 177.804C287.325 185.273 283.577 209.778 282.045 209.386C272.086 206.814 242.419 181.114 212.852 165.291C199.144 157.904 195.223 167.434 199.846 177.84Z" fill="#AD6359"/>
<path d="M279.136 220.038C279.341 218.505 279.624 216.983 279.984 215.478C280.738 212.579 281.758 209.755 283.03 207.042C283.085 206.924 283.304 206.997 283.258 207.133C282.346 209.933 281.68 212.843 280.932 215.697C280.568 217.12 280.221 218.533 279.902 219.965C279.583 221.397 279.181 222.884 278.935 224.361C278.935 224.443 278.771 224.434 278.78 224.361C278.88 222.893 278.935 221.47 279.136 220.038Z" fill="#263238"/>
<path d="M341.489 175.469C341.489 175.469 340.705 152.76 332.561 137.657C326.934 127.215 312.15 105.865 276.774 104.497C268.383 104.178 256.19 109.668 269.706 115.167C279.309 119.08 286.578 118.66 291.749 121.953C291.749 121.953 277.075 130.781 277.075 139.199C277.075 142.965 276.518 151.118 277.85 159.089C277.85 159.089 280.467 161.378 282.793 161.278C282.793 161.278 283.048 169.158 291.913 177.293L341.489 175.469Z" fill="#AD6359"/>
<path d="M233.472 128.09C229.167 130.991 226.814 137.84 230.28 144.351C233.746 150.863 242.519 150.033 246.696 147.179C250.873 144.324 254.402 137.201 250.836 131.127C247.818 125.856 241.051 123.011 233.472 128.09Z" fill="#FF0038"/>
<path opacity="0.1" d="M233.472 128.09C229.167 130.991 226.814 137.84 230.28 144.351C233.746 150.863 242.519 150.033 246.696 147.179C250.873 144.324 254.402 137.201 250.836 131.127C247.818 125.856 241.051 123.011 233.472 128.09Z" fill="black"/>
<path d="M234.785 129.796C231.274 132.158 229.359 137.758 232.186 143.074C235.013 148.391 242.218 147.717 245.611 145.382C249.003 143.047 251.913 137.238 249.003 132.267C246.486 127.963 240.959 125.646 234.785 129.796Z" fill="#FF0038"/>
<path d="M242.136 132.751C242.446 132.997 243.559 132.067 242.948 131.629C242.337 131.191 241.735 132.441 242.136 132.751Z" fill="white"/>
<path d="M244.735 138.852C244.58 139.208 245.757 140.056 246.03 139.354C246.304 138.651 244.945 138.378 244.735 138.852Z" fill="white"/>
<path d="M247.343 136.481C247.407 136.864 248.857 136.928 248.702 136.189C248.547 135.45 247.261 135.97 247.343 136.481Z" fill="white"/>
<path d="M242.063 130.078C242.446 130.015 242.519 128.574 241.78 128.72C241.042 128.866 241.552 130.161 242.063 130.078Z" fill="white"/>
<path d="M235.123 135.131C235.223 134.757 233.928 134.1 233.764 134.839C233.6 135.578 234.986 135.633 235.123 135.131Z" fill="white"/>
<path d="M238.223 143.184C237.904 142.956 236.837 143.932 237.467 144.342C238.096 144.753 238.643 143.494 238.223 143.184Z" fill="white"/>
<path d="M240.768 142.701C240.385 142.637 239.856 143.987 240.604 144.078C241.352 144.169 241.279 142.783 240.768 142.701Z" fill="white"/>
<path d="M238.096 136.991C238.369 136.718 237.567 135.505 237.065 136.079C236.564 136.654 237.731 137.356 238.096 136.991Z" fill="white"/>
<path d="M230.289 137.995C230.289 137.995 237.357 137.21 238.287 138.642C239.217 140.074 234.192 146.367 233.362 145.81C232.533 145.254 229.523 140.384 230.289 137.995Z" fill="#FF0038"/>
<path opacity="0.1" d="M230.289 137.995C230.289 137.995 237.357 137.21 238.287 138.642C239.217 140.074 234.192 146.367 233.362 145.81C232.533 145.254 229.523 140.384 230.289 137.995Z" fill="black"/>
<path d="M242.373 147.37C242.373 147.37 240.284 140.566 241.525 139.39C242.765 138.213 249.87 141.971 249.487 142.892C249.104 143.813 244.863 147.671 242.373 147.37Z" fill="#FF0038"/>
<path opacity="0.1" d="M242.373 147.37C242.373 147.37 240.284 140.566 241.525 139.39C242.765 138.213 249.87 141.971 249.487 142.892C249.104 143.813 244.863 147.671 242.373 147.37Z" fill="black"/>
<path d="M251.375 134.839C251.375 134.839 244.462 136.517 243.358 135.213C242.255 133.909 246.432 127.005 247.325 127.479C248.219 127.954 251.821 132.368 251.375 134.839Z" fill="#FF0038"/>
<path opacity="0.1" d="M251.375 134.839C251.375 134.839 244.462 136.517 243.358 135.213C242.255 133.909 246.432 127.005 247.325 127.479C248.219 127.954 251.821 132.368 251.375 134.839Z" fill="black"/>
<path d="M239.655 126.567C239.655 126.567 241.342 133.48 240.038 134.584C238.734 135.687 231.83 131.51 232.295 130.616C232.761 129.723 237.193 126.111 239.655 126.567Z" fill="#FF0038"/>
<path opacity="0.1" d="M239.655 126.567C239.655 126.567 241.342 133.48 240.038 134.584C238.734 135.687 231.83 131.51 232.295 130.616C232.761 129.723 237.193 126.111 239.655 126.567Z" fill="black"/>
<path d="M254.183 138.159C250.855 139.427 234.922 142.6 234.922 142.6L235.232 141.843L252.314 136.526C252.437 136.479 252.537 136.387 252.595 136.268C252.652 136.15 252.663 136.014 252.624 135.888C252.604 135.822 252.571 135.76 252.527 135.707C252.483 135.654 252.429 135.61 252.368 135.579C252.306 135.547 252.239 135.529 252.17 135.524C252.101 135.519 252.032 135.528 251.967 135.551L235.998 139.928L236.5 138.715L253.974 133.006C254.047 132.993 254.117 132.964 254.179 132.922C254.241 132.879 254.293 132.824 254.332 132.76C254.371 132.696 254.396 132.625 254.405 132.551C254.414 132.476 254.408 132.401 254.386 132.329C254.363 132.258 254.326 132.192 254.277 132.135C254.227 132.079 254.166 132.034 254.098 132.003C254.03 131.973 253.956 131.957 253.881 131.956C253.806 131.956 253.732 131.972 253.663 132.003L237.311 136.764L237.795 135.605L255.67 129.458C255.737 129.44 255.799 129.408 255.853 129.364C255.908 129.32 255.952 129.266 255.985 129.205C256.017 129.143 256.037 129.076 256.042 129.007C256.048 128.937 256.039 128.868 256.016 128.802C255.998 128.736 255.966 128.675 255.923 128.622C255.88 128.569 255.826 128.525 255.766 128.493C255.705 128.462 255.638 128.443 255.57 128.438C255.502 128.433 255.434 128.442 255.369 128.464L238.588 133.672L238.999 132.687C238.999 132.687 255.816 126.193 257.804 125.81C261.388 125.108 259.227 136.244 254.183 138.159Z" fill="#455A64"/>
<path d="M257.886 128.948C260.221 127.881 269.806 123.658 270.937 123.22C272.25 122.71 318.698 104.643 320.55 104.588C322.401 104.534 321.562 110.89 320.495 112.231C319.428 113.571 275.424 125.692 270.992 127.443C266.349 129.267 257.622 132.915 257.622 132.915L257.886 128.948Z" fill="#455A64"/>
<path d="M330.016 136.481C324.973 132.833 314.138 125.345 303.14 122.281C290.928 118.879 266.486 115.623 264.07 124.661C262.291 131.292 271.521 133.362 271.521 133.362C271.521 133.362 261.133 134.137 260.841 140.475C260.577 146.257 267.8 147.425 267.8 147.425C267.8 147.425 261.58 148.984 262.401 154.602C263.386 161.351 276.254 156.973 283.158 162.956C284.708 164.297 330.016 136.481 330.016 136.481Z" fill="#AD6359"/>
<path d="M301.699 135.788C296.4 133.152 282.802 130.261 271.703 133.152C271.448 133.216 271.366 133.444 271.603 133.435C281.697 133.023 291.803 133.844 301.699 135.879C301.735 135.888 301.762 135.815 301.699 135.788Z" fill="#263238"/>
<path d="M297.914 148.018C293.099 146.194 278.953 143.859 267.818 147.197C267.563 147.27 267.499 147.498 267.736 147.48C277.781 146.554 287.899 146.772 297.896 148.127C297.95 148.145 297.969 148.036 297.914 148.018Z" fill="#263238"/>
<path d="M230.006 223.084L276.336 198.36C276.336 198.36 230.417 170.38 209.231 162.336C187.151 153.918 178.798 160.111 198.679 184.279C218.26 208.045 230.006 223.084 230.006 223.084Z" fill="#FF0038"/>
<path d="M272.533 196.08C271.647 196.315 270.781 196.62 269.943 196.992C268.698 197.53 267.535 198.239 266.486 199.099C267.826 198.899 269.131 198.512 270.362 197.95C271.327 197.535 272.244 197.018 273.098 196.408C272.907 196.317 272.688 196.199 272.533 196.08ZM223.723 202.984C222.477 203.515 221.316 204.225 220.275 205.091C221.612 204.888 222.914 204.498 224.142 203.932C225.39 203.405 226.554 202.698 227.599 201.835C226.257 202.026 224.951 202.413 223.723 202.984ZM245.665 207.143C245.134 205.899 244.428 204.739 243.568 203.695C243.764 205.035 244.151 206.341 244.717 207.571C245.245 208.813 245.952 209.972 246.815 211.009C246.621 209.672 246.234 208.369 245.665 207.143ZM206.112 187.188C205.574 185.949 204.865 184.792 204.005 183.75C204.206 185.087 204.596 186.389 205.163 187.617C205.689 188.863 206.396 190.024 207.261 191.064C207.065 189.724 206.678 188.419 206.112 187.188ZM195.168 168.182C193.911 167.691 192.591 167.384 191.246 167.27C192.332 168.076 193.526 168.724 194.794 169.194C196.052 169.68 197.372 169.987 198.716 170.106C197.63 169.3 196.436 168.652 195.168 168.182ZM227.024 181.862C225.767 181.355 224.443 181.033 223.093 180.904C224.181 181.715 225.378 182.366 226.65 182.838C227.908 183.324 229.228 183.631 230.572 183.75C229.508 182.944 228.335 182.293 227.088 181.816L227.024 181.862ZM215.761 165.072C215.277 166.283 214.97 167.558 214.849 168.857C215.617 167.833 216.231 166.702 216.673 165.501L215.761 165.072ZM247.334 189.003C246.849 190.261 246.542 191.581 246.422 192.924C248.014 190.727 249.004 188.153 249.295 185.455C248.478 186.53 247.818 187.715 247.334 188.976V189.003Z" fill="white"/>
<path d="M228.912 213.408C229.943 212.697 231.092 212.122 232.177 211.502C233.262 210.882 234.42 210.234 235.542 209.596C237.822 208.31 240.102 207.06 242.419 205.82C246.979 203.349 251.603 200.85 256.245 198.46C257.521 197.795 258.798 197.147 260.093 196.518C261.388 195.888 262.829 195.296 264.215 194.639C264.231 194.638 264.246 194.641 264.26 194.649C264.273 194.657 264.283 194.669 264.289 194.683C264.295 194.697 264.297 194.713 264.293 194.728C264.29 194.743 264.282 194.757 264.27 194.767C263.158 195.414 262.081 196.162 260.969 196.81C259.856 197.457 258.661 198.141 257.503 198.779C255.217 200.038 252.916 201.275 250.599 202.491C246.039 204.899 241.479 207.325 236.919 209.632L233.016 211.584C231.675 212.259 230.344 213.016 228.939 213.563C228.912 213.59 228.803 213.49 228.912 213.408Z" fill="#263238"/>
<path d="M198.679 184.224C218.26 208.036 230.006 223.066 230.006 223.066L244.808 215.168L189.176 160.065C185.336 163.011 187.698 170.882 198.679 184.224Z" fill="#263238"/>
<path d="M240.558 313.947L117.766 321.699C117.766 321.699 129.139 203.376 171.866 160.43C177.147 155.131 189.833 155.46 198.314 159.035C201.351 160.302 212.833 174.402 216.718 188.219C220.603 202.035 240.859 313.509 240.558 313.947Z" fill="#FF0038"/>
<path d="M159.819 195.168C158.573 195.701 157.41 196.407 156.362 197.266C157.706 197.064 159.012 196.665 160.238 196.08C161.486 195.552 162.65 194.846 163.695 193.982C162.353 194.192 161.048 194.591 159.819 195.168ZM220.421 205.018C220.369 205.052 220.32 205.092 220.275 205.136C220.327 205.141 220.379 205.141 220.43 205.136C220.43 205.136 220.421 204.999 220.421 204.972V205.018ZM189.696 225.465C188.45 225.996 187.286 226.702 186.239 227.562C187.579 227.363 188.884 226.976 190.115 226.413C191.359 225.883 192.52 225.176 193.563 224.316C192.224 224.507 190.921 224.894 189.696 225.465ZM176.198 277.394C174.955 277.929 173.794 278.638 172.751 279.501C174.092 279.309 175.398 278.921 176.627 278.352C177.869 277.815 179.03 277.106 180.074 276.245C178.734 276.441 177.429 276.828 176.198 277.394ZM145.865 243.65C144.625 244.187 143.465 244.893 142.418 245.748C143.759 245.555 145.065 245.168 146.294 244.599C147.536 244.065 148.696 243.359 149.741 242.501C148.399 242.712 147.093 243.114 145.865 243.696V243.65ZM125.135 315.999C123.891 316.528 122.73 317.235 121.688 318.097C123.029 317.904 124.335 317.517 125.564 316.947C126.807 316.413 127.968 315.703 129.011 314.841C127.667 315.049 126.361 315.455 125.135 316.045V315.999ZM179.089 308.147C177.845 308.677 176.684 309.383 175.642 310.244C176.982 310.048 178.287 309.661 179.518 309.095C180.76 308.557 181.92 307.848 182.965 306.988C181.62 307.194 180.314 307.6 179.089 308.192V308.147ZM239.856 309.369C238.993 309.603 238.151 309.908 237.339 310.281C236.099 310.819 234.939 311.525 233.891 312.378C235.232 312.185 236.538 311.798 237.767 311.229C238.53 310.89 239.267 310.497 239.974 310.053C239.92 309.816 239.856 309.588 239.856 309.369ZM212.122 273.737C210.876 274.271 209.712 274.981 208.665 275.844C209.99 275.641 211.279 275.255 212.496 274.695C213.743 274.162 214.907 273.453 215.952 272.588C214.621 272.784 213.325 273.171 212.104 273.737H212.122ZM171.273 175.369C170.741 174.124 170.031 172.963 169.167 171.921C169.366 173.258 169.753 174.56 170.316 175.788C170.848 177.036 171.558 178.2 172.423 179.245C172.229 177.904 171.842 176.598 171.273 175.369ZM152.915 314.494C152.386 313.247 151.679 312.083 150.817 311.038C151.011 312.378 151.398 313.684 151.966 314.914C152.498 316.16 153.204 317.324 154.064 318.37C153.879 317.028 153.491 315.721 152.915 314.494ZM145.373 280.613C144.835 279.372 144.122 278.215 143.257 277.175C143.458 278.511 143.844 279.813 144.406 281.042C144.94 282.288 145.652 283.449 146.522 284.489C146.32 283.15 145.934 281.846 145.373 280.613ZM190.808 257.339C190.272 256.096 189.566 254.932 188.711 253.883C188.9 255.224 189.288 256.53 189.86 257.759C190.388 259.006 191.094 260.171 191.958 261.215C191.758 259.876 191.371 258.571 190.808 257.339ZM171.511 214.475C170.976 213.229 170.267 212.065 169.404 211.019C169.593 212.36 169.981 213.666 170.553 214.895C171.085 216.142 171.795 217.306 172.66 218.351C172.462 217.026 172.075 215.736 171.511 214.521V214.475ZM200.448 313.117C200.612 314.24 200.918 315.337 201.36 316.382L202.455 316.309C201.925 315.178 201.25 314.12 200.448 313.163V313.117ZM233.645 285.456C233.109 284.211 232.397 283.05 231.529 282.009C231.736 283.344 232.122 284.645 232.678 285.876C233.214 287.118 233.924 288.279 234.785 289.323C234.592 287.986 234.208 286.684 233.645 285.456ZM206.112 187.188C205.574 185.949 204.864 184.792 204.005 183.75C204.206 185.087 204.596 186.389 205.163 187.617C205.689 188.863 206.396 190.024 207.261 191.064C207.064 189.724 206.678 188.419 206.112 187.188ZM195.168 168.182C193.911 167.691 192.59 167.384 191.246 167.27C192.332 168.076 193.526 168.724 194.794 169.194C196.052 169.68 197.372 169.987 198.716 170.106C197.63 169.3 196.436 168.652 195.168 168.182ZM160.785 262.702C159.533 262.19 158.211 261.868 156.864 261.744C157.952 262.553 159.15 263.204 160.421 263.678C161.68 264.16 162.999 264.467 164.342 264.59C163.267 263.792 162.081 263.156 160.822 262.702H160.785ZM131.054 296.701C129.797 296.196 128.473 295.873 127.124 295.743C129.323 297.337 131.901 298.327 134.602 298.616C133.527 297.816 132.345 297.171 131.091 296.701H131.054ZM214.584 299.437C213.327 298.932 212.003 298.609 210.654 298.479C212.853 300.073 215.431 301.063 218.132 301.352C217.056 300.554 215.875 299.909 214.621 299.437H214.584ZM208.738 248.858C207.483 248.363 206.162 248.056 204.817 247.946C205.9 248.755 207.095 249.403 208.364 249.87C209.621 250.368 210.941 250.69 212.286 250.827C211.219 250.002 210.036 249.338 208.775 248.858H208.738ZM197.576 206.322C196.32 205.826 194.999 205.519 193.654 205.41C194.738 206.217 195.933 206.862 197.202 207.325C198.456 207.83 199.777 208.153 201.123 208.283C200.056 207.46 198.873 206.799 197.612 206.322H197.576ZM147.744 221.443C147.25 222.698 146.942 224.02 146.832 225.364C148.411 223.157 149.4 220.583 149.705 217.886C148.879 218.968 148.218 220.167 147.744 221.443ZM192.988 289.578C192.494 290.834 192.187 292.155 192.076 293.5C192.885 292.415 193.536 291.22 194.01 289.952C194.491 288.693 194.798 287.373 194.922 286.031C194.114 287.114 193.468 288.309 193.006 289.578H192.988ZM214.019 225.583C213.525 226.845 213.217 228.172 213.107 229.523C214.699 227.319 215.689 224.739 215.98 222.036C215.166 223.119 214.512 224.314 214.037 225.583H214.019ZM162.372 295.16C161.878 296.419 161.571 297.743 161.46 299.091C162.264 297.997 162.912 296.797 163.385 295.525C163.871 294.267 164.178 292.947 164.297 291.603C163.493 292.691 162.851 293.889 162.391 295.16H162.372ZM128.245 262.994C127.758 264.255 127.451 265.578 127.333 266.924C128.145 265.839 128.793 264.64 129.258 263.367C129.753 262.112 130.061 260.791 130.17 259.446C129.375 260.536 128.734 261.729 128.264 262.994H128.245ZM170.544 241.16C170.045 242.418 169.738 243.743 169.632 245.091C171.222 242.889 172.212 240.312 172.505 237.613C171.681 238.693 171.02 239.888 170.544 241.16ZM183.385 190.252C182.904 191.515 182.597 192.838 182.473 194.183C183.283 193.099 183.934 191.904 184.406 190.635C184.892 189.374 185.199 188.051 185.318 186.705C184.514 187.792 183.867 188.986 183.394 190.252H183.385Z" fill="white"/>
<path d="M173.645 163.841C176.638 170.684 181.385 176.614 187.407 181.032C190.347 183.297 193.787 184.823 197.439 185.483C199.36 185.862 201.35 185.662 203.157 184.908C204.835 183.998 206.251 182.673 207.27 181.059C208.455 179.274 209.359 177.318 209.952 175.259C210.646 172.956 211.173 170.606 211.529 168.228C211.525 168.217 211.524 168.205 211.525 168.193C211.527 168.181 211.531 168.17 211.538 168.161C211.545 168.151 211.553 168.143 211.564 168.138C211.574 168.132 211.586 168.129 211.598 168.129C211.609 168.129 211.621 168.132 211.631 168.138C211.642 168.143 211.651 168.151 211.658 168.161C211.664 168.17 211.669 168.181 211.67 168.193C211.672 168.205 211.67 168.217 211.666 168.228C211.338 170.48 211.192 172.788 210.69 174.976C210.277 176.954 209.603 178.868 208.684 180.667C207.802 182.396 206.558 183.914 205.036 185.118C203.397 186.322 201.395 186.927 199.363 186.832C195.404 186.648 191.578 185.345 188.328 183.075C185.095 180.945 182.215 178.324 179.792 175.305C177.041 171.882 174.884 168.022 173.408 163.886C173.402 163.855 173.408 163.822 173.426 163.796C173.444 163.769 173.472 163.751 173.503 163.745C173.535 163.739 173.567 163.746 173.594 163.764C173.62 163.782 173.639 163.809 173.645 163.841Z" fill="#263238"/>
<path d="M200.458 181.369C193.271 182.573 181.825 170.954 177.603 161.871C177.32 161.251 178.652 154.967 179.919 147.279C180.667 142.6 181.397 137.375 181.743 132.559C181.807 131.565 211.474 141.88 211.474 141.88C211.474 141.88 207.826 151.784 207.334 160.184C207.305 160.848 207.333 161.513 207.416 162.172C207.422 162.281 207.422 162.391 207.416 162.5C207.763 166.285 207.407 180.193 200.458 181.369Z" fill="#AD6359"/>
<path d="M204.288 162.454C205.323 162.545 206.363 162.545 207.398 162.454C207.398 162.327 207.398 162.217 207.398 162.126C207.308 161.467 207.284 160.801 207.325 160.138C207.826 151.738 211.447 141.843 211.447 141.843C211.447 141.843 187.37 133.462 182.555 132.532C183.111 138.186 186.504 160.886 204.288 162.454Z" fill="#263238"/>
<path d="M177.439 99.5995C174.283 110.352 180.311 141.36 188.027 148.136C199.208 158.031 217.339 158.779 225.702 145.4C233.809 132.413 225.237 92.2306 216.636 86.0472C203.978 76.909 182.09 83.6851 177.439 99.5995Z" fill="#AD6359"/>
<path d="M206.896 118.414C206.896 118.332 206.759 118.542 206.778 118.624C207.234 120.703 207.416 123.184 205.665 124.205C205.61 124.205 205.665 124.342 205.665 124.315C207.936 123.558 207.671 120.302 206.896 118.414Z" fill="#263238"/>
<path d="M204.625 116.59C201.224 116.973 202.236 123.749 205.391 123.394C208.547 123.038 207.48 116.271 204.625 116.59Z" fill="#263238"/>
<path d="M219.737 116.207C219.737 116.125 219.92 116.28 219.929 116.362C220.175 118.478 220.841 120.849 222.82 121.26C222.884 121.26 222.893 121.378 222.82 121.378C220.449 121.406 219.637 118.241 219.737 116.207Z" fill="#263238"/>
<path d="M221.288 113.726C224.626 112.969 225.902 119.7 222.811 120.411C219.719 121.123 218.488 114.365 221.288 113.726Z" fill="#263238"/>
<path d="M201.488 113.891C202.337 113.491 203.165 113.05 203.969 112.568C204.908 112.227 205.709 111.586 206.249 110.744C206.367 110.446 206.383 110.118 206.296 109.81C206.208 109.501 206.022 109.231 205.765 109.039C204.607 108.291 203.294 108.637 202.117 109.212C200.916 109.757 199.962 110.734 199.445 111.948C199.349 112.229 199.335 112.531 199.406 112.82C199.476 113.108 199.628 113.37 199.843 113.575C200.059 113.779 200.328 113.918 200.619 113.974C200.911 114.03 201.213 114.001 201.488 113.891Z" fill="#263238"/>
<path d="M223.44 109.923C222.502 109.876 221.568 109.778 220.64 109.631C219.642 109.662 218.662 109.364 217.849 108.783C217.628 108.552 217.489 108.253 217.456 107.934C217.423 107.616 217.497 107.295 217.667 107.023C218.46 105.901 219.81 105.728 221.105 105.819C222.417 105.881 223.66 106.423 224.598 107.342C224.797 107.566 224.927 107.842 224.972 108.137C225.018 108.433 224.977 108.735 224.854 109.008C224.732 109.28 224.533 109.512 224.282 109.674C224.031 109.837 223.739 109.923 223.44 109.923Z" fill="#263238"/>
<path d="M207.936 137.484C208.51 137.894 209.122 138.496 209.888 138.451C210.667 138.318 211.409 138.023 212.067 137.584C212.08 137.574 212.097 137.569 212.113 137.569C212.13 137.569 212.146 137.575 212.159 137.586C212.171 137.597 212.18 137.611 212.183 137.628C212.187 137.644 212.184 137.661 212.177 137.676C211.939 138.135 211.581 138.521 211.141 138.792C210.701 139.064 210.195 139.21 209.678 139.217C209.233 139.169 208.813 138.99 208.47 138.703C208.127 138.415 207.878 138.032 207.754 137.603C207.69 137.493 207.845 137.42 207.936 137.484Z" fill="#263238"/>
<path d="M209.194 130.863C209.851 131.616 210.658 132.224 211.562 132.65C212.466 133.075 213.449 133.308 214.448 133.334C215.32 133.366 216.191 133.273 217.038 133.061C217.199 133.033 217.358 132.991 217.512 132.933C217.667 132.933 217.804 132.851 217.968 132.796C218.077 132.757 218.169 132.683 218.232 132.586C218.294 132.489 218.323 132.374 218.314 132.258C218.306 132.186 218.288 132.116 218.26 132.049V131.866C218.059 130.243 217.53 127.808 217.53 127.808C218.169 128.008 221.379 128.92 221.178 128.081C219.719 121.15 218.096 113.489 215.168 106.859C215.154 106.809 215.12 106.768 215.075 106.743C215.029 106.718 214.976 106.712 214.926 106.727C214.877 106.741 214.835 106.775 214.81 106.82C214.785 106.866 214.78 106.919 214.794 106.969C215.934 113.681 218.251 120.156 219.509 126.877C218.362 126.542 217.175 126.368 215.98 126.358C215.761 126.458 217.083 131.045 217.111 131.784C217.117 131.811 217.117 131.839 217.111 131.866C214.448 132.614 212.277 132.103 209.368 130.671C209.185 130.553 209.049 130.717 209.194 130.863Z" fill="#263238"/>
<path d="M215.962 132.386C215.244 133.675 214.208 134.758 212.952 135.532C212.255 135.929 211.451 136.099 210.654 136.016C208.912 135.833 208.647 134.301 208.757 132.933C208.819 132.209 208.969 131.496 209.204 130.808C211.23 132.042 213.598 132.595 215.962 132.386Z" fill="#263238"/>
<path d="M212.952 135.532C212.255 135.93 211.451 136.099 210.654 136.016C208.912 135.833 208.647 134.301 208.757 132.933C210.581 132.851 212.542 133.8 212.952 135.532Z" fill="#FF97B8"/>
<path d="M212.496 93.3341C211.619 95.0999 210.306 96.6129 208.682 97.73C207.057 98.8471 205.175 99.5313 203.212 99.7181C199.318 100.046 194.958 98.3865 192.706 95.0942C192.642 94.9939 192.487 95.0942 192.551 95.1945C194.958 98.7149 198.935 101.123 203.276 100.667C205.343 100.406 207.306 99.6072 208.969 98.3511C210.631 97.0949 211.935 95.4248 212.751 93.5073C212.806 93.2885 212.569 93.1699 212.496 93.3341Z" fill="#263238"/>
<path d="M195.761 71.8199C190.79 71.6375 186.176 75.0758 184.297 79.5628C183.229 82.2509 182.865 85.1671 183.239 88.0353C183.239 88.0595 183.249 88.0827 183.266 88.0998C183.283 88.1169 183.306 88.1265 183.33 88.1265C183.354 88.1265 183.378 88.1169 183.395 88.0998C183.412 88.0827 183.421 88.0595 183.421 88.0353C183.203 83.4753 184.935 78.3316 188.583 75.3767C190.22 73.9501 192.261 73.0693 194.422 72.8568C196.583 72.6443 198.757 73.1107 200.64 74.1911C202.728 75.4051 204.337 77.2977 205.2 79.5537C205.223 79.5986 205.262 79.6336 205.309 79.6522C205.356 79.6709 205.408 79.6721 205.455 79.6554C205.503 79.6388 205.543 79.6055 205.568 79.5617C205.593 79.5179 205.602 79.4664 205.592 79.4169C204.936 77.2917 203.64 75.4211 201.88 74.0612C200.12 72.7012 197.983 71.9184 195.761 71.8199Z" fill="#263238"/>
<path d="M233.472 74.5194C231.709 71.7404 229.022 69.6733 225.884 68.6826C221.534 67.2963 217.357 68.6826 213.235 70.1874C213.125 70.1874 213.189 70.3972 213.298 70.3607C216.81 69.1112 220.439 68.0442 224.179 68.9106C227.255 69.6213 229.99 71.3742 231.921 73.8719C233.836 76.4557 234.755 79.6434 234.508 82.8499C234.262 86.0564 232.868 89.0664 230.581 91.3275C229.229 92.5935 227.633 93.57 225.891 94.1973C224.149 94.8246 222.297 95.0895 220.448 94.9755C220.303 94.9755 220.248 95.1853 220.403 95.1944C222.929 95.4454 225.474 94.9888 227.755 93.8755C230.037 92.7623 231.963 91.0364 233.319 88.8909C234.675 86.7454 235.408 84.2649 235.435 81.7268C235.462 79.1888 234.782 76.6932 233.472 74.5194Z" fill="#263238"/>
<path d="M176.809 102.363C176.809 102.363 175.241 93.1699 176.955 89.8502C178.67 86.5305 183.713 84.6883 183.713 84.6883C183.713 84.6883 184.981 76.2979 192.186 74.1C198.652 72.1301 204.443 76.8998 204.443 76.8998C204.443 76.8998 211.447 65.7552 223.039 68.4912C234.037 71.0721 236.263 86.4029 227.818 93.4161C221.89 98.3409 211.283 94.62 211.283 94.62C210.435 94.9574 202.756 102.582 193.955 96.216C193.955 96.216 188.921 102.454 184.589 99.864C184.616 99.9005 180.403 103.247 176.809 102.363Z" fill="#263238"/>
<path opacity="0.2" d="M181.844 91.4827C182.582 96.1977 184.58 109.65 183.531 112.942C182.482 116.234 180.22 124.725 178.716 125.637C176.591 115.605 175.843 105.035 177.439 99.5995C178.321 96.6145 179.821 93.8488 181.844 91.4827Z" fill="#263238"/>
<path d="M182.947 124.488C182.947 124.488 175.651 114.693 171.155 117.329C166.659 119.964 172.413 134.338 177.822 136.152C178.498 136.435 179.224 136.577 179.956 136.57C180.689 136.564 181.412 136.409 182.083 136.115C182.754 135.821 183.359 135.393 183.86 134.859C184.361 134.325 184.748 133.694 184.999 133.006L182.947 124.488Z" fill="#AD6359"/>
<path d="M172.897 121.406C172.878 121.406 172.859 121.413 172.845 121.427C172.832 121.441 172.824 121.459 172.824 121.478C172.824 121.498 172.832 121.516 172.845 121.53C172.859 121.544 172.878 121.551 172.897 121.551C176.682 122.947 178.77 126.358 180.257 129.914C179.108 128.565 177.566 127.853 175.752 129.24C175.651 129.313 175.751 129.458 175.861 129.431C176.512 129.202 177.219 129.179 177.883 129.367C178.548 129.555 179.138 129.944 179.573 130.48C180.281 131.386 180.893 132.364 181.397 133.398C181.579 133.727 182.181 133.535 182.044 133.152C182.043 133.122 182.043 133.091 182.044 133.061C181.962 128.291 178.041 121.725 172.897 121.406Z" fill="#263238"/>
<path d="M260.212 231.839C255.351 232.751 256.646 226.322 252.14 225.902C247.635 225.483 246.285 230.462 243.513 229.751C240.74 229.04 242.729 224.069 237.211 224.024C231.693 223.978 230.435 231.575 227.097 233.326C223.759 235.077 216.582 232.104 215.724 238.187C214.867 244.27 227.188 246.295 236.035 250.554C244.881 254.813 254.448 261.288 262.428 260.832C270.982 260.294 274.703 254.722 281.252 253.837C287.8 252.952 302.848 257.002 309.259 251.265C315.67 245.529 326.022 240.905 326.177 234.685C326.332 228.465 318.16 231.201 315.543 230.9C312.925 230.599 313.172 223.732 308.137 222.774C303.103 221.817 301.863 224.936 297.485 225.246C293.108 225.556 291.229 217.038 285.091 218.57C278.953 220.102 280.531 223.568 277.877 225.082C275.223 226.595 270.061 223.157 266.477 224.735C262.893 226.313 264.544 231.064 260.212 231.839Z" fill="#455A64"/>
<path d="M280.048 235.916C285.118 236.162 282.984 229.979 287.526 228.985C292.068 227.991 294.074 232.77 296.819 231.721C299.564 230.672 296.892 225.994 302.51 225.237C308.128 224.48 310.381 231.876 314.011 233.18C317.64 234.484 324.581 230.627 326.241 236.555C327.9 242.483 315.57 246.058 307.089 251.411C298.607 256.764 289.678 264.407 281.47 264.927C272.679 265.483 268.164 260.422 261.406 260.367C254.649 260.312 239.774 266.258 232.505 261.379C225.237 256.5 214.101 253.244 213.143 247.097C212.186 240.95 220.877 242.61 223.504 241.981C226.13 241.352 225.018 234.566 230.025 232.979C235.031 231.393 236.7 234.32 241.206 234.074C245.711 233.828 246.541 225.155 252.998 225.866C259.455 226.577 258.269 230.243 261.206 231.402C264.142 232.56 268.94 228.502 272.788 229.578C276.637 230.654 275.533 235.697 280.048 235.916Z" fill="#37474F"/>
<path d="M224.434 235.615C220.129 238.515 217.776 245.365 221.242 251.876C224.708 258.388 233.481 257.558 237.658 254.703C241.835 251.849 245.365 244.726 241.799 238.652C238.743 233.381 231.976 230.535 224.434 235.615Z" fill="#FF0038"/>
<path opacity="0.1" d="M224.434 235.615C220.129 238.515 217.776 245.365 221.242 251.876C224.708 258.388 233.481 257.558 237.658 254.703C241.835 251.849 245.365 244.726 241.799 238.652C238.743 233.381 231.976 230.535 224.434 235.615Z" fill="black"/>
<path d="M225.711 237.321C222.2 239.683 220.239 245.282 223.112 250.599C225.984 255.916 233.144 255.241 236.536 252.907C239.929 250.572 242.838 244.763 239.929 239.792C237.412 235.488 231.885 233.171 225.711 237.321Z" fill="#FF0038"/>
<path d="M233.061 240.276C233.372 240.522 234.484 239.592 233.873 239.154C233.262 238.716 232.66 239.965 233.061 240.276Z" fill="white"/>
<path d="M235.661 246.377C235.506 246.732 236.682 247.581 236.956 246.878C237.229 246.176 235.871 245.903 235.661 246.377Z" fill="white"/>
<path d="M238.269 244.006C238.333 244.389 239.783 244.453 239.628 243.714C239.473 242.975 238.187 243.504 238.269 244.006Z" fill="white"/>
<path d="M232.988 237.603C233.372 237.54 233.445 236.099 232.706 236.245C231.967 236.39 232.478 237.685 232.988 237.603Z" fill="white"/>
<path d="M226.048 242.656C226.148 242.282 224.853 241.625 224.689 242.364C224.525 243.103 225.911 243.158 226.048 242.656Z" fill="white"/>
<path d="M229.149 250.718C228.83 250.49 227.763 251.466 228.392 251.876C229.021 252.287 229.569 251.019 229.149 250.718Z" fill="white"/>
<path d="M231.694 250.225C231.311 250.161 230.782 251.511 231.529 251.602C232.277 251.694 232.204 250.307 231.694 250.225Z" fill="white"/>
<path d="M229.021 244.516C229.295 244.243 228.492 243.03 227.991 243.604C227.489 244.179 228.656 244.881 229.021 244.516Z" fill="white"/>
<path d="M221.215 245.52C221.215 245.52 228.283 244.735 229.213 246.167C230.143 247.599 225.118 253.892 224.288 253.335C223.458 252.779 220.448 247.909 221.215 245.52Z" fill="#FF0038"/>
<path opacity="0.1" d="M221.215 245.52C221.215 245.52 228.283 244.735 229.213 246.167C230.143 247.599 225.118 253.892 224.288 253.335C223.458 252.779 220.448 247.909 221.215 245.52Z" fill="black"/>
<path d="M233.299 254.895C233.299 254.895 231.21 248.091 232.451 246.915C233.691 245.738 240.795 249.496 240.412 250.417C240.029 251.338 235.789 255.196 233.299 254.895Z" fill="#FF0038"/>
<path opacity="0.1" d="M233.299 254.895C233.299 254.895 231.21 248.091 232.451 246.915C233.691 245.738 240.795 249.496 240.412 250.417C240.029 251.338 235.789 255.196 233.299 254.895Z" fill="black"/>
<path d="M242.3 242.364C242.3 242.364 235.387 244.042 234.284 242.738C233.18 241.434 237.357 234.53 238.251 235.004C239.145 235.478 242.747 239.856 242.3 242.364Z" fill="#FF0038"/>
<path opacity="0.1" d="M242.3 242.364C242.3 242.364 235.387 244.042 234.284 242.738C233.18 241.434 237.357 234.53 238.251 235.004C239.145 235.478 242.747 239.856 242.3 242.364Z" fill="black"/>
<path d="M230.581 234.092C230.581 234.092 232.268 241.005 230.964 242.109C229.66 243.212 222.756 239.035 223.221 238.141C223.686 237.248 228.118 233.636 230.581 234.092Z" fill="#FF0038"/>
<path opacity="0.1" d="M230.581 234.092C230.581 234.092 232.268 241.005 230.964 242.109C229.66 243.212 222.756 239.035 223.221 238.141C223.686 237.248 228.118 233.636 230.581 234.092Z" fill="black"/>
<path d="M261.543 219.555C256.472 218.442 249.897 221.47 247.58 228.474C245.264 235.478 251.922 241.242 256.892 242.318C261.862 243.395 269.423 241.005 271.365 234.229C273.044 228.365 270.426 221.507 261.543 219.555Z" fill="#FF0038"/>
<path opacity="0.1" d="M261.543 219.555C256.472 218.442 249.897 221.47 247.58 228.474C245.264 235.478 251.922 241.242 256.892 242.318C261.862 243.395 269.423 241.005 271.365 234.229C273.044 228.365 270.426 221.507 261.543 219.555Z" fill="black"/>
<path d="M261.197 221.616C257.065 220.704 251.694 223.185 249.797 228.912C247.9 234.639 253.344 239.354 257.403 240.221C261.461 241.087 267.645 239.154 269.259 233.618C270.599 228.848 268.456 223.248 261.197 221.616Z" fill="#FF0038"/>
<path d="M264.133 229.012C264.133 229.404 265.611 229.569 265.51 228.821C265.41 228.073 264.079 228.502 264.133 229.012Z" fill="white"/>
<path d="M261.525 235.104C261.151 235.241 261.352 236.673 262.045 236.39C262.738 236.108 261.999 234.931 261.525 235.104Z" fill="white"/>
<path d="M265.036 235.351C264.799 235.67 265.748 236.755 266.176 236.135C266.605 235.515 265.337 234.94 265.036 235.351Z" fill="white"/>
<path d="M266.012 227.088C266.322 227.334 267.426 226.386 266.806 225.957C266.185 225.528 265.602 226.796 266.012 227.088Z" fill="white"/>
<path d="M257.567 225.583C257.913 225.392 257.485 224.005 256.846 224.398C256.208 224.79 257.12 225.829 257.567 225.583Z" fill="white"/>
<path d="M253.882 233.399C253.828 233.007 252.378 232.906 252.514 233.645C252.651 234.384 253.946 233.901 253.882 233.399Z" fill="white"/>
<path d="M255.989 234.895C255.77 234.566 254.43 235.123 254.876 235.725C255.323 236.327 256.272 235.296 255.989 234.895Z" fill="white"/>
<path d="M258.269 229.022C258.661 229.022 258.981 227.608 258.269 227.626C257.558 227.644 257.758 229.012 258.269 229.022Z" fill="white"/>
<path d="M252.159 224.06C252.159 224.06 257.631 228.62 257.22 230.298C256.81 231.976 248.803 232.669 248.629 231.684C248.456 230.699 249.888 225.164 252.159 224.06Z" fill="#FF0038"/>
<path opacity="0.1" d="M252.159 224.06C252.159 224.06 257.631 228.62 257.22 230.298C256.81 231.976 248.803 232.669 248.629 231.684C248.456 230.699 249.888 225.164 252.159 224.06Z" fill="black"/>
<path d="M253.728 239.281C253.728 239.281 257.202 233.071 258.908 233.153C260.613 233.235 262.802 240.978 261.872 241.361C260.941 241.744 255.223 241.297 253.728 239.281Z" fill="#FF0038"/>
<path opacity="0.1" d="M253.728 239.281C253.728 239.281 257.202 233.071 258.908 233.153C260.613 233.235 262.802 240.978 261.872 241.361C260.941 241.744 255.223 241.297 253.728 239.281Z" fill="black"/>
<path d="M269.04 237.12C269.04 237.12 263.048 233.271 263.23 231.575C263.413 229.879 271.274 228.155 271.566 229.104C271.858 230.052 271.101 235.761 269.04 237.12Z" fill="#FF0038"/>
<path opacity="0.1" d="M269.04 237.12C269.04 237.12 263.048 233.271 263.23 231.575C263.413 229.879 271.274 228.155 271.566 229.104C271.858 230.052 271.101 235.761 269.04 237.12Z" fill="black"/>
<path d="M266.897 222.948C266.897 222.948 263.057 228.939 261.361 228.757C259.664 228.575 257.941 220.722 258.889 220.421C259.838 220.12 265.519 220.85 266.897 222.948Z" fill="#FF0038"/>
<path opacity="0.1" d="M266.897 222.948C266.897 222.948 263.057 228.939 261.361 228.757C259.664 228.575 257.941 220.722 258.889 220.421C259.838 220.12 265.519 220.85 266.897 222.948Z" fill="black"/>
<path d="M275.843 252.952C279.665 256.463 286.869 257.147 292.396 252.259C297.923 247.371 295.059 239.026 291.302 235.615C287.544 232.204 279.802 230.453 274.722 235.332C270.326 239.564 269.14 246.805 275.843 252.952Z" fill="#FF0038"/>
<path opacity="0.1" d="M275.843 252.952C279.665 256.463 286.869 257.147 292.396 252.259C297.923 247.371 295.059 239.026 291.302 235.615C287.544 232.204 279.802 230.453 274.722 235.332C270.326 239.564 269.14 246.805 275.843 252.952Z" fill="black"/>
<path d="M277.193 251.311C280.312 254.174 286.204 254.731 290.718 250.745C295.233 246.76 292.898 239.938 289.806 237.138C286.714 234.338 280.413 232.925 276.263 236.91C272.688 240.367 271.721 246.286 277.193 251.311Z" fill="#FF0038"/>
<path d="M278.361 243.504C278.525 243.148 277.357 242.282 277.075 242.975C276.792 243.668 278.16 243.942 278.361 243.504Z" fill="white"/>
<path d="M283.678 239.518C284.061 239.591 284.59 238.251 283.86 238.141C283.13 238.032 283.167 239.427 283.678 239.518Z" fill="white"/>
<path d="M280.759 237.539C281.124 237.393 280.85 235.971 280.166 236.29C279.482 236.609 280.294 237.74 280.759 237.539Z" fill="white"/>
<path d="M275.77 244.179C275.624 243.814 274.202 244.078 274.512 244.762C274.822 245.446 275.971 244.644 275.77 244.179Z" fill="white"/>
<path d="M282.31 249.742C281.917 249.742 281.589 251.137 282.31 251.128C283.03 251.119 282.82 249.751 282.31 249.742Z" fill="white"/>
<path d="M289.423 244.836C289.277 245.2 290.472 246.012 290.727 245.31C290.983 244.608 289.615 244.361 289.423 244.836Z" fill="white"/>
<path d="M288.347 242.483C288.347 242.875 289.815 243.066 289.724 242.318C289.633 241.571 288.31 241.972 288.347 242.483Z" fill="white"/>
<path d="M283.422 246.413C283.085 246.213 282.1 247.28 282.765 247.635C283.431 247.991 283.869 246.678 283.422 246.413Z" fill="white"/>
<path d="M286.222 253.773C286.222 253.773 283.805 247.079 284.982 245.839C286.158 244.598 293.445 248.018 293.108 248.949C292.77 249.879 288.73 253.956 286.222 253.773Z" fill="#FF0038"/>
<path opacity="0.1" d="M286.222 253.773C286.222 253.773 283.805 247.079 284.982 245.839C286.158 244.598 293.445 248.018 293.108 248.949C292.77 249.879 288.73 253.956 286.222 253.773Z" fill="black"/>
<path d="M292.515 239.856C292.515 239.856 286.386 243.504 284.954 242.546C283.523 241.589 285.511 233.828 286.496 233.992C287.481 234.156 292.223 237.33 292.515 239.856Z" fill="#FF0038"/>
<path opacity="0.1" d="M292.515 239.856C292.515 239.856 286.386 243.504 284.954 242.546C283.523 241.589 285.511 233.828 286.496 233.992C287.481 234.156 292.223 237.33 292.515 239.856Z" fill="black"/>
<path d="M278.224 234.01C278.224 234.01 281.471 240.339 280.467 241.716C279.464 243.094 271.794 240.631 272.013 239.664C272.232 238.698 275.725 234.147 278.224 234.01Z" fill="#FF0038"/>
<path opacity="0.1" d="M278.224 234.01C278.224 234.01 281.471 240.339 280.467 241.716C279.464 243.094 271.794 240.631 272.013 239.664C272.232 238.698 275.725 234.147 278.224 234.01Z" fill="black"/>
<path d="M272.916 247.325C272.916 247.325 279.254 244.079 280.632 245.091C282.009 246.103 279.546 253.764 278.57 253.545C277.595 253.326 273.053 249.833 272.916 247.325Z" fill="#FF0038"/>
<path opacity="0.1" d="M272.916 247.325C272.916 247.325 279.254 244.079 280.632 245.091C282.009 246.103 279.546 253.764 278.57 253.545C277.595 253.326 273.053 249.833 272.916 247.325Z" fill="black"/>
<path d="M303.696 241.489C307.517 245 314.722 245.675 320.249 240.786C325.775 235.898 322.912 227.562 319.154 224.142C315.397 220.722 307.654 218.98 302.574 223.86C298.224 228.091 296.993 235.296 303.696 241.489Z" fill="#FF0038"/>
<path opacity="0.1" d="M303.696 241.489C307.517 245 314.722 245.675 320.249 240.786C325.775 235.898 322.912 227.562 319.154 224.142C315.397 220.722 307.654 218.98 302.574 223.86C298.224 228.091 296.993 235.296 303.696 241.489Z" fill="black"/>
<path d="M305.046 239.856C308.165 242.72 314.056 243.276 318.571 239.281C323.085 235.287 320.75 228.474 317.659 225.683C314.567 222.893 308.265 221.461 304.116 225.455C300.54 228.912 299.574 234.813 305.046 239.856Z" fill="#FF0038"/>
<path d="M306.213 232.004C306.377 231.648 305.21 230.791 304.927 231.484C304.644 232.177 305.994 232.469 306.213 232.004Z" fill="white"/>
<path d="M311.53 228.055C311.913 228.119 312.442 226.778 311.712 226.678C310.983 226.577 310.992 228 311.53 228.055Z" fill="white"/>
<path d="M308.612 226.076C308.977 225.921 308.703 224.498 308.019 224.817C307.335 225.136 308.147 226.276 308.612 226.076Z" fill="white"/>
<path d="M303.623 232.706C303.477 232.341 302.054 232.615 302.364 233.29C302.674 233.964 303.824 233.18 303.623 232.706Z" fill="white"/>
<path d="M310.162 238.269C309.77 238.269 309.442 239.674 310.162 239.655C310.883 239.637 310.673 238.287 310.162 238.269Z" fill="white"/>
<path d="M317.275 233.372C317.13 233.736 318.324 234.548 318.58 233.837C318.835 233.125 317.467 232.897 317.275 233.372Z" fill="white"/>
<path d="M316.199 231.01C316.199 231.402 317.668 231.593 317.577 230.855C317.485 230.116 316.163 230.499 316.199 231.01Z" fill="white"/>
<path d="M311.275 234.949C310.937 234.749 309.952 235.807 310.618 236.171C311.284 236.536 311.722 235.214 311.275 234.949Z" fill="white"/>
<path d="M314.074 242.3C314.074 242.3 311.658 235.606 312.834 234.375C314.011 233.144 321.297 236.545 320.96 237.485C320.623 238.424 316.582 242.483 314.074 242.3Z" fill="#FF0038"/>
<path opacity="0.1" d="M314.074 242.3C314.074 242.3 311.658 235.606 312.834 234.375C314.011 233.144 321.297 236.545 320.96 237.485C320.623 238.424 316.582 242.483 314.074 242.3Z" fill="black"/>
<path d="M320.367 228.356C320.367 228.356 314.239 232.004 312.807 231.092C311.375 230.18 313.363 222.373 314.348 222.528C315.333 222.683 320.112 225.866 320.367 228.356Z" fill="#FF0038"/>
<path opacity="0.1" d="M320.367 228.356C320.367 228.356 314.239 232.004 312.807 231.092C311.375 230.18 313.363 222.373 314.348 222.528C315.333 222.683 320.112 225.866 320.367 228.356Z" fill="black"/>
<path d="M306.076 222.528C306.076 222.528 309.323 228.857 308.32 230.234C307.316 231.612 299.647 229.158 299.865 228.182C300.084 227.207 303.577 222.674 306.076 222.528Z" fill="#FF0038"/>
<path opacity="0.1" d="M306.076 222.528C306.076 222.528 309.323 228.857 308.32 230.234C307.316 231.612 299.647 229.158 299.865 228.182C300.084 227.207 303.577 222.674 306.076 222.528Z" fill="black"/>
<path d="M300.768 235.861C300.768 235.861 307.107 232.615 308.484 233.618C309.861 234.621 307.399 242.291 306.423 242.072C305.447 241.853 300.905 238.369 300.768 235.861Z" fill="#FF0038"/>
<path opacity="0.1" d="M300.768 235.861C300.768 235.861 307.107 232.615 308.484 233.618C309.861 234.621 307.399 242.291 306.423 242.072C305.447 241.853 300.905 238.369 300.768 235.861Z" fill="black"/>
<path d="M210.681 247.544L237.384 283.924L307.116 279.528L329.04 240.084L210.681 247.544Z" fill="#EBEBEB"/>
<path d="M154.976 186.796C138.296 231.183 124.652 279.537 134.976 289.186C143.312 296.965 212.542 308.338 227.69 307.307C234.129 306.888 240.668 257.147 229.514 255.406C226.34 254.913 176.618 253.773 176.125 252.67C174.493 249.259 175.797 225.145 176.408 196.408C177.174 159.472 162.035 168.009 154.976 186.796Z" fill="#AD6359"/>
<path d="M224.261 306.888C242.291 309.022 264.608 312.779 283.368 304.544C285.473 303.677 287.226 302.13 288.347 300.148C296.82 296.61 297.695 291.539 297.695 291.539C304.572 285.821 304.754 280.522 304.754 280.522C304.754 280.522 314.649 276.254 313.062 269.842C311.302 262.638 297.741 270.043 287.8 269.56C265 268.438 229.56 260.285 223.048 259.309L224.261 306.888Z" fill="#AD6359"/>
<path d="M263.121 285.137C269.833 285.328 276.427 285.702 283.13 284.982C290.49 284.197 297.44 282.246 304.562 280.367C304.585 280.36 304.608 280.357 304.631 280.359C304.654 280.361 304.677 280.367 304.698 280.378C304.718 280.388 304.737 280.403 304.752 280.421C304.767 280.438 304.779 280.459 304.786 280.481C304.793 280.503 304.796 280.527 304.794 280.55C304.792 280.573 304.786 280.596 304.775 280.616C304.765 280.637 304.75 280.656 304.732 280.671C304.715 280.686 304.694 280.697 304.672 280.704C292.305 286.085 276.4 287.663 263.103 285.438C262.784 285.392 262.784 285.128 263.121 285.137Z" fill="#263238"/>
<path d="M260.449 298.799C266.988 298.625 278.488 298.251 297.649 291.302C297.713 291.302 297.768 291.375 297.704 291.411C285.848 297.577 273.673 299.866 260.458 299.109C260.048 299.081 260.011 298.808 260.449 298.799Z" fill="#263238"/>
<path d="M259.145 306.158C270.262 305.447 277.175 303.587 288.329 300.084C288.384 300.084 288.438 300.167 288.374 300.194C276.126 305.511 271.046 306.049 259.117 306.578C258.707 306.56 258.707 306.186 259.145 306.158Z" fill="#263238"/>
<path d="M260.422 266.468C257.512 265.146 258.178 263.613 263.705 262.264C269.232 260.914 292.214 260.248 291.302 252.232C290.39 244.215 258.324 247.143 248.949 248.584C239.111 250.252 229.792 254.169 221.716 260.029C228.082 261.033 247.955 264.37 260.422 266.468Z" fill="#AD6359"/>
<path d="M177.521 242.045L129.011 252.843C129.011 252.843 145.601 201.725 156.371 181.789C167.68 161.014 178.059 160.275 178.752 191.52C179.363 222.382 177.521 242.045 177.521 242.045Z" fill="#FF0038"/>
<path d="M135.259 243.276C136.444 242.875 137.703 242.638 138.907 242.364L142.664 241.452C145.208 240.841 147.762 240.276 150.316 239.719C155.414 238.616 160.521 237.485 165.637 236.463C167.051 236.19 168.455 235.907 169.869 235.67C171.283 235.433 172.869 235.26 174.356 235.004C174.447 235.004 174.456 235.123 174.356 235.141C173.097 235.451 171.866 235.871 170.608 236.19C169.349 236.509 168.036 236.828 166.741 237.102C164.187 237.673 161.634 238.23 159.08 238.771C154.046 239.82 149.048 240.896 143.959 241.835L139.718 242.619C138.25 242.893 136.754 243.258 135.259 243.395C135.213 243.413 135.176 243.303 135.259 243.276Z" fill="#263238"/>
<path d="M140.065 223.504C141.232 220.212 142.299 216.901 143.421 213.6C144.689 209.851 145.838 206.066 147.069 202.3C147.069 202.209 146.932 202.154 146.896 202.245C145.373 206.258 140.183 219.628 139.363 221.899C136.964 228.511 134.565 235.123 132.222 241.753C130.908 245.474 129.486 249.769 128.191 253.49C128.099 253.764 131.994 252.706 134.036 252.095C134.146 252.095 134.219 251.685 134.082 251.721C132.149 252.159 129.522 252.442 129.23 252.515C131.72 246.222 134.109 239.883 136.453 233.527C137.675 230.195 138.879 226.854 140.065 223.504Z" fill="#263238"/>
<path d="M170.544 241.16C170.213 242.006 169.953 242.879 169.769 243.769L170.562 243.595C170.92 242.93 171.239 242.245 171.52 241.543C172.002 240.284 172.309 238.965 172.432 237.622C171.634 238.703 170.998 239.895 170.544 241.16ZM147.744 221.443C147.25 222.698 146.942 224.02 146.832 225.364C148.411 223.157 149.4 220.583 149.705 217.886C148.879 218.968 148.218 220.167 147.744 221.443ZM171.456 214.521C170.921 213.274 170.212 212.11 169.349 211.064C169.539 212.406 169.926 213.712 170.498 214.94C171.031 216.188 171.74 217.352 172.605 218.397C172.429 217.059 172.06 215.753 171.511 214.521H171.456ZM171.219 175.369C170.686 174.124 169.977 172.963 169.112 171.921C169.311 173.258 169.698 174.559 170.261 175.788C170.794 177.035 171.503 178.2 172.368 179.245C172.191 177.907 171.823 176.601 171.273 175.369H171.219ZM145.81 243.696C144.57 244.233 143.41 244.938 142.363 245.793C143.704 245.601 145.01 245.214 146.239 244.644C147.481 244.111 148.642 243.404 149.686 242.546C148.365 242.748 147.079 243.135 145.865 243.696H145.81ZM159.819 195.168C158.573 195.701 157.41 196.407 156.362 197.266C157.706 197.064 159.012 196.665 160.238 196.08C161.486 195.552 162.65 194.846 163.695 193.982C162.353 194.192 161.048 194.591 159.819 195.168Z" fill="white"/>
<path opacity="0.8" d="M238.944 403.815C238.944 407.637 205.802 407.591 205.811 403.761L205.975 365.073C206.69 365.019 207.39 364.843 208.045 364.554C208.149 364.508 208.236 364.433 208.298 364.338C208.36 364.244 208.392 364.133 208.392 364.02C208.392 363.907 208.36 363.797 208.298 363.702C208.236 363.607 208.149 363.532 208.045 363.487C207.385 363.177 206.685 362.959 205.966 362.839V360.76C206.683 360.708 207.386 360.535 208.045 360.249C208.147 360.197 208.232 360.118 208.292 360.021C208.351 359.923 208.382 359.811 208.382 359.697C208.382 359.583 208.351 359.471 208.292 359.374C208.232 359.277 208.147 359.198 208.045 359.145C207.376 358.868 206.679 358.663 205.966 358.534V356.455C206.683 356.396 207.385 356.22 208.045 355.935C208.147 355.885 208.233 355.807 208.293 355.71C208.353 355.613 208.385 355.502 208.385 355.388C208.385 355.274 208.353 355.163 208.293 355.066C208.233 354.97 208.147 354.891 208.045 354.841C207.379 354.553 206.681 354.345 205.966 354.221V352.114C206.679 352.048 207.379 351.882 208.045 351.621C208.147 351.571 208.233 351.493 208.293 351.396C208.353 351.3 208.385 351.188 208.385 351.074C208.385 350.961 208.353 350.849 208.293 350.752C208.233 350.656 208.147 350.578 208.045 350.527C207.374 350.249 206.678 350.036 205.966 349.889V341.143C205.966 338.069 216.18 328.302 217.758 326.806L217.968 326.614V324.234H227.188V326.614C227.188 326.614 239.154 337.85 239.154 341.206V349.943C238.442 350.096 237.746 350.312 237.074 350.591C236.975 350.629 236.892 350.7 236.837 350.792C236.761 350.906 236.726 351.044 236.737 351.181C236.749 351.319 236.807 351.448 236.901 351.549C236.944 351.611 237.004 351.658 237.074 351.685C237.738 351.946 238.435 352.112 239.145 352.178V354.285C238.457 354.405 237.784 354.601 237.138 354.868H237.065C236.963 354.919 236.878 354.997 236.818 355.094C236.758 355.19 236.726 355.302 236.726 355.415C236.726 355.529 236.758 355.641 236.818 355.737C236.878 355.834 236.963 355.912 237.065 355.963L237.229 356.026C237.843 356.281 238.492 356.438 239.154 356.492V358.571C238.578 358.672 238.013 358.828 237.467 359.036L237.074 359.182C236.973 359.233 236.887 359.311 236.827 359.407C236.767 359.504 236.735 359.615 236.735 359.729C236.735 359.843 236.767 359.954 236.827 360.051C236.887 360.148 236.973 360.226 237.074 360.276C237.228 360.355 237.39 360.416 237.558 360.459C238.072 360.644 238.609 360.757 239.154 360.796V362.876C238.676 362.958 238.207 363.08 237.749 363.24C237.503 363.332 237.275 363.432 237.084 363.523C236.98 363.569 236.893 363.644 236.831 363.738C236.769 363.833 236.737 363.944 236.737 364.057C236.737 364.17 236.769 364.28 236.831 364.375C236.893 364.47 236.98 364.544 237.084 364.59C237.337 364.702 237.6 364.793 237.868 364.864C238.29 364.991 238.724 365.074 239.163 365.11V385.174L238.944 403.815Z" fill="white"/>
<path opacity="0.8" d="M236.254 345.466L236.208 381.69L236.098 400.842C236.098 403.979 208.811 403.952 208.821 400.787L208.985 345.794C211.292 346.615 216.673 348.284 221.333 347.791C225.994 347.299 231.94 345.648 236.208 345.292C236.233 345.347 236.248 345.406 236.254 345.466Z" fill="#EBEBEB"/>
<path d="M229.124 318.398L216.082 318.38C215.825 318.379 215.617 318.587 215.617 318.844L215.61 323.769C215.609 324.026 215.817 324.234 216.074 324.235L229.116 324.253C229.373 324.253 229.581 324.045 229.581 323.788L229.588 318.864C229.589 318.607 229.381 318.398 229.124 318.398Z" fill="#FF0038"/>
<path d="M46.2019 372.561C47.3364 372.554 48.4456 372.224 49.3999 371.611C50.3543 370.997 51.1145 370.125 51.5918 369.096C51.5918 369.096 54.0177 371.458 57.9758 369.825C61.9339 368.193 66.0744 358.252 63.1377 349.98C60.2011 341.708 52.4856 339.757 46.2748 346.223C37.8753 343.149 31.774 348.302 32.8137 357.021C33.8534 365.739 41.952 372.853 46.2019 372.561Z" fill="#FF0038"/>
<path d="M39.1522 336.792C41.3253 337.434 43.2815 338.657 44.8088 340.331C46.336 342.004 47.3761 344.064 47.8162 346.286C48.2175 348.329 45.0802 349.077 44.6425 347.016C43.9585 343.569 40.9945 342.036 37.6383 341.033C35.6319 340.431 37.1367 336.191 39.1522 336.792Z" fill="#37474F"/>
<path d="M45.6912 348.384C45.6912 348.384 46.3022 338.872 55.4587 337.632C55.0644 340.184 53.9283 342.565 52.1916 344.476C50.4549 346.388 48.1943 347.747 45.6912 348.384Z" fill="#37474F"/>
<path d="M76.909 370.947C77.6213 371.834 78.5723 372.499 79.6499 372.865C80.7275 373.23 81.887 373.28 82.992 373.008C82.992 373.008 82.6363 376.382 86.3664 378.48C90.0965 380.578 100.475 377.687 105.163 370.272C109.85 362.858 106.613 355.58 97.6934 354.686C94.9574 346.186 87.096 344.572 80.8853 350.774C74.6746 356.975 74.0362 367.755 76.909 370.947Z" fill="#FF0038"/>
<path d="M100.676 343.295C101.515 345.399 101.762 347.693 101.391 349.927C101.019 352.162 100.044 354.252 98.5691 355.972C97.2102 357.559 94.6657 355.525 96.0337 353.938C98.3228 351.266 97.7027 348.001 96.4076 344.727C95.6324 342.784 99.9006 341.343 100.676 343.295Z" fill="#37474F"/>
<path d="M95.6323 355.571C95.6323 355.571 103.494 350.171 110.124 356.61C107.872 357.876 105.298 358.453 102.722 358.268C100.145 358.083 97.6801 357.145 95.6323 355.571Z" fill="#37474F"/>
<path d="M70.8899 376.82C69.7711 376.633 68.7287 376.131 67.8842 375.374C67.0397 374.616 66.4279 373.635 66.1201 372.543C66.1201 372.543 63.3841 374.495 59.6814 372.26C55.9787 370.026 53.5254 359.547 57.7297 351.841C61.934 344.134 69.8593 343.432 74.9756 350.792C83.7582 349.095 88.9657 355.151 86.558 363.56C84.1503 371.968 75.0759 377.778 70.8899 376.82Z" fill="#FF0038"/>
<path opacity="0.1" d="M70.8899 376.82C69.7711 376.633 68.7287 376.131 67.8842 375.374C67.0397 374.616 66.4279 373.635 66.1201 372.543C66.1201 372.543 63.3841 374.495 59.6814 372.26C55.9787 370.026 53.5254 359.547 57.7297 351.841C61.934 344.134 69.8593 343.432 74.9756 350.792C83.7582 349.095 88.9657 355.151 86.558 363.56C84.1503 371.968 75.0759 377.778 70.8899 376.82Z" fill="black"/>
<path d="M83.5119 342.611C81.2691 342.906 79.1494 343.807 77.3815 345.218C75.6135 346.63 74.2645 348.497 73.4799 350.618C72.7594 352.57 75.769 353.81 76.4986 351.84C77.7116 348.548 80.8762 347.499 84.3601 347.043C86.4121 346.77 85.5913 342.337 83.5119 342.611Z" fill="#37474F"/>
<path d="M75.2309 352.944C75.2309 352.944 76.1429 343.459 67.2874 340.787C67.2715 343.37 68.0163 345.9 69.4289 348.061C70.8416 350.223 72.8594 351.921 75.2309 352.944Z" fill="#37474F"/>
<path d="M119.126 375.188C118.037 375.511 116.879 375.519 115.786 375.211C114.693 374.903 113.71 374.29 112.951 373.446C112.951 373.446 111.328 376.419 107.051 376.018C102.773 375.616 95.9243 367.317 96.3164 358.544C96.7086 349.77 103.512 345.657 111.346 350.016C118.478 344.627 125.82 347.773 127.37 356.4C128.92 365.028 123.302 374.212 119.126 375.188Z" fill="#FF0038"/>
<path opacity="0.1" d="M119.126 375.188C118.037 375.511 116.879 375.519 115.786 375.211C114.693 374.903 113.71 374.29 112.951 373.446C112.951 373.446 111.328 376.419 107.051 376.018C102.773 375.616 95.9243 367.317 96.3164 358.544C96.7086 349.77 103.512 345.657 111.346 350.016C118.478 344.627 125.82 347.773 127.37 356.4C128.92 365.028 123.302 374.212 119.126 375.188Z" fill="black"/>
<path d="M115.405 338.917C113.522 340.171 112.017 341.915 111.053 343.961C110.089 346.007 109.701 348.277 109.933 350.527C110.142 352.607 113.389 352.351 113.179 350.299C112.824 346.806 115.204 344.481 118.131 342.529C119.846 341.371 117.156 337.759 115.405 338.917Z" fill="#37474F"/>
<path d="M112.532 351.868C112.532 351.868 109.166 342.949 100.046 344.444C101.17 346.77 102.953 348.713 105.173 350.033C107.393 351.353 109.952 351.991 112.532 351.868Z" fill="#37474F"/>
<path d="M127.206 362.73C127.206 362.73 118.861 393.984 107.944 393.984H50.16C39.216 393.984 30.9077 362.73 30.9077 362.73H127.206Z" fill="#EBEBEB"/>
<path d="M369.077 364.937C377.75 353.993 377.468 351.777 377.349 350.81C377.349 350.555 372.835 325.064 364.745 325.064H348.831C348.886 322 348.977 319.647 349.05 319.118C349.369 316.783 350.491 314.558 352.278 314.558C354.066 314.558 354.102 312.36 352.278 312.36H319.054C317.276 312.36 317.276 314.558 319.054 314.558C320.832 314.558 327.472 317.121 328.466 318.416C329.46 319.711 329.743 338.927 329.496 343.286C329.25 347.645 309.168 358.863 306.304 372.005C303.441 385.147 310.426 403.87 339.237 403.87C368.047 403.87 375.023 385.147 372.178 372.005C371.571 369.484 370.521 367.091 369.077 364.937ZM349.013 343.313C348.776 341.562 348.73 336.09 348.776 330.783H364.453C366.998 332.762 371.002 346.879 371.667 351.166C371.129 352.57 368.393 356.51 365.539 360.222C358.708 352.406 349.369 346.214 348.977 343.313H349.013Z" fill="white"/>
<path d="M369.077 364.937C370.682 362.885 372.26 360.805 373.728 358.653C374.458 357.577 375.169 356.483 375.799 355.352C376.478 354.246 376.977 353.039 377.276 351.777C377.333 351.132 377.272 350.483 377.094 349.861L376.692 347.955C376.419 346.679 376.115 345.411 375.78 344.152C375.133 341.635 374.385 339.136 373.519 336.683C372.671 334.228 371.581 331.863 370.263 329.624C369.612 328.514 368.804 327.504 367.864 326.624C367.415 326.181 366.882 325.831 366.296 325.595C365.711 325.358 365.085 325.24 364.453 325.247H348.822H348.612V325.037L348.749 321.261L348.813 319.382C348.854 318.744 348.974 318.113 349.168 317.504C349.35 316.88 349.624 316.287 349.98 315.744C350.338 315.166 350.872 314.719 351.503 314.467C351.664 314.407 351.833 314.37 352.005 314.357H352.47C352.731 314.335 352.976 314.222 353.163 314.038C353.242 313.949 353.299 313.842 353.331 313.727C353.363 313.612 353.369 313.492 353.348 313.374C353.327 313.257 353.28 313.146 353.21 313.049C353.14 312.952 353.049 312.873 352.944 312.816C352.384 312.643 351.794 312.588 351.211 312.652H345.584H338.069H323.039H319.291C318.689 312.652 318.179 312.798 318.042 313.263C318.014 313.376 318.01 313.495 318.033 313.61C318.055 313.724 318.102 313.833 318.171 313.928C318.239 314.022 318.328 314.101 318.43 314.158C318.532 314.215 318.646 314.248 318.762 314.257C318.99 314.257 319.382 314.257 319.674 314.348C319.966 314.439 320.303 314.476 320.586 314.549C321.206 314.713 321.808 314.895 322.41 315.105C323.605 315.513 324.777 315.985 325.921 316.519C326.5 316.792 327.063 317.096 327.609 317.431C327.893 317.605 328.165 317.8 328.42 318.014C328.569 318.144 328.69 318.302 328.776 318.48C328.846 318.641 328.898 318.809 328.931 318.981C329.166 320.229 329.321 321.49 329.396 322.757C329.579 325.265 329.67 327.764 329.743 330.272C329.816 332.78 329.861 335.288 329.87 337.796C329.87 339.045 329.87 340.304 329.87 341.562C329.87 342.192 329.87 342.793 329.797 343.468C329.655 344.145 329.341 344.773 328.885 345.292C327.242 347.213 325.439 348.992 323.495 350.609C321.617 352.269 319.738 353.92 317.923 355.634C314.321 359.073 310.828 362.73 308.457 367.098C307.252 369.262 306.486 371.642 306.204 374.102C305.871 376.562 305.899 379.057 306.286 381.508L306.414 382.42C306.478 382.721 306.56 383.022 306.633 383.332L307.079 385.156L307.736 386.898L308.064 387.764L308.484 388.594L309.341 390.245C309.67 390.765 310.043 391.266 310.39 391.777C311.093 392.798 311.883 393.756 312.752 394.641C313.174 395.093 313.628 395.513 314.111 395.899L315.525 397.103C316.573 397.769 317.577 398.508 318.653 399.119C319.729 399.73 320.86 400.268 322.018 400.715C323.176 401.161 324.353 401.627 325.547 401.937C330.373 403.218 335.359 403.795 340.349 403.651L344.088 403.505C345.329 403.387 346.569 403.195 347.8 403.04C349.031 402.871 350.249 402.624 351.448 402.301C352.05 402.156 352.67 402.037 353.272 401.855L355.032 401.234C359.777 399.656 364.004 396.819 367.262 393.026C367.664 392.552 367.983 392.014 368.348 391.513C368.729 391.019 369.068 390.495 369.36 389.944L370.272 388.293C370.549 387.735 370.79 387.159 370.992 386.569C371.901 384.235 372.442 381.774 372.598 379.273C372.764 376.777 372.586 374.27 372.069 371.822C371.474 369.373 370.462 367.043 369.077 364.937ZM369.077 364.937C370.481 367.02 371.521 369.327 372.151 371.759C372.692 374.212 372.895 376.728 372.753 379.237C372.613 381.75 372.087 384.226 371.193 386.579C371 387.176 370.762 387.759 370.482 388.321L369.57 389.999C369.278 390.553 368.942 391.084 368.567 391.585C368.202 392.096 367.883 392.643 367.472 393.127C364.225 397.013 359.968 399.926 355.169 401.545L353.391 402.174C352.789 402.356 352.169 402.475 351.567 402.63C350.367 402.953 349.149 403.206 347.919 403.387C346.669 403.542 345.429 403.742 344.18 403.861L340.413 404.025C335.378 404.181 330.348 403.613 325.475 402.338C324.271 401.982 323.094 401.517 321.899 401.107C320.705 400.696 319.619 400.031 318.479 399.493C317.339 398.954 316.355 398.134 315.287 397.459L313.847 396.228C313.35 395.838 312.883 395.411 312.451 394.951C311.564 394.046 310.753 393.07 310.025 392.032C309.67 391.513 309.296 391.002 308.958 390.473L308.046 388.786L307.608 387.947L307.271 387.035L306.605 385.265L306.131 383.441C306.058 383.131 305.967 382.83 305.903 382.529L305.775 381.617C305.37 379.116 305.333 376.569 305.666 374.057C305.955 371.525 306.735 369.075 307.964 366.843C309.177 364.626 310.629 362.549 312.296 360.65C313.935 358.734 315.677 356.907 317.513 355.178C319.337 353.446 321.216 351.786 323.085 350.117C324.987 348.524 326.754 346.777 328.366 344.891C328.732 344.455 328.991 343.94 329.123 343.386C329.177 342.812 329.177 342.155 329.195 341.562C329.195 340.313 329.195 339.063 329.195 337.814C329.195 335.315 329.196 332.807 329.095 330.308C328.995 327.809 328.94 325.31 328.767 322.821C328.699 321.597 328.555 320.379 328.338 319.173C328.338 319.018 328.256 318.89 328.22 318.771C328.162 318.672 328.088 318.582 328.001 318.507C327.776 318.317 327.539 318.143 327.289 317.987C326.762 317.671 326.217 317.385 325.657 317.13C324.533 316.602 323.383 316.133 322.21 315.725C321.054 315.277 319.842 314.994 318.607 314.886C318.416 314.859 318.232 314.795 318.066 314.696C317.9 314.597 317.756 314.467 317.64 314.312C317.52 314.151 317.438 313.964 317.404 313.766C317.369 313.568 317.381 313.364 317.44 313.172C317.5 312.984 317.599 312.811 317.731 312.665C317.863 312.519 318.025 312.402 318.206 312.324C318.533 312.194 318.885 312.138 319.236 312.159H322.994H338.024H345.539H352.105C352.459 312.14 352.812 312.215 353.126 312.378C353.297 312.47 353.445 312.6 353.557 312.758C353.669 312.917 353.744 313.099 353.774 313.29C353.804 313.48 353.79 313.674 353.733 313.858C353.676 314.041 353.578 314.209 353.446 314.348C353.188 314.613 352.846 314.777 352.479 314.813C352.17 314.809 351.862 314.852 351.567 314.941C351.024 315.153 350.566 315.538 350.263 316.035C349.931 316.542 349.675 317.095 349.506 317.677C349.193 318.867 349.052 320.095 349.086 321.325L348.949 325.055L348.74 324.845H364.371C365.735 324.838 367.046 325.369 368.019 326.323C368.983 327.228 369.81 328.27 370.473 329.414C371.783 331.68 372.862 334.073 373.692 336.555C374.549 339.027 375.27 341.535 375.899 344.07C376.209 345.329 376.501 346.606 376.811 347.882L377.194 349.798C377.369 350.436 377.422 351.101 377.349 351.758C377.045 353.034 376.534 354.251 375.835 355.361C375.188 356.501 374.467 357.586 373.728 358.653C372.288 360.833 370.701 362.894 369.077 364.937Z" fill="#263238"/>
<path d="M348.977 343.313C348.849 342.274 348.822 341.234 348.776 340.185L348.703 337.048V330.782V330.719H348.767L364.444 330.527H364.545L364.599 330.582L365.119 331.102C365.265 331.293 365.393 331.494 365.53 331.685C365.787 332.071 366.025 332.47 366.241 332.88C366.66 333.701 367.025 334.54 367.381 335.379C368.065 337.075 368.667 338.799 369.205 340.532C369.743 342.265 370.29 344.006 370.746 345.767C371.202 347.527 371.658 349.305 371.932 351.12V351.202V351.275C371.54 352.123 371.08 352.938 370.555 353.71C370.053 354.476 369.524 355.224 368.986 355.972C367.916 357.449 366.815 358.909 365.685 360.349L365.53 360.541L365.365 360.359C362.761 357.38 359.974 354.566 357.021 351.932C355.552 350.6 354.066 349.287 352.625 347.928C351.904 347.244 351.193 346.56 350.536 345.812C349.814 345.124 349.277 344.265 348.977 343.313ZM348.977 343.313C349.28 344.258 349.817 345.111 350.536 345.794C351.202 346.533 351.922 347.217 352.643 347.892C354.102 349.232 355.598 350.536 357.075 351.841C360.098 354.402 362.963 357.143 365.657 360.049H365.338C366.432 358.589 367.496 357.112 368.53 355.616C369.041 354.859 369.551 354.102 370.035 353.345C370.535 352.604 370.974 351.823 371.348 351.011V351.166C371.038 349.405 370.591 347.645 370.117 345.894C369.643 344.143 369.141 342.41 368.603 340.678C368.065 338.945 367.472 337.239 366.779 335.561C366.451 334.722 366.086 333.901 365.694 333.09C365.336 332.298 364.849 331.57 364.253 330.937L364.408 330.992L348.73 330.801L348.794 330.737C348.758 332.828 348.758 334.917 348.794 337.002V340.14C348.84 341.225 348.858 342.274 348.977 343.313Z" fill="#263238"/>
<path d="M338.525 399.456C314.303 399.456 308.429 383.715 310.828 372.68C313.226 361.645 333.628 349.278 333.199 345.694C333.126 344.991 333.072 330.938 333.044 329.469H345.11C345.11 331.001 345.201 345.064 345.283 345.694C345.767 349.269 363.806 361.617 366.259 372.68C368.713 383.742 362.748 399.456 338.525 399.456Z" fill="#FF0038"/>
<path d="M313.482 78.7877C312.969 83.8478 311.057 88.665 307.959 92.6984C304.86 96.7319 300.699 99.8219 295.942 101.622C291.185 103.421 286.021 103.859 281.029 102.887C276.037 101.914 271.414 99.5695 267.681 96.1157L254.001 98.1312L260.859 86.2752C259.142 82.1019 258.496 77.5653 258.98 73.0785C259.816 65.9125 263.442 59.3644 269.073 54.8543C274.704 50.3442 281.886 48.2355 289.061 48.9856C296.237 49.7356 302.827 53.284 307.404 58.8611C311.98 64.4383 314.174 71.5947 313.509 78.7785L313.482 78.7877Z" fill="white"/>
<path d="M313.482 78.7877C312.952 83.8406 311.04 88.6498 307.955 92.6866C307.182 93.6893 306.351 94.6455 305.465 95.5503C304.553 96.4235 303.587 97.2398 302.574 97.9944C300.552 99.514 298.326 100.742 295.962 101.642C293.596 102.569 291.113 103.161 288.584 103.403C287.316 103.513 286.043 103.538 284.772 103.476C283.499 103.446 282.23 103.315 280.978 103.083C275.923 102.15 271.228 99.8293 267.417 96.3802L267.745 96.4805L254.065 98.5872L253.071 98.7423L253.572 97.8303L260.394 85.9743V86.4394C258.78 82.5147 258.088 78.2721 258.371 74.0379C258.654 69.8038 259.905 65.691 262.027 62.016C264.164 58.3686 267.098 55.251 270.609 52.896C274.12 50.5735 278.112 49.075 282.284 48.5128C286.457 47.9506 290.702 48.3391 294.704 49.6493C298.668 50.9976 302.282 53.2128 305.283 56.1336C308.274 59.0433 310.567 62.5939 311.987 66.518C313.407 70.4422 313.918 74.6374 313.482 78.7877ZM313.482 78.7877C313.917 74.6604 313.4 70.4883 311.97 66.5923C310.54 62.6962 308.235 59.1802 305.233 56.3146C302.231 53.4491 298.612 51.3104 294.653 50.0632C290.695 48.8159 286.503 48.4934 282.401 49.1203C278.334 49.7337 274.46 51.2651 271.074 53.5983C267.72 55.9487 264.919 59.0018 262.866 62.545C260.843 66.0992 259.652 70.0653 259.382 74.1456C259.128 78.2194 259.788 82.2984 261.315 86.0837L261.416 86.3299L261.279 86.5488L254.384 98.4048L253.892 97.6843L267.626 95.76H267.818L267.955 95.8877C271.616 99.3171 276.16 101.657 281.078 102.646C282.305 102.893 283.549 103.046 284.799 103.102C288.564 103.361 292.34 102.808 295.871 101.478C298.239 100.626 300.467 99.4275 302.483 97.9215C304.536 96.4548 306.354 94.6833 307.873 92.6683C310.991 88.6498 312.933 83.8445 313.482 78.7877Z" fill="#263238"/>
<path d="M297.841 81.1042C294.769 85.2386 290.839 88.6606 286.322 91.1362C281.809 88.6588 277.883 85.237 274.813 81.1042C270.764 75.7417 270.964 67.3421 276.755 65.5273C283.139 63.5209 286.322 73.1698 286.322 73.1698C286.322 73.1698 289.524 63.457 295.898 65.5273C301.671 67.406 301.872 75.7417 297.841 81.1042Z" fill="#FF0038"/>
</svg>
