<svg xmlns="http://www.w3.org/2000/svg" xmlns:xlink="http://www.w3.org/1999/xlink" viewBox="0 0 500 500"><defs><clipPath id="freepik--clip-path--inject-13"><path d="M331.07,256c-3-3.83-46.82-6.24-87-7.71-35.18-1.29-78-.93-82,1.75-3.11,2.1-2.63,11.85-.6,15s7.82,5.49,11.24,6c12.67,1.92,56.37,10.29,69.69,10.89s30.8.65,45.78,0c12.18-.52,37.47-1.59,42.87-10.46C333.08,268.17,332.19,257.42,331.07,256Z" style="fill:#FF0038;stroke:#263238;stroke-linecap:round;stroke-linejoin:round"></path></clipPath><clipPath id="freepik--clip-path-2--inject-13"><path d="M165.34,232.8s-3.41,5.95-2.26,7.7.44,8.64,0,10.35,5,5.15,9.2,4.15,13.87,3.33,17.2,2.79,8.32,1,11.1,1.62,7.77,4.17,11.1,3.38,7.21,0,9.43,0,3.61,0,8,.12,9.43,2.71,11.37,1.65,10,.31,12.21,0,13,.57,15.68.25,6.24.31,7.35-.25,4.16.45,5.83.32a35.42,35.42,0,0,1,8.29-.32c3.36.44,2.81,1.23,8.36.33s7.81-.33,7.81-.33,4.44-1,7.05-1.77,3.65,1.79,5.91,0,3.09-2.72,4.2-3.38,2.41-2.53,3-2.4a1.87,1.87,0,0,0,1.73-1.51c0-.75,1.63-3.07,1.11-6.75s.15-15-2.84-18.75S197.53,215.84,165.34,232.8Z" style="fill:#263238;stroke:#263238;stroke-miterlimit:10"></path></clipPath><clipPath id="freepik--clip-path-3--inject-13"><path d="M168.06,224.62s-6.68,8.19-4.56,11.73,3.08,5.25,3.15,9.53,1.8,5.71,3.16,0,1.7-7.67,4.16-8.08,6.29,1.25,6,2.92,3.92,2.34,4.75-1.47,7.22-3,11.93-4.08,6.11-5.91,9.44-5.87,13.59,3.09,19.42,1.71,13,3.18,15.26,5.34,3.87,6.59,6.93,7.42,2.23,16.92,5.83,17.76,2.5-10.82,6.39-11.93,2.77,4.16,5.55,1.94,1.66-6.62,5-8.44,3.05-3.5,5.55-5.3S278.82,233,283,233s10.54-.56,12.48-1.39,4.72-.83,9.16,2.5,4.76,3.46,8.48,2.29,2.62-5.07,7.06-1.74,4,7.49,6,7.22,2.56,8,2.84,9.71,2.39,1.11,2.17-3.61a101.41,101.41,0,0,1,0-15.82c.58-8.48-10.79-23.76-45.75-25.47S186.32,206.31,168.06,224.62Z" style="fill:#999;stroke:#263238;stroke-linecap:round;stroke-linejoin:round"></path></clipPath><clipPath id="freepik--clip-path-4--inject-13"><path d="M336.69,214.06l-.16.46-3,9A47.34,47.34,0,0,1,307.68,218c-10.12-5.51-6.4-10.8-4.2-12.92a9.38,9.38,0,0,1,1.15-1Z" style="fill:#757575;stroke:#263238;stroke-linecap:round;stroke-linejoin:round"></path></clipPath><clipPath id="freepik--clip-path-5--inject-13"><path d="M229.15,211.86s-23.3,13-38.57,16a65.19,65.19,0,0,1-27.88-.64l-2.34-7-.3-.88,5.27-7.49c19.24-5.07,40.59-3.52,53.08-1.83C225,210.92,229.15,211.86,229.15,211.86Z" style="fill:#757575;stroke:#263238;stroke-linecap:round;stroke-linejoin:round"></path></clipPath><clipPath id="freepik--clip-path-6--inject-13"><path d="M315.73,208.41V222s-7.22,8.69-40.23,7.06-54.39-15-54.39-15a72.6,72.6,0,0,1,10.15-3.15C263.89,203.08,315.73,208.41,315.73,208.41Z" style="fill:#757575;stroke:#263238;stroke-linecap:round;stroke-linejoin:round"></path></clipPath><clipPath id="freepik--clip-path-7--inject-13"><path d="M157.06,194.91c4.15-10.65,6.44-21.06,15.89-26.61,24.53-14.45,60.31-21.78,89.28-19.7s46.85,10.39,65.43,30c1.11,1.17,6.5,14.77,7.56,16,1.78,2,3.61,4.18,4.27,6.8s-.26,5.85-2.74,6.93c-1.64.71-3.53.34-5.29,0-40.17-8.22-81.72-5.77-122.49-1.47-13.27,1.4-26.59,3-39.9,2.21-5.5-.33-12.28-2.22-13.2-7.65a11.13,11.13,0,0,1,.88-5.64C156.85,195.46,157,195.19,157.06,194.91Z" style="fill:#FF0038;stroke:#263238;stroke-linecap:round;stroke-linejoin:round"></path></clipPath><clipPath id="freepik--clip-path-8--inject-13"><path d="M164.78,206s-6.67,1.67-6,4.72-3,3.3-3,3.3.28,1.14,4.51,1.42,5.78-2.78,7.78,0,3.38,9,9.49,5.59,6.1-10.08,11.37-7,10,8.07,14.71,5.57,9.16-9.16,12.76-7.49,9.71,7.21,14.15,5.27,6.39-8,12.21-6.94,8.05,4.95,12.77,3.59,6.1-4.42,10-4.84,5.82,7.36,11.93,7.91,6.59-7.49,12.45-7.91,9.19,8.19,12.8,8.19,6.42-6.66,10.42-6.11,4.84,6.66,8.44,6.94,6.66-4.52,10.55-4.2,3.88,5.51,10,0c0,0-6-.79-8.56-8S195.86,191.88,164.78,206Z" style="fill:#FF0038;stroke:#263238;stroke-linecap:round;stroke-linejoin:round"></path></clipPath></defs><g id="freepik--background-simple--inject-13"><path d="M225.63,51.24c124-10.68,124.24,57,180.13,120s67.84,91.63,46.78,164.3-92.07,129.64-179.9,97.36S134.5,431.65,79.11,403s-76-84.05-35.42-149.31S72.68,64.41,225.63,51.24Z" style="fill:#FF0038"></path><path d="M225.63,51.24c124-10.68,124.24,57,180.13,120s67.84,91.63,46.78,164.3-92.07,129.64-179.9,97.36S134.5,431.65,79.11,403s-76-84.05-35.42-149.31S72.68,64.41,225.63,51.24Z" style="fill:#fff;opacity:0.7000000000000001"></path></g><g id="freepik--french-fries--inject-13"><path d="M200.38,369.65c-17.63-.5-35.9.15-47.08,3.82l-4.58,17s24.77,11.39,99.48,2.89" style="fill:none;stroke:#263238;stroke-linecap:round;stroke-linejoin:round"></path><path d="M254.55,390.49l-5-17S230.79,371,209,370" style="fill:none;stroke:#263238;stroke-linecap:round;stroke-linejoin:round"></path><line x1="250.98" y1="392.67" x2="249.2" y2="429.71" style="fill:none;stroke:#263238;stroke-linecap:round;stroke-linejoin:round"></line><line x1="152.19" y1="391.7" x2="153.43" y2="421.45" style="fill:none;stroke:#263238;stroke-linecap:round;stroke-linejoin:round"></line><path d="M249.57,373.47s-14.45,7.68-47.93,6.75-43.45-5.3-43.45-5.3" style="fill:none;stroke:#263238;stroke-linecap:round;stroke-linejoin:round"></path><path d="M201.64,373.47l7-34,24.6-12.66s3.12-.21,3.12,4.51l-23,11.26-6.85,30.93s12,1.77-2.57,2.08-12.37-2.29-5.84-2.08" style="fill:none;stroke:#263238;stroke-linecap:round;stroke-linejoin:round"></path><path d="M264.93,434,262,414.18l9.3-2.33s14.5,11.45,40.33,12.92,33.8-9.77,33.8-9.77l12.81,3.27A178,178,0,0,1,354,445.74" style="fill:none;stroke:#263238;stroke-linecap:round;stroke-linejoin:round"></path><polyline points="265.88 413.21 263.11 388.67 272.51 383.96 273.99 389.13 280.46 389.41 281.26 370.48 288.44 369.31 289.8 377.88 294.9 378.1 294.53 386.91 299.97 387.14 300.87 366.09 309.45 364.47 310.17 371.7 315.95 371.95 316.42 360.76 324.14 363.56 323.91 369.1 330.57 372.57 330.26 379.94 336.66 381.61 335 388.63 342.14 388.93 345.41 376.16 354.11 379.93 348.3 396.38 353.27 399.66 355 392.57 362.2 397.99 355.94 417.04" style="fill:none;stroke:#263238;stroke-linecap:round;stroke-linejoin:round"></polyline><line x1="323.91" y1="369.09" x2="319.95" y2="402.48" style="fill:none;stroke:#263238;stroke-linecap:round;stroke-linejoin:round"></line><polyline points="326.6 417.94 330.57 388.66 335 388.63" style="fill:none;stroke:#263238;stroke-linecap:round;stroke-linejoin:round"></polyline><line x1="310.17" y1="371.7" x2="308.46" y2="421.32" style="fill:none;stroke:#263238;stroke-linecap:round;stroke-linejoin:round"></line><polyline points="291.52 421.32 292.88 394.26 283.96 394.26 283.96 415.93" style="fill:none;stroke:#263238;stroke-linecap:round;stroke-linejoin:round"></polyline><polyline points="271.32 411.85 269.98 394.26 278.42 394.26 277.4 411.85" style="fill:none;stroke:#263238;stroke-linecap:round;stroke-linejoin:round"></polyline><polyline points="289.8 377.88 286.54 377.88 286.9 390.76" style="fill:none;stroke:#263238;stroke-linecap:round;stroke-linejoin:round"></polyline><polyline points="304.29 419.53 305.31 387.14 296.97 387.14 295.73 422.45" style="fill:none;stroke:#263238;stroke-linecap:round;stroke-linejoin:round"></polyline><polyline points="334.24 419.36 338.84 392.98 347.77 394.26 342.28 415.62" style="fill:none;stroke:#263238;stroke-linecap:round;stroke-linejoin:round"></polyline><line x1="350.07" y1="413.86" x2="353.27" y2="399.66" style="fill:none;stroke:#263238;stroke-linecap:round;stroke-linejoin:round"></line><polyline points="315.95 371.95 319.95 371.82 317.12 403.05" style="fill:none;stroke:#263238;stroke-linecap:round;stroke-linejoin:round"></polyline><polyline points="312.65 421.32 314.33 403.05 323.91 403.05 321.25 419.53" style="fill:none;stroke:#263238;stroke-linecap:round;stroke-linejoin:round"></polyline><polyline points="377.17 431.7 377.17 397.81 398.13 394.26" style="fill:none;stroke:#263238;stroke-linecap:round;stroke-linejoin:round"></polyline><polyline points="134.92 421.32 134.92 390.49 99.85 384.32" style="fill:none;stroke:#263238;stroke-linecap:round;stroke-linejoin:round"></polyline><polyline points="134.92 390.49 109.05 397.8 105.58 419.36" style="fill:none;stroke:#263238;stroke-linecap:round;stroke-linejoin:round"></polyline><line x1="109.05" y1="397.8" x2="93.52" y2="394.26" style="fill:none;stroke:#263238;stroke-linecap:round;stroke-linejoin:round"></line></g><g id="freepik--Speech-bubble--inject-13"><path d="M214,75.8c-3-18-22.86-29.72-44.39-26.15S133,70.72,136,88.73c2.75,16.6,19.84,27.83,39.35,26.7,5.88,8.34,18.08,12.45,18.08,12.45-3.58-3.89-5.85-10.14-7.08-14.39C204.62,108,216.66,92.1,214,75.8Z" style="fill:#fff;stroke:#263238;stroke-linecap:round;stroke-linejoin:round"></path><path d="M182.45,71.17c-5.54-1.15-8.5,2.47-9.77,4.74-1.68-2-5.26-5-10.49-2.85-5.68,2.35-7,10-1.46,16.33,4,4.56,10,7.37,13.07,8.58.36.15.7.27,1,.36.24-.14.55-.32.88-.53C178.43,96,183.82,92.17,186.9,87,191.2,79.69,188.46,72.43,182.45,71.17Z" style="fill:#FF0038"></path></g><g id="freepik--Right-hand--inject-13"><path d="M288.6,260.66c1,5.56,7.3,10,14.08,13.33,7,3.46,14.47,5.82,17.07,7.21,9,4.82,16.82,7.52,20,15.8s25.07,22.83,30.25,30.05c2.46,3.42,9.45,5.64,16.63,8.45a70.26,70.26,0,0,1,10.11,4.68h0c3.93,2.34,7.1,5.22,8.51,9.07,2.41,6.63,10,37.4,16.93,66.17,6.74,28.05,37.28,26.2,45.1,9.81a150.68,150.68,0,0,0,14.15-52.62s-9.38-23.92-10.56-33.14-4.23-7.08-12.42-18.8-9.68-22.89-16.27-36.43-17.53-56.66-19.2-65.83c-1.3-7.22-6-7.44-12.1-10l-.17-.06a30.49,30.49,0,0,1-5-2.67c-2.45-1.65-6-5.2-9.85-9.48h0c-9.43-10.46-20.83-25.24-23.37-27.55-3.58-3.26-8.28-4.21-23.38-5.86-12-1.32-18.43-2.51-21.17-1.28-11.34,5.12-21,4.91-24.21,7a2.07,2.07,0,0,0-1,2.35c1.45,7.39,23.9,9,23.9,9s23.75,35,29.84,44.13c4.51,6.7,17.65,13.58,17.65,13.58,1.07,4.66,1.9,9.25,1.9,9.25-1,6.15-10.85,21.22-16.1,20.82s-29.66-7.77-41.08-9.18S287.94,256.82,288.6,260.66Zm77.81-55.81c-5.5-5-14.13-17.31-20.19-23.7l0,0a123.5,123.5,0,0,0,15.13,5.73s12.86,20.38,22.48,30.11c-1.95-1.26-4-2.57-6-3.88l-.06,0A100.32,100.32,0,0,1,366.41,204.85Z" style="fill:#fff"></path><path d="M288.6,260.66c1,5.56,7.3,10,14.08,13.33,8.69-.33,17.7-1,21.22-1.92,7.49-1.92-1.15,4.39-1.15,4.39s5.37,1.39,10.09-3.67c0,0,13.28-.63,14.92,1.21s-1.32,5.56.74,11.19c0,0,8.63-9.36,11.88-10.17s.44,4.32,8.17,11.79,13.14,15.41,22.21,14.37a51.09,51.09,0,0,1,.59-10.2c.88-5,2.26-10.33,1.69-18.06s-3.68-10.15-3.68-10.15-5.85-10.19-7.94-15.6-1-6.53-1-6.53S365.36,230.46,360.53,224s-12.87-17.53-12.89-22.33-20.57-31.06-22.93-30.85l-.32,3.93a12.12,12.12,0,0,1-7.1-1.76,8.51,8.51,0,0,0-6.07-1.48l9.72-2.6c-1.68.4-8,1.84-10.08,1-1.86-.76-4.75-2.18-7.09-1.47a2.07,2.07,0,0,0-1,2.35c1.45,7.39,23.9,9,23.9,9s23.75,35,29.84,44.13c4.51,6.7,17.65,13.58,17.65,13.58,1.07,4.66,1.9,9.25,1.9,9.25-1,6.15-10.85,21.22-16.1,20.82s-29.66-7.77-41.08-9.18S287.94,256.82,288.6,260.66Z" style="fill:#FF0038;opacity:0.4"></path><path d="M338.78,174.77a89.55,89.55,0,0,0,7.44,6.38l0,0a123.5,123.5,0,0,0,15.13,5.73s12.86,20.38,22.48,30.11c-1.95-1.26-4-2.57-6-3.88a39.71,39.71,0,0,0,4.23,3c4.09,2.37,8.1,5.09,8.1,5.09s3.29-1.56-4.27-9.47-20.15-25.64-21.46-29.16S344.07,176.52,338.78,174.77Z" style="fill:#FF0038;opacity:0.4"></path><path d="M335,164.74s28.66,5.2,33.42,7,21.81,28.89,42.34,36.59a30.49,30.49,0,0,1-5-2.67c-2.45-1.65-6-5.2-9.85-9.48h0a48.42,48.42,0,0,1-10.82-9.5c-6.44-7.51-14.53-16.4-17.59-17.93s-22.79-4.26-27-4.69S335,164.74,335,164.74Z" style="fill:#FF0038;opacity:0.4"></path><path d="M402.33,223s12.56-.23,14.1,5.56,8.71,25.16,8.71,25.16-10.07-16.24-13.37-21.23S402.33,223,402.33,223Z" style="fill:#FF0038;opacity:0.4"></path><path d="M396.75,340.19c3.93,2.34,7.1,5.22,8.51,9.07,2.41,6.63,10,37.4,16.93,66.17-3.33-24.11-11.84-58.68-9-56.84C417,361,423,388.21,424,382.48s.32-30.14,4.7-31.9,6.76-9.74,6.76-9.74c-7.22,2.91-16.94,1.5-16.94,1.5C412,344.78,403.37,342.69,396.75,340.19Z" style="fill:#FF0038;opacity:0.4"></path><path d="M366.42,204.85c-5.51-5-14.14-17.31-20.21-23.7a122.45,122.45,0,0,0,15.17,5.75s12.86,20.38,22.48,30.11C377.56,212.92,370.36,208.42,366.42,204.85Z" style="fill:none;stroke:#263238;stroke-linecap:round;stroke-linejoin:round"></path><path d="M481.44,372.62c-5.14-12.13-10.07-25.57-12-38.77-4.58-5.39-9.24-9.78-12.82-15.08-16.44-32.43-25.9-64.3-33.05-100a21.86,21.86,0,0,1-2.59-5.23c-6.57-5.54-15.54-6.27-21-12.73-10.08-11.86-19.16-23.63-30.31-34.56-12.72-4-26.75-4.17-39.71-5.22-8.3,3.34-17.43,4.61-25.64,7-3.16,1.75-.49,6,1.42,7.14,6.82,2.55,13.64,5.11,20.69,4.68,15.5,19.31,24.53,44.12,47.4,59,1.91,1.16,2.59,5.23,2.35,8.22-2.72,8.81-8.59,19.37-18.72,20.56-21.53-6.76-43.13-12.52-66.46-9.39-2.07.83-3.15,1.75-2.4,4.82,2.59,5.23,8.33,8.7,13.15,11.1,10.72,3.87,21.45,7.75,31,13.54,4.74,3.39,6.25,9.54,9.84,14.84,8.24,9.7,18.8,15.57,27.13,24.27,6.49,6.54,16.38,8.34,25.11,12.06,5.82,2.48,10.48,6.87,12,13,5.28,21.5,10.57,43,16.27,64.94" style="fill:none;stroke:#263238;stroke-linecap:round;stroke-linejoin:round"></path><path d="M326.63,179.77s-7.21-15,1.35-16.72c0,0,9,11.06,14.66,14.89s17.06,20.84,23.78,26.91,22.83,14.85,28,19.7" style="fill:none;stroke:#263238;stroke-linecap:round;stroke-linejoin:round"></path><path d="M346.21,181.15a122.45,122.45,0,0,0,15.17,5.75s12.86,20.38,22.48,30.11" style="fill:none;stroke:#263238;stroke-linecap:round;stroke-linejoin:round"></path><path d="M374.11,237.48s5.17,4.46,10.56,3.21" style="fill:none;stroke:#263238;stroke-linecap:round;stroke-linejoin:round"></path><path d="M376,246.72c2.12,6.42,15.13,17.9,15.13,17.9s2.8,10,2.45,14.29-4.34,15-2.28,28.17" style="fill:none;stroke:#263238;stroke-linecap:round;stroke-linejoin:round"></path><path d="M391.14,264.62s6.73,3.05,11.8,2.64" style="fill:none;stroke:#263238;stroke-linecap:round;stroke-linejoin:round"></path><path d="M393,338.22c.58.77,18,7.7,23.71,5.28,0,0,14.8,1.2,24-5.51" style="fill:none;stroke:#263238;stroke-linecap:round;stroke-linejoin:round"></path><path d="M324,179.36s-12.63-1.31-12.83-7.81c0,0,9.75-2.1,12.67-3.78" style="fill:none;stroke:#263238;stroke-linecap:round;stroke-linejoin:round"></path><path d="M330.82,166.42s3.29-1.91,5.2-1.76,26.13,5.72,31.27,6.62,26.62,31.34,39.81,35.23" style="fill:none;stroke:#263238;stroke-linecap:round;stroke-linejoin:round"></path><path d="M359.9,267.55c-3.15,1.89-11.27,13.13-11.82,19.93" style="fill:none;stroke:#263238;stroke-linecap:round;stroke-linejoin:round"></path><path d="M332.36,263.45s2.77,6.28-6.33,11.4" style="fill:none;stroke:#263238;stroke-linecap:round;stroke-linejoin:round"></path></g><g id="freepik--Left-hand--inject-13"><path d="M172.12,258.37c-11.41,1.41-35.82,8.78-41.07,9.17s-15.12-14.67-16.1-20.82c0,0,.83-4.59,1.9-9.24,0,0,13.14-6.88,17.64-13.59,6.1-9.09,29.85-44.12,29.85-44.12s22.46-1.57,23.91-9a2.08,2.08,0,0,0-1.06-2.35c-3.19-2-12.87-1.84-24.21-7-2.74-1.24-9.19,0-21.16,1.28-15.11,1.65-19.81,2.6-23.39,5.86-2.54,2.3-13.94,17.08-23.37,27.54,0,0,0,0,0,0-3.87,4.28-7.41,7.83-9.86,9.48a30.49,30.49,0,0,1-5,2.67l-.17.06c-6.08,2.58-10.8,2.8-12.1,10-1.67,9.17-12.6,52.3-19.21,65.83S40.67,309,32.48,320.67s-11.24,9.58-12.41,18.79S9.5,372.6,9.5,372.6a150.62,150.62,0,0,0,14.15,52.62c7.82,16.39,38.35,18.25,45.1-9.8,6.91-28.77,14.52-59.54,16.94-66.17,1.4-3.85,4.58-6.73,8.5-9.06l0,0a70.89,70.89,0,0,1,10.12-4.68c7.18-2.8,14.17-5,16.62-8.44,5.19-7.22,27.09-21.77,30.26-30.05s11-11,20-15.8c2.59-1.39,10.07-3.75,17.06-7.21,6.78-3.36,13.11-7.76,14.08-13.33C203,256.82,183.54,256.94,172.12,258.37Zm-59-45.28-.06,0c-2,1.32-4,2.63-6,3.89,9.62-9.74,22.48-30.11,22.48-30.11a121.61,121.61,0,0,0,15.14-5.74h0c-6.07,6.39-14.69,18.72-20.2,23.69A101.51,101.51,0,0,1,113.15,213.09Z" style="fill:#fff"></path><path d="M202.35,260.66c-1,5.57-7.3,10-14.08,13.33-8.68-.32-17.7-1-21.21-1.92-7.5-1.92,1.15,4.39,1.15,4.39s-5.38,1.39-10.09-3.67c0,0-13.29-.63-14.92,1.21s1.32,5.56-.75,11.18c0,0-8.63-9.35-11.87-10.17s-.45,4.32-8.18,11.79-13.14,15.41-22.21,14.38A51.2,51.2,0,0,0,99.6,291c-.88-5-2.26-10.33-1.69-18.06s3.69-10.15,3.69-10.15,5.85-10.19,7.94-15.6,1-6.52,1-6.52,15-10.19,19.89-16.62,12.87-17.52,12.89-22.32,20.57-31.07,22.94-30.86l.31,3.94a12.15,12.15,0,0,0,7.11-1.76,8.5,8.5,0,0,1,6.07-1.48l-9.72-2.6c1.67.4,8,1.84,10.08,1,1.85-.76,4.75-2.18,7.08-1.47a2.08,2.08,0,0,1,1.06,2.35c-1.45,7.4-23.91,9-23.91,9s-23.75,35-29.85,44.12c-4.5,6.71-17.64,13.59-17.64,13.59-1.07,4.65-1.9,9.24-1.9,9.24,1,6.15,10.84,21.23,16.1,20.82s29.66-7.76,41.07-9.17S203,256.82,202.35,260.66Z" style="fill:#FF0038;opacity:0.4"></path><path d="M152.19,174.77a93.08,93.08,0,0,1-7.44,6.38h0a121.61,121.61,0,0,1-15.14,5.74S116.72,207.27,107.1,217c2-1.26,4-2.57,6-3.89a38.3,38.3,0,0,1-4.23,3c-4.09,2.37-8.1,5.09-8.1,5.09s-3.29-1.56,4.27-9.46,20.16-25.65,21.47-29.17S146.89,176.51,152.19,174.77Z" style="fill:#FF0038;opacity:0.4"></path><path d="M156,164.74s-28.65,5.19-33.41,7-21.82,28.89-42.35,36.59a30.49,30.49,0,0,0,5-2.67c2.45-1.65,6-5.2,9.86-9.48,0,0,0,0,0,0a48.83,48.83,0,0,0,10.83-9.49c6.43-7.52,14.52-16.41,17.59-17.94s22.78-4.26,27-4.68S156,164.74,156,164.74Z" style="fill:#FF0038;opacity:0.4"></path><path d="M88.62,223s-12.55-.23-14.09,5.56-8.71,25.16-8.71,25.16,10.07-16.24,13.37-21.23S88.62,223,88.62,223Z" style="fill:#FF0038;opacity:0.4"></path><path d="M94.19,340.19c-3.92,2.33-7.1,5.21-8.5,9.06-2.42,6.63-10,37.4-16.94,66.17,3.33-24.11,11.84-58.68,9-56.84C74,361,68,388.2,67,382.46s-.32-30.13-4.69-31.89-6.77-9.74-6.77-9.74c7.23,2.91,17,1.5,17,1.5C79,344.77,87.57,342.68,94.19,340.19Z" style="fill:#FF0038;opacity:0.4"></path><path d="M107.1,217c9.62-9.73,22.48-30.1,22.48-30.1a124.22,124.22,0,0,0,15.17-5.75c-6.07,6.39-14.7,18.72-20.21,23.7C120.6,208.41,113.4,212.91,107.1,217Z" style="fill:none;stroke:#263238;stroke-linecap:round;stroke-linejoin:round"></path><path d="M68.87,412.84c5.47-22.07,8.6-45.4,18.87-67.3,2.67-4.23,6.58-5.55,10.41-7.86,5.82-2.48,11.72-4,16.54-6.35a226.77,226.77,0,0,0,32.79-28.74c4.5-6.38,8-12.68,13.75-16.16,13.31-9.1,33.4-8.71,41.17-24.39.75-3.07-3.32-3.74-5.39-4.58-23.25-2.14-43.78,4.54-65.38,10.3-9.22-2.27-13-12-16.65-19.73-2.55-6.81,3-12.28,9.84-14.84a20.87,20.87,0,0,0,5.66-4.47c12.75-16.08,22.42-32.91,34.17-48.91,8-.64,14.87-2.2,21.61-5.75,1.91-1.16,2.67-4.23,1.59-5.15-9.45-5.26-18.5-5.53-28.63-6.72-9.13-1.27-19.1-.46-28,1.26-5.9,1.48-11.8,3-16.38,8.35-8.17,10.69-15.42,20.3-24.66,30.08-5.58,5.47-12.48,7-19.21,10.58-.92,1.08-1.92,1.16-1.83,2.15-7.32,33.7-16.78,65.57-32.23,97.92-4.34,8.37-9.92,13.84-15.33,21.3-4.42,7.38-2.67,11.1-12.09,38.77" style="fill:none;stroke:#263238;stroke-linecap:round;stroke-linejoin:round"></path><path d="M164.33,179.77s7.21-15-1.35-16.72c0,0-9,11.06-14.65,14.88s-17.07,20.85-23.79,26.92-22.83,14.84-28,19.69" style="fill:none;stroke:#263238;stroke-linecap:round;stroke-linejoin:round"></path><path d="M144.75,181.15a124.22,124.22,0,0,1-15.17,5.75S116.72,207.27,107.1,217" style="fill:none;stroke:#263238;stroke-linecap:round;stroke-linejoin:round"></path><path d="M116.85,237.47s-5.17,4.46-10.56,3.22" style="fill:none;stroke:#263238;stroke-linecap:round;stroke-linejoin:round"></path><path d="M115,246.72c-2.13,6.42-15.14,17.9-15.14,17.9s-2.8,10-2.45,14.28,4.34,15,2.28,28.17" style="fill:none;stroke:#263238;stroke-linecap:round;stroke-linejoin:round"></path><path d="M99.81,264.62s-6.72,3-11.8,2.63" style="fill:none;stroke:#263238;stroke-linecap:round;stroke-linejoin:round"></path><path d="M97.93,338.21c-.58.77-18,7.7-23.71,5.28,0,0-14.8,1.2-24-5.51" style="fill:none;stroke:#263238;stroke-linecap:round;stroke-linejoin:round"></path><path d="M167,179.36s12.63-1.31,12.82-7.81c0,0-9.75-2.1-12.66-3.78" style="fill:none;stroke:#263238;stroke-linecap:round;stroke-linejoin:round"></path><path d="M160.14,166.42s-3.29-1.91-5.2-1.76-26.12,5.72-31.26,6.61S97.05,202.61,83.86,206.5" style="fill:none;stroke:#263238;stroke-linecap:round;stroke-linejoin:round"></path><path d="M131.05,267.55c3.16,1.88,11.27,13.12,11.82,19.93" style="fill:none;stroke:#263238;stroke-linecap:round;stroke-linejoin:round"></path><path d="M158.59,263.45s-2.76,6.28,6.33,11.39" style="fill:none;stroke:#263238;stroke-linecap:round;stroke-linejoin:round"></path></g><g id="freepik--Burger--inject-13"><path d="M331.07,256c-3-3.83-46.82-6.24-87-7.71-35.18-1.29-78-.93-82,1.75-3.11,2.1-2.63,11.85-.6,15s7.82,5.49,11.24,6c12.67,1.92,56.37,10.29,69.69,10.89s30.8.65,45.78,0c12.18-.52,37.47-1.59,42.87-10.46C333.08,268.17,332.19,257.42,331.07,256Z" style="fill:#FF0038"></path><g style="clip-path:url(#freepik--clip-path--inject-13)"><path d="M160.54,252.35a4.57,4.57,0,0,1,1.55-2.31c4-2.7,46.83-3,82-1.76,40.15,1.47,84,3.87,87,7.71-2.7,4.79-13.12,10.19-18.95,11.13a220.89,220.89,0,0,1-28.09,2c-9.16,0-35-1.45-47.24-2s-30.38-1.57-36-3.75-28.31-4.48-35.59-7.39A8.8,8.8,0,0,1,160.54,252.35Z" style="fill-opacity:0.7000000000000001;opacity:0.2"></path><path d="M331.9,269a7.6,7.6,0,0,1-.83,2.46c-5.4,8.87-30.68,9.94-42.87,10.47-15,.64-32.46.6-45.78,0s-57-9-69.69-10.9c-3.42-.52-9.18-2.81-11.24-6a15,15,0,0,1-1.59-6.61c4.46,5.72,6.31,8.61,24,11.9,17.9,3.34,93.24,10.41,122.14,7.49C322.08,276.21,329,272.24,331.9,269Z" style="fill-opacity:0.7000000000000001;opacity:0.2"></path><path d="M244.42,267.28c1.5.1,3,.19,4.51.27" style="fill:none;stroke:#263238;stroke-linecap:round;stroke-linejoin:round"></path><path d="M197.67,262.89c14.44,2.33,29,4.14,43.63,4.2" style="fill:none;stroke:#263238;stroke-linecap:round;stroke-linejoin:round"></path><path d="M160.54,252.35c2.35,4.37,8.34,4.7,12.56,6,6.61,2,13.81,2.75,20.64,3.89" style="fill:none;stroke:#263238;stroke-linecap:round;stroke-linejoin:round"></path><path d="M278.93,269.43c-1,0-2.05-.08-3.07-.14" style="fill:none;stroke:#263238;stroke-linecap:round;stroke-linejoin:round"></path><path d="M290.33,269.33c-1.37.06-2.73.1-4.1.13" style="fill:none;stroke:#263238;stroke-linecap:round;stroke-linejoin:round"></path><path d="M331.07,256c-5.22,10.56-18.8,12.08-29.23,12.73" style="fill:none;stroke:#263238;stroke-linecap:round;stroke-linejoin:round"></path></g><path d="M331.07,256c-3-3.83-46.82-6.24-87-7.71-35.18-1.29-78-.93-82,1.75-3.11,2.1-2.63,11.85-.6,15s7.82,5.49,11.24,6c12.67,1.92,56.37,10.29,69.69,10.89s30.8.65,45.78,0c12.18-.52,37.47-1.59,42.87-10.46C333.08,268.17,332.19,257.42,331.07,256Z" style="fill:none;stroke:#263238;stroke-linecap:round;stroke-linejoin:round"></path><path d="M165.34,232.8s-3.41,5.95-2.26,7.7.44,8.64,0,10.35,5,5.15,9.2,4.15,13.87,3.33,17.2,2.79,8.32,1,11.1,1.62,7.77,4.17,11.1,3.38,7.21,0,9.43,0,3.61,0,8,.12,9.43,2.71,11.37,1.65,10,.31,12.21,0,13,.57,15.68.25,6.24.31,7.35-.25,4.16.45,5.83.32a35.42,35.42,0,0,1,8.29-.32c3.36.44,2.81,1.23,8.36.33s7.81-.33,7.81-.33,4.44-1,7.05-1.77,3.65,1.79,5.91,0,3.09-2.72,4.2-3.38,2.41-2.53,3-2.4a1.87,1.87,0,0,0,1.73-1.51c0-.75,1.63-3.07,1.11-6.75s.15-15-2.84-18.75S197.53,215.84,165.34,232.8Z" style="fill:#263238"></path><g style="clip-path:url(#freepik--clip-path-2--inject-13)"><g style="opacity:0.2"><path d="M236.37,256.6c-1.45,0-3.53,1.88-3.53,1.88l6.86,1.63s9.37,2.06,10,1.46.62-5,0-6.63-.58-2.91-2-5.62S242.2,245,242,243.07s-.21-1-3.33-2.49-8.53,0-11.65-1.33-7.7-2.9-7.7-2.9l12.06-2.52s-15.6.12-17.89,0-6.87,1.83-9.16,2.52-6.24,1.45-6.24,1.45,11.73,2.78,12.21,2.78H196.62c-4.16,0-5-.83-7.08,0s-1.87,1.87-4.15,1.87a28,28,0,0,1-4.22,0c-2.86-.21-7.2-.83-7.2-.83s-3.2,2.34-3.8,2.73-4.41.39-6.67-2.62c0,0,0-.08,0-.12a28.27,28.27,0,0,1-.13,7.78c0-.11,0-.21,0-.32a4.33,4.33,0,0,0,1.6.87c2.91.83.84,3.13,3.95,2.71s6.25-3.13,8.54-1.46,9.57,3.12,11.44,3.33,2.92-2.49,7.28,0,3.34,1.87,6.25,2.49,5.9-1.87,7.84,0,5.48,2.09,8.19,1.68,4.57,3.27,5.4.17-4.78-5-6.45-5-5-.63-5.83-1.67-4.78-.62-2.91-1.46,14.36.62,16.66,1.46,3.94.21,7.49,1a23.18,23.18,0,0,0,6.66.84c1.87,0,1.87-.42,3.74,0S237.82,256.6,236.37,256.6Z" style="fill:#fff"></path><path d="M328.73,253.06s-.54-.48-2.52-4.16-8.12-4.11-10.48-4.55a18.06,18.06,0,0,0-6.73,0c-2.92.39-5.2.44-6.45,0s3.33-2.11,5.61-2.32,3.44-.83,4.95-1a2.47,2.47,0,0,0,1.92-1.74s-5.4.34-12.69,0-9.08-.49-12.45,0-7.53,3-9.82,3.2-6.45,0-5,.83a38,38,0,0,0,10.61,2.6c2.92.11,5.62,0,5.62,0s-14.4,3.29-17.3,3.67-3.09,2.06-4.34,2.27-2.5,1.45-4.58,1.45-3.74.42-3.74,1.25-3.22,3.33.88,3.12a50.89,50.89,0,0,1,7.65.21l-9.36,2.08s3.74,2.24,10.6,1.64,7.08-2.05,11.87-2.26,8.11.83,11,.62,3.7-1.24,6.95-1.88,4.5.43,7.84.43,5.81,2.08,8.53.21,3.82-2.3,2.84-2.71-11.48.83-7.06-.84,8-2.7,9.42-2.49a5.63,5.63,0,0,1,3.68,1.5c.65.51,1.31.34,2.16,0Q328.55,253.66,328.73,253.06Z" style="fill:#fff"></path></g><path d="M178.52,245.88c3.33-.1,6.87,1.36,10,1.77s6-.82,8.74-.09,5.41,2.87,8.95,1.48" style="fill:none;stroke:#263238;stroke-linecap:round;stroke-linejoin:round"></path><path d="M217.64,245H221l2.71,1.45H227" style="fill:none;stroke:#263238;stroke-linecap:round;stroke-linejoin:round"></path><path d="M231.11,246.43c2.27.83,4.78.44,7.17,0" style="fill:none;stroke:#263238;stroke-linecap:round;stroke-linejoin:round"></path><path d="M274.7,256.23c1.4-.35,3.08-.64,4.14.35a2.9,2.9,0,0,0,.56.49,1.75,1.75,0,0,0,.51.14,10.24,10.24,0,0,0,6.6-1.35,3.56,3.56,0,0,1,1-.49,4.44,4.44,0,0,1,2,.43c.65.2,1.54.12,1.79-.52" style="fill:none;stroke:#263238;stroke-linecap:round;stroke-linejoin:round"></path><path d="M296.53,255.49a3.94,3.94,0,0,0,4.09-1.22" style="fill:none;stroke:#263238;stroke-linecap:round;stroke-linejoin:round"></path><path d="M308.34,254.25c1.55-.5,3.21.06,4.81.38a3.54,3.54,0,0,0,1.8,0,6.45,6.45,0,0,0,1.24-.72,6.94,6.94,0,0,1,4.39-.82,20.26,20.26,0,0,1,4.39,1.14" style="fill:none;stroke:#263238;stroke-linecap:round;stroke-linejoin:round"></path><path d="M283,248.33a16.79,16.79,0,0,1,5.29.24c.64.13,1.44.24,1.82-.29" style="fill:none;stroke:#263238;stroke-linecap:round;stroke-linejoin:round"></path><path d="M298.81,247.72A18.59,18.59,0,0,1,305,247a14.26,14.26,0,0,0,2.92,0,6.38,6.38,0,0,1,1.56-.17,12.29,12.29,0,0,1,1.35.39c1.49.37,3-.45,4.49-.73a12.82,12.82,0,0,1,3.86.06" style="fill:none;stroke:#263238;stroke-linecap:round;stroke-linejoin:round"></path><path d="M165.61,247.46c.61-.28,1.16.46,1.74.8.92.55,2.08.1,3.08-.29s2.29-.63,3,.18" style="fill:none;stroke:#263238;stroke-linecap:round;stroke-linejoin:round"></path><path d="M185.83,241.08c2.13-.67,4.22,1.13,6.44,1.39,1.56.18,3.25-.4,4.67.3.39.19.74.48,1.15.64,1.63.63,3.26-.89,5-1.12" style="fill:none;stroke:#263238;stroke-linecap:round;stroke-linejoin:round"></path><path d="M207.22,242.84a5.39,5.39,0,0,1,2.33,1.08,2.36,2.36,0,0,0,2.45.25" style="fill:none;stroke:#263238;stroke-linecap:round;stroke-linejoin:round"></path></g><path d="M165.34,232.8s-3.41,5.95-2.26,7.7.44,8.64,0,10.35,5,5.15,9.2,4.15,13.87,3.33,17.2,2.79,8.32,1,11.1,1.62,7.77,4.17,11.1,3.38,7.21,0,9.43,0,3.61,0,8,.12,9.43,2.71,11.37,1.65,10,.31,12.21,0,13,.57,15.68.25,6.24.31,7.35-.25,4.16.45,5.83.32a35.42,35.42,0,0,1,8.29-.32c3.36.44,2.81,1.23,8.36.33s7.81-.33,7.81-.33,4.44-1,7.05-1.77,3.65,1.79,5.91,0,3.09-2.72,4.2-3.38,2.41-2.53,3-2.4a1.87,1.87,0,0,0,1.73-1.51c0-.75,1.63-3.07,1.11-6.75s.15-15-2.84-18.75S197.53,215.84,165.34,232.8Z" style="fill:none;stroke:#263238;stroke-miterlimit:10"></path><path d="M168.06,224.62s-6.68,8.19-4.56,11.73,3.08,5.25,3.15,9.53,1.8,5.71,3.16,0,1.7-7.67,4.16-8.08,6.29,1.25,6,2.92,3.92,2.34,4.75-1.47,7.22-3,11.93-4.08,6.11-5.91,9.44-5.87,13.59,3.09,19.42,1.71,13,3.18,15.26,5.34,3.87,6.59,6.93,7.42,2.23,16.92,5.83,17.76,2.5-10.82,6.39-11.93,2.77,4.16,5.55,1.94,1.66-6.62,5-8.44,3.05-3.5,5.55-5.3S278.82,233,283,233s10.54-.56,12.48-1.39,4.72-.83,9.16,2.5,4.76,3.46,8.48,2.29,2.62-5.07,7.06-1.74,4,7.49,6,7.22,2.56,8,2.84,9.71,2.39,1.11,2.17-3.61a101.41,101.41,0,0,1,0-15.82c.58-8.48-10.79-23.76-45.75-25.47S186.32,206.31,168.06,224.62Z" style="fill:#999"></path><g style="clip-path:url(#freepik--clip-path-3--inject-13)"><path d="M168.06,224.62s-6.68,8.19-4.56,11.73,3.08,5.25,3.15,9.53,1.8,5.71,3.16,0,1.7-7.67,4.16-8.08,6.29,1.25,6,2.92,3.92,2.34,4.75-1.47,7.22-3,11.93-4.08,6.11-5.91,9.44-5.87,13.59,3.09,19.42,1.71,13,3.18,15.26,5.34,3.87,6.59,6.93,7.42,2.23,16.92,5.83,17.76,2.5-10.82,6.39-11.93,2.77,4.16,5.55,1.94,1.66-6.62,5-8.44,3.05-3.5,5.55-5.3S278.82,233,283,233s10.54-.56,12.48-1.39,4.72-.83,9.16,2.5,4.76,3.46,8.48,2.29,2.62-5.07,7.06-1.74,4,7.49,6,7.22,2.56,8,2.84,9.71,2.39,1.11,2.17-3.61a101.41,101.41,0,0,1,0-15.82c.58-8.48-10.79-23.76-45.75-25.47S186.32,206.31,168.06,224.62Z" style="fill:#fff;opacity:0.5"></path><g style="opacity:0.2"><path d="M329.05,251.54c-.29-1.67-.83-10-2.84-9.71s-1.6-3.89-6-7.22-3.34.56-7.06,1.74-4,1-8.48-2.29-7.22-3.33-9.15-2.5S287.14,233,283,233,278.55,236,276,237.8s-2.22,3.47-5.54,5.29-2.22,6.23-5,8.45-1.66-3.06-5.54-1.94-2.78,12.76-6.39,11.93-2.78-16.93-5.84-17.76-4.7-5.27-6.92-7.42-9.44-6.73-15.26-5.34-16.09-1.67-19.43-1.71-4.71,4.76-9.42,5.87-11.1.28-11.93,4.08-5,3.13-4.76,1.47-3.58-3.33-6-2.92-2.81,2.36-4.16,8.08-3.09,4.27-3.16,0-1-6-3.16-9.53a3.19,3.19,0,0,1-.41-1.59,4,4,0,0,0,2.12,1.59c2.29.27,1.77,6.31,2.86,5.06s.88-5.48,3.59-6a14.67,14.67,0,0,1,9.52,2.35c2.34,1.74,3.45-3.64,6.44-4s7.76,1.13,10.47-1.78,5.2-4.56,7.7-4.78,8.74,3,12.7.64,7.49-1.9,9.78-.65,5.62,4.58,8.53,3.54,8.13.62,9.17,3.11,2.9,6.51,4.77,5.34,3.54,1.54,4.58,3.61,1,.84,3.12-.83,6,2.71,7.7,0,2.71-5.54,5.41-5.68,3.13-.53,5.62-2.52,5.2-3.25,10.62-3a18.45,18.45,0,0,0,4.17-.38h0c3.7-.72,6.92-2.11,9-1.32a5,5,0,0,1,.8.4h0c2.75,1.62,6.27,5.95,9.1,4.33,3.12-1.78,3.12-6,6.87-3.45s5.21,5.29,7.08,4.72,1.6-2.19,3-1.27a4.72,4.72,0,0,0,3.32.19,97.43,97.43,0,0,0,.1,13.91C331.45,252.65,329.32,253.2,329.05,251.54Z"></path><path d="M330.88,228.71c-3.55.86-1.07-1.21-4.67-.8-4.26.49-5.77.8-7.39-.59s-5.87-.89-15.44,1.78c-.53.15-1.08.27-1.62.4a53.58,53.58,0,0,1-9.81.92c-7.29.13-14.92-.46-20.41.8-8.54,1.94-9.78,1.45-14.78-1.05s-14.56-3.74-18.52-3.92-9.78-2.95-15.19-4.21-10,2.93-12.76,2.16S197,227.88,189.54,231s-16.64,1.66-22.89,0a8.32,8.32,0,0,1-2.17-.92,36.39,36.39,0,0,1,3.58-5.47c18.25-18.31,82.46-19.7,117.42-18C316.15,208.14,328.66,220.07,330.88,228.71Z"></path></g></g><path d="M168.06,224.62s-6.68,8.19-4.56,11.73,3.08,5.25,3.15,9.53,1.8,5.71,3.16,0,1.7-7.67,4.16-8.08,6.29,1.25,6,2.92,3.92,2.34,4.75-1.47,7.22-3,11.93-4.08,6.11-5.91,9.44-5.87,13.59,3.09,19.42,1.71,13,3.18,15.26,5.34,3.87,6.59,6.93,7.42,2.23,16.92,5.83,17.76,2.5-10.82,6.39-11.93,2.77,4.16,5.55,1.94,1.66-6.62,5-8.44,3.05-3.5,5.55-5.3S278.82,233,283,233s10.54-.56,12.48-1.39,4.72-.83,9.16,2.5,4.76,3.46,8.48,2.29,2.62-5.07,7.06-1.74,4,7.49,6,7.22,2.56,8,2.84,9.71,2.39,1.11,2.17-3.61a101.41,101.41,0,0,1,0-15.82c.58-8.48-10.79-23.76-45.75-25.47S186.32,206.31,168.06,224.62Z" style="fill:none;stroke:#263238;stroke-linecap:round;stroke-linejoin:round"></path><path d="M336.69,214.06l-.16.46-3,9A47.34,47.34,0,0,1,307.68,218c-10.12-5.51-6.4-10.8-4.2-12.92a9.38,9.38,0,0,1,1.15-1Z" style="fill:#757575"></path><g style="clip-path:url(#freepik--clip-path-4--inject-13)"><path d="M336.69,214.06l-.16.46A10.2,10.2,0,0,1,327.1,218c-7-1-17.18-7.88-23.62-12.92a9.38,9.38,0,0,1,1.15-1Z" style="opacity:0.2"></path><path d="M317.45,221.06s2.76-.14,3.92-4.88,4.21-.88,7.78,0,3.48-1.91,7.38-1.66l-31.9-10.43S296.56,216.33,317.45,221.06Z" style="opacity:0.2"></path></g><path d="M336.69,214.06l-.16.46-3,9A47.34,47.34,0,0,1,307.68,218c-10.12-5.51-6.4-10.8-4.2-12.92a9.38,9.38,0,0,1,1.15-1Z" style="fill:none;stroke:#263238;stroke-linecap:round;stroke-linejoin:round"></path><path d="M229.15,211.86s-23.3,13-38.57,16a65.19,65.19,0,0,1-27.88-.64l-2.34-7-.3-.88,5.27-7.49c19.24-5.07,40.59-3.52,53.08-1.83C225,210.92,229.15,211.86,229.15,211.86Z" style="fill:#757575"></path><g style="clip-path:url(#freepik--clip-path-5--inject-13)"><path d="M218.41,210c-9.81,3.86-35.21,13.18-48.6,12a39.19,39.19,0,0,1-9.45-1.81l-.3-.88,5.27-7.49C184.57,206.79,205.92,208.34,218.41,210Z" style="opacity:0.2"></path><path d="M218.9,217.17s-.35-4-8.61-1.64-16.91,6.74-19.55,5.53-3.33-4.26-9-3.09-9.66,5.92-15.07,5.42-6.59-4-6.59-4l5.27-7.49s23.1-7.08,63.82,0Z" style="opacity:0.2"></path></g><path d="M229.15,211.86s-23.3,13-38.57,16a65.19,65.19,0,0,1-27.88-.64l-2.34-7-.3-.88,5.27-7.49c19.24-5.07,40.59-3.52,53.08-1.83C225,210.92,229.15,211.86,229.15,211.86Z" style="fill:none;stroke:#263238;stroke-linecap:round;stroke-linejoin:round"></path><path d="M315.73,208.41V222s-7.22,8.69-40.23,7.06-54.39-15-54.39-15a72.6,72.6,0,0,1,10.15-3.15C263.89,203.08,315.73,208.41,315.73,208.41Z" style="fill:#757575"></path><g style="clip-path:url(#freepik--clip-path-6--inject-13)"><path d="M315.73,208.41v3.93c-2.9,5.34-12.61,10.26-33.57,11.39-26.07,1.39-43.84-8.14-50.9-12.82C263.89,203.08,315.73,208.41,315.73,208.41Z" style="opacity:0.2"></path><path d="M231.26,210.91s2.93,3,6.31,2.4,5.59,1,9.6,3.88,7.42,1.17,15.06-1.66,6.6,4.86,14.72,4.45,5.12-9.93,11.3-7.67,7.46,7.12,13,3.75,12.5-4.95,14.51-2.18v-5.47S264.9,203.87,231.26,210.91Z" style="opacity:0.2"></path></g><path d="M315.73,208.41V222s-7.22,8.69-40.23,7.06-54.39-15-54.39-15a72.6,72.6,0,0,1,10.15-3.15C263.89,203.08,315.73,208.41,315.73,208.41Z" style="fill:none;stroke:#263238;stroke-linecap:round;stroke-linejoin:round"></path><path d="M160.07,219.35s4.3,2.27,15.74,2.7,39.33-9.77,39.33-9.77" style="fill:none;stroke:#263238;stroke-linecap:round;stroke-linejoin:round"></path><path d="M234.91,214.06s30.8,10.58,48.7,9.6,29.5-8,29.5-8" style="fill:none;stroke:#263238;stroke-linecap:round;stroke-linejoin:round"></path><path d="M315.73,212.28S322.32,218,327.1,218s6.89-1.51,9.58-3.91" style="fill:none;stroke:#263238;stroke-linecap:round;stroke-linejoin:round"></path><path d="M253.64,212.28c-2.29.62,7.29,4.37,12.49,4.89s2.29-6.73,2.29-6.73" style="fill:none;stroke:#263238;stroke-linecap:round;stroke-linejoin:round"></path><path d="M274.87,211.24s-3.75,5.56,0,6.73,14.57,0,15.4-1.79-6.66-5.74-6.66-5.74" style="fill:none;stroke:#263238;stroke-linecap:round;stroke-linejoin:round"></path><path d="M292.77,210.44c0,1.21,4.69,5.9,7.34,5.74s9.93-1.82,10.14-3.9-12.85-1.84-12.85-1.84" style="fill:none;stroke:#263238;stroke-linecap:round;stroke-linejoin:round"></path><path d="M251.77,209.93s-4.82,2.14-7.3,2.35-8.38-.64-6.55-1.85" style="fill:none;stroke:#263238;stroke-linecap:round;stroke-linejoin:round"></path><path d="M187.61,212.31s-5.14,6.89-8.68,6.45-9.37,0-9.16-1.57,13.95-4.91,13.95-4.91" style="fill:none;stroke:#263238;stroke-linecap:round;stroke-linejoin:round"></path><path d="M191,212.28s-1,3.86,1.05,3.9,13.94-2.86,14.56-3.9-7.93-1.85-7.93-1.85" style="fill:none;stroke:#263238;stroke-linecap:round;stroke-linejoin:round"></path><path d="M318.88,210.44a63.09,63.09,0,0,0,6.91,4c1.94.74,5.45.71,5.46,0s-5-2.17-5-2.17" style="fill:none;stroke:#263238;stroke-linecap:round;stroke-linejoin:round"></path><path d="M157.06,194.91c4.15-10.65,6.44-21.06,15.89-26.61,24.53-14.45,60.31-21.78,89.28-19.7s46.85,10.39,65.43,30c1.11,1.17,6.5,14.77,7.56,16,1.78,2,3.61,4.18,4.27,6.8s-.26,5.85-2.74,6.93c-1.64.71-3.53.34-5.29,0-40.17-8.22-81.72-5.77-122.49-1.47-13.27,1.4-26.59,3-39.9,2.21-5.5-.33-12.28-2.22-13.2-7.65a11.13,11.13,0,0,1,.88-5.64C156.85,195.46,157,195.19,157.06,194.91Z" style="fill:#FF0038"></path><g style="clip-path:url(#freepik--clip-path-7--inject-13)"><path d="M339.71,203a5.57,5.57,0,0,1-3,5.26c-1.64.71-3.54.34-5.29,0-40.17-8.22-81.72-5.78-122.5-1.47-13.25,1.4-26.58,3-39.89,2.21-5.5-.33-12.28-2.22-13.2-7.65a8.35,8.35,0,0,1,.11-3.07c1.91,1.54,4.05,2.88,5.68,2.77,3.75-.24,15.82-7.73,26.85-7.11s29.13,1,37.46-1.45,27-4.38,36.26-4.17,31.57,6.27,37.4,6.37,10.62,4.4,17.7,2.13C324,194.71,334.07,197.08,339.71,203Z" style="fill-opacity:0.7000000000000001;opacity:0.2"></path><path d="M274.74,157.26s.46,4.39,1.84,4.15S274.74,157.26,274.74,157.26Z" style="fill:#fff"></path><path d="M250.62,164.7s.46,4.39,1.85,4.16S250.62,164.7,250.62,164.7Z" style="fill:#fff"></path><path d="M239.45,168.6s-2,1.36-.85,1.86S239.45,168.6,239.45,168.6Z" style="fill:#fff"></path><path d="M198.5,158.38s-2,1.35-.85,1.86S198.5,158.38,198.5,158.38Z" style="fill:#fff"></path><path d="M271.64,152s-2,1.36-.85,1.86S271.64,152,271.64,152Z" style="fill:#fff"></path><path d="M301,158.66s-2,1.36-.85,1.86S301,158.66,301,158.66Z" style="fill:#fff"></path><path d="M204.47,165.82s-2,1.36-.85,1.86S204.47,165.82,204.47,165.82Z" style="fill:#fff"></path><path d="M248,157.26s-3.84,1-2.61,2.08S248,157.26,248,157.26Z" style="fill:#fff"></path><path d="M247.11,149.76s3.41,2.05,3.31.42S247.11,149.76,247.11,149.76Z" style="fill:#fff"></path><path d="M265.22,156.11s-3.85,1-2.62,2.08S265.22,156.11,265.22,156.11Z" style="fill:#fff"></path><path d="M259,161.42s2,.38.62,1.38S259,161.42,259,161.42Z" style="fill:#fff"></path><path d="M261.79,150s2,.38.61,1.38S261.79,150,261.79,150Z" style="fill:#fff"></path><path d="M257.14,175.7s2,.38.62,1.38S257.14,175.7,257.14,175.7Z" style="fill:#fff"></path><path d="M202.81,175.94s2,.38.61,1.37S202.81,175.94,202.81,175.94Z" style="fill:#fff"></path><path d="M177,174.57s2,.38.62,1.38S177,174.57,177,174.57Z" style="fill:#fff"></path><path d="M269.89,165.61s-1.78-1-.15-1.5S269.89,165.61,269.89,165.61Z" style="fill:#fff"></path><path d="M322.4,178.11s-1.78-1-.15-1.5S322.4,178.11,322.4,178.11Z" style="fill:#fff"></path><path d="M312.5,177.54s-1.78-1-.15-1.5S312.5,177.54,312.5,177.54Z" style="fill:#fff"></path><path d="M230.88,152.42s-1.78-1-.15-1.5S230.88,152.42,230.88,152.42Z" style="fill:#fff"></path><path d="M283.34,172.33s-1.78-1-.15-1.5S283.34,172.33,283.34,172.33Z" style="fill:#fff"></path><path d="M315.85,170.36s-1.78-1-.15-1.5S315.85,170.36,315.85,170.36Z" style="fill:#fff"></path><path d="M223.67,166s2,.38.61,1.38S223.67,166,223.67,166Z" style="fill:#fff"></path><path d="M183.11,164s2,.38.61,1.38S183.11,164,183.11,164Z" style="fill:#fff"></path><path d="M223.67,155.3s2,.38.61,1.38S223.67,155.3,223.67,155.3Z" style="fill:#fff"></path><path d="M239.7,153.92s2,.19.62.69S239.7,153.92,239.7,153.92Z" style="fill:#fff"></path><path d="M170.93,170.78s2,.19.62.69S170.93,170.78,170.93,170.78Z" style="fill:#fff"></path><path d="M256,153s-3.35,1.62-.47,1.45S256,153,256,153Z" style="fill:#fff"></path><path d="M284.83,156.54s4.21-1.23.83-1.59S284.83,156.54,284.83,156.54Z" style="fill:#fff"></path><path d="M208.89,160.16s4.21-1.23.84-1.59S208.89,160.16,208.89,160.16Z" style="fill:#fff"></path><path d="M219,161.42s-6.93,0-5.23,1.63S219,161.42,219,161.42Z" style="fill:#fff"></path><path d="M270.43,171.19s.79,6.88,2.25,5S270.43,171.19,270.43,171.19Z" style="fill:#fff"></path><path d="M231.81,156.41s-1.85,3.24-.62,2.93S231.81,156.41,231.81,156.41Z" style="fill:#fff"></path><path d="M233.76,178.75s2.11-3.07.85-2.86S233.76,178.75,233.76,178.75Z" style="fill:#fff"></path><path d="M279.23,152.2s-1.85,1.62-.61,1.47S279.23,152.2,279.23,152.2Z" style="fill:#fff"></path><path d="M295.69,174s.95,3.61,1.61,2.52S295.69,174,295.69,174Z" style="fill:#fff"></path><path d="M291.94,162.42s-1.85,3.24-.62,2.92S291.94,162.42,291.94,162.42Z" style="fill:#fff"></path><path d="M219.5,174.21s-3.11,2-1.87,2.33S219.5,174.21,219.5,174.21Z" style="fill:#fff"></path><path d="M305.81,165.73s2.08,3.1,2.35,1.86S305.81,165.73,305.81,165.73Z" style="fill:#fff"></path><path d="M190,170.17s-3.73,0-2.85.9S190,170.17,190,170.17Z" style="fill:#fff"></path><path d="M215.82,153.74s3.73.1,2.87-.84S215.82,153.74,215.82,153.74Z" style="fill:#fff"></path><path d="M211.31,194.64c2.4-.16,4.79-.45,7.16-.84" style="fill:none;stroke:#263238;stroke-linecap:round;stroke-linejoin:round"></path><path d="M156,198.3c4.53,6.28,11.86-.13,16.77-2.16,10.47-4.33,21.94-1.31,32.9-1.31" style="fill:none;stroke:#263238;stroke-linecap:round;stroke-linejoin:round"></path><path d="M259.3,188.09a41.16,41.16,0,0,0-4.83.49" style="fill:none;stroke:#263238;stroke-linecap:round;stroke-linejoin:round"></path><path d="M284.41,191.62c-8.42-1.42-12.61-3.78-20-3.44" style="fill:none;stroke:#263238;stroke-linecap:round;stroke-linejoin:round"></path><path d="M313.11,197.82c-2.92.09-6.27-1.94-10.33-2.7-4.31-.8-9.33-.36-13-1.65" style="fill:none;stroke:#263238;stroke-linecap:round;stroke-linejoin:round"></path><path d="M339.71,203c-4.71-4-12.22-8.16-18.89-6.88" style="fill:none;stroke:#263238;stroke-linecap:round;stroke-linejoin:round"></path></g><path d="M157.06,194.91c4.15-10.65,6.44-21.06,15.89-26.61,24.53-14.45,60.31-21.78,89.28-19.7s46.85,10.39,65.43,30c1.11,1.17,6.5,14.77,7.56,16,1.78,2,3.61,4.18,4.27,6.8s-.26,5.85-2.74,6.93c-1.64.71-3.53.34-5.29,0-40.17-8.22-81.72-5.77-122.49-1.47-13.27,1.4-26.59,3-39.9,2.21-5.5-.33-12.28-2.22-13.2-7.65a11.13,11.13,0,0,1,.88-5.64C156.85,195.46,157,195.19,157.06,194.91Z" style="fill:none;stroke:#263238;stroke-linecap:round;stroke-linejoin:round"></path><path d="M164.78,206s-6.67,1.67-6,4.72-3,3.3-3,3.3.28,1.14,4.51,1.42,5.78-2.78,7.78,0,3.38,9,9.49,5.59,6.1-10.08,11.37-7,10,8.07,14.71,5.57,9.16-9.16,12.76-7.49,9.71,7.21,14.15,5.27,6.39-8,12.21-6.94,8.05,4.95,12.77,3.59,6.1-4.42,10-4.84,5.82,7.36,11.93,7.91,6.59-7.49,12.45-7.91,9.19,8.19,12.8,8.19,6.42-6.66,10.42-6.11,4.84,6.66,8.44,6.94,6.66-4.52,10.55-4.2,3.88,5.51,10,0c0,0-6-.79-8.56-8S195.86,191.88,164.78,206Z" style="fill:#FF0038"></path><g style="clip-path:url(#freepik--clip-path-8--inject-13)"><path d="M342.08,214c-2.72,2.46-4.23,2.78-5.4,2.36-1.47-.51-2.43-2.19-4.58-2.36a7,7,0,0,0-4.25,1.36c-2.11,1.3-4.09,3-6.29,2.84-2.61-.21-3.77-3.45-5.73-5.44a4.65,4.65,0,0,0-2.72-1.5c-2.14-.29-3.94,1.47-5.7,3.19-1.54,1.48-3.05,2.92-4.73,2.92-2.15,0-4.22-3.07-6.77-5.46-1.72-1.6-3.66-2.89-6-2.72-3,.21-4.56,2.39-6.2,4.41s-3.25,3.76-6.26,3.49c-3.59-.33-5.75-3.16-7.71-5.35-1.36-1.52-2.63-2.72-4.22-2.55-3.19.33-4.69,2.45-7.73,4a13.89,13.89,0,0,1-2.25.88c-3.67,1.06-5.84-1-9.36-2.53a15.81,15.81,0,0,0-3.4-1.06c-4.76-.91-6.93,3-10,5.51a9.08,9.08,0,0,1-2.24,1.43c-3.42,1.5-7.81-1.45-11.31-3.64a25.73,25.73,0,0,0-2.84-1.63c-3.61-1.67-8,5-12.76,7.49a5.72,5.72,0,0,1-1.74.6c-3.56.6-7.16-2.4-11-5-.63-.42-1.28-.83-1.93-1.21-5.27-3.08-5.27,3.63-11.37,7a8.31,8.31,0,0,1-1.68.73c-4.71,1.45-6-3.82-7.81-6.32a2.56,2.56,0,0,0-1.35-1.11c-1.51-.44-3.18,1.32-6.44,1.11-4.21-.28-4.5-1.41-4.5-1.41a5,5,0,0,0,1.13-.23,2.46,2.46,0,0,0,1.91-3.08c-.7-3.05,6-4.72,6-4.72,31.07-14.15,166.19-7.21,168.74,0S342.08,214,342.08,214Z" style="fill:#fff;opacity:0.6000000000000001"></path><g style="opacity:0.1"><path d="M176.85,208.41c1.92,2.24-.75,9.66-1,13.38-4.71,1.45-6-3.82-7.81-6.32a2.56,2.56,0,0,0-1.35-1.11C170.89,208.8,174.89,206.1,176.85,208.41Z"></path><path d="M199.19,209.93c2.26,3.6,1.18,7.83,2.7,10.3-3.56.6-7.16-2.4-11-5C192.42,208.49,196.42,205.51,199.19,209.93Z"></path><path d="M232.78,216a9.08,9.08,0,0,1-2.24,1.43c-3.42,1.5-7.81-1.45-11.31-3.64a26.5,26.5,0,0,1,2.57-3.84C225.28,205.85,227.51,210.29,232.78,216Z"></path><path d="M257.77,213.18a13.89,13.89,0,0,1-2.25.88c-3.67,1.06-5.84-1-9.36-2.53,1.16-2.27,2.33-4.25,3.67-4.89C253,205.09,255.16,209.43,257.77,213.18Z"></path><path d="M283.69,213.64c-1.6,2-3.25,3.76-6.26,3.49-3.59-.33-5.75-3.16-7.71-5.35a9.52,9.52,0,0,1,4.39-2.55C279.27,208.08,280.93,210.25,283.69,213.64Z"></path><path d="M307.41,214.49c-1.54,1.48-3.05,2.92-4.73,2.92-2.15,0-4.22-3.07-6.77-5.46a41.64,41.64,0,0,1,3.72-3.54C302.45,206.26,304.58,210.35,307.41,214.49Z"></path><path d="M327.85,215.4c-2.11,1.3-4.09,3-6.29,2.84-2.61-.21-3.77-3.45-5.73-5.44.62-3.16,1.47-6,3.78-5.38C323.76,208.59,325.29,211.82,327.85,215.4Z"></path><path d="M342.08,214c-2.72,2.46-4.23,2.78-5.4,2.36-2.25-.8-2.54-3.3-3.34-5-1.06-2.26-3.09-2.05-5.34-2.85a39.39,39.39,0,0,1-4.55-2.48c-1.54-.79-3.44-1.23-5-.42-.94.51-1.71,1.47-2.78,1.51-1.28.05-2.22-1.25-3.46-1.58-2.09-.55-4.09,1.77-6.21,1.34-1.69-.34-2.69-2.29-4.38-2.61-2-.38-3.63,1.72-5.61,2.28-2.14.6-4.3-.66-6.42-1.32a12.11,12.11,0,0,0-6.46-.2,30.28,30.28,0,0,1-4,1c-2.22.22-4.45-.67-6.66-.39-1.06.13-2.07.52-3.13.59-2.74.17-5.6-1.84-8.07-.63-1,.51-1.93,1.59-3.1,1.54-1.48-.08-2.09-1.58-3.22-2.25-1.33-.79-2.65-.64-4.15-.84-3.12-.42-5.85-1.58-8.47.88-1.43,1.33-2.67,3-4.46,3.76-2.37,1-5.15.29-7.39-1s-4.17-3-6.42-4.31a13.06,13.06,0,0,0-7.76-1.74,9.31,9.31,0,0,0-6.73,4c-.64,1-1.06,2.11-1.79,3a3.12,3.12,0,0,1-3,1.33c-1.39-.37-2-2-2.8-3.16-5.7-8.17-13.78,3.29-20.15-.78-2.91-1.86-7.08-1.86-11.65,1.19-4.11,2.74-6.55,8.15-13.3,6.55a2.46,2.46,0,0,0,1.91-3.08c-.7-3.05,6-4.72,6-4.72,31.07-14.15,166.19-7.21,168.74,0S342.08,214,342.08,214Z"></path></g><path d="M187.07,200.73c-3,.17-6.61,12-10.08,14s-5.69-1.94-5.69-1.94" style="fill:none;stroke:#263238;stroke-linecap:round;stroke-linejoin:round"></path><path d="M158.49,212.76c2.55-.9,5.46-1.87,6.57-4.09" style="fill:none;stroke:#263238;stroke-linecap:round;stroke-linejoin:round"></path><path d="M196.83,214.06s3,5.71,7.77.57,8.91-8.71,13.33-6.22,8,6.92,11.23,4.7" style="fill:none;stroke:#263238;stroke-linecap:round;stroke-linejoin:round"></path><path d="M306.06,208.41s3.84-4.74,8.83-.71,3.89,6.8,7.91,5.55" style="fill:none;stroke:#263238;stroke-linecap:round;stroke-linejoin:round"></path><path d="M324.47,202.7s6.38,3.75,7.91,6.52,3.46,6.39,5.41,5.83" style="fill:none;stroke:#263238;stroke-linecap:round;stroke-linejoin:round"></path><path d="M257.18,208.41s4.3-5.15,9.71-2.93,7.77,7.77,11,7.49,5.14-4.86,8.47-5.13" style="fill:none;stroke:#263238;stroke-linecap:round;stroke-linejoin:round"></path></g><path d="M164.78,206s-6.67,1.67-6,4.72-3,3.3-3,3.3.28,1.14,4.51,1.42,5.78-2.78,7.78,0,3.38,9,9.49,5.59,6.1-10.08,11.37-7,10,8.07,14.71,5.57,9.16-9.16,12.76-7.49,9.71,7.21,14.15,5.27,6.39-8,12.21-6.94,8.05,4.95,12.77,3.59,6.1-4.42,10-4.84,5.82,7.36,11.93,7.91,6.59-7.49,12.45-7.91,9.19,8.19,12.8,8.19,6.42-6.66,10.42-6.11,4.84,6.66,8.44,6.94,6.66-4.52,10.55-4.2,3.88,5.51,10,0c0,0-6-.79-8.56-8S195.86,191.88,164.78,206Z" style="fill:none;stroke:#263238;stroke-linecap:round;stroke-linejoin:round"></path></g></svg>