<svg width="23" height="27" viewBox="0 0 23 27" fill="none" xmlns="http://www.w3.org/2000/svg">
<path d="M14.9873 9.65428L14.5469 21.1924M8.45309 21.1924L8.01273 9.65428M20.6993 5.53901C21.1345 5.60567 21.5673 5.67618 22 5.75182M20.6993 5.53901L19.34 23.3373C19.2845 24.0619 18.9595 24.7387 18.43 25.2324C17.9005 25.7261 17.2055 26.0002 16.484 26H6.516C5.79449 26.0002 5.09948 25.7261 4.56997 25.2324C4.04046 24.7387 3.71548 24.0619 3.66 23.3373L2.30073 5.53901M20.6993 5.53901C19.2304 5.31532 17.7539 5.14555 16.2727 5.03005M2.30073 5.53901C1.86545 5.60439 1.43273 5.6749 1 5.75054M2.30073 5.53901C3.76962 5.31532 5.24612 5.14555 6.72727 5.03005M16.2727 5.03005V3.85572C16.2727 2.34294 15.1145 1.08144 13.6127 1.034C12.2046 0.988666 10.7954 0.988666 9.38727 1.034C7.88545 1.08144 6.72727 2.34422 6.72727 3.85572V5.03005M16.2727 5.03005C13.0956 4.78272 9.90435 4.78272 6.72727 5.03005" stroke="#F1F9E4" stroke-width="1.5" stroke-linecap="round" stroke-linejoin="round"/>
</svg>
